<svg version="1.1" xmlns="http://www.w3.org/2000/svg" viewBox="0 0 750.0183458417679 468.5919173882072" width="750.0183458417679" height="468.5919173882072" class="excalidraw-svg">
  <!-- svg-source:excalidraw -->
  
  <defs>
    <style class="style-fonts">
      
    </style>
    
  </defs>
  <g stroke-linecap="round" transform="translate(10 10) rotate(0 365.00917292088394 224.2959586941036)"><path d="M32 0 C236.11 0, 440.21 0, 698.02 0 C719.35 0, 730.02 10.67, 730.02 32 C730.02 122.72, 730.02 213.45, 730.02 416.59 C730.02 437.93, 719.35 448.59, 698.02 448.59 C557.86 448.59, 417.71 448.59, 32 448.59 C10.67 448.59, 0 437.93, 0 416.59 C0 329.18, 0 241.77, 0 32 C0 10.67, 10.67 0, 32 0" stroke="none" stroke-width="0" fill="#e9ecef"></path><path d="M32 0 C224.63 0, 417.26 0, 698.02 0 M32 0 C202.48 0, 372.96 0, 698.02 0 M698.02 0 C719.35 0, 730.02 10.67, 730.02 32 M698.02 0 C719.35 0, 730.02 10.67, 730.02 32 M730.02 32 C730.02 172.29, 730.02 312.59, 730.02 416.59 M730.02 32 C730.02 175.65, 730.02 319.3, 730.02 416.59 M730.02 416.59 C730.02 437.93, 719.35 448.59, 698.02 448.59 M730.02 416.59 C730.02 437.93, 719.35 448.59, 698.02 448.59 M698.02 448.59 C491.35 448.59, 284.67 448.59, 32 448.59 M698.02 448.59 C524.58 448.59, 351.14 448.59, 32 448.59 M32 448.59 C10.67 448.59, 0 437.93, 0 416.59 M32 448.59 C10.67 448.59, 0 437.93, 0 416.59 M0 416.59 C0 279.72, 0 142.84, 0 32 M0 416.59 C0 284.25, 0 151.91, 0 32 M0 32 C0 10.67, 10.67 0, 32 0 M0 32 C0 10.67, 10.67 0, 32 0" stroke="#1e1e1e" stroke-width="2" fill="none"></path></g><g stroke-linecap="round"><g transform="translate(105.99461621355363 397.46825106852464) rotate(0 188.59765625 0)"><path d="M0 0 C62.87 0, 314.33 0, 377.2 0 M0 0 C62.87 0, 314.33 0, 377.2 0" stroke="#1e1e1e" stroke-width="4" fill="none"></path></g><g transform="translate(105.99461621355363 397.46825106852464) rotate(0 188.59765625 0)"><path d="M353.7 8.55 C362.15 5.47, 370.6 2.4, 377.2 0 M353.7 8.55 C360.65 6.02, 367.59 3.5, 377.2 0" stroke="#1e1e1e" stroke-width="4" fill="none"></path></g><g transform="translate(105.99461621355363 397.46825106852464) rotate(0 188.59765625 0)"><path d="M353.7 -8.55 C362.15 -5.47, 370.6 -2.4, 377.2 0 M353.7 -8.55 C360.65 -6.02, 367.59 -3.5, 377.2 0" stroke="#1e1e1e" stroke-width="4" fill="none"></path></g></g><mask></mask><g stroke-linecap="round"><g transform="translate(105.20945996355363 396.91356356852464) rotate(0 5.684341886080802e-14 -150.2734375)"><path d="M0 0 C0 -50.09, 0 -250.46, 0 -300.55 M0 0 C0 -50.09, 0 -250.46, 0 -300.55" stroke="#1e1e1e" stroke-width="4" fill="none"></path></g><g transform="translate(105.20945996355363 396.91356356852464) rotate(0 5.684341886080802e-14 -150.2734375)"><path d="M8.55 -277.05 C6.04 -283.95, 3.53 -290.84, 0 -300.55 M8.55 -277.05 C6.4 -282.97, 4.24 -288.89, 0 -300.55" stroke="#1e1e1e" stroke-width="4" fill="none"></path></g><g transform="translate(105.20945996355363 396.91356356852464) rotate(0 5.684341886080802e-14 -150.2734375)"><path d="M-8.55 -277.05 C-6.04 -283.95, -3.53 -290.84, 0 -300.55 M-8.55 -277.05 C-6.4 -282.97, -4.24 -288.89, 0 -300.55" stroke="#1e1e1e" stroke-width="4" fill="none"></path></g></g><mask></mask><g stroke-linecap="round" transform="translate(140.24461621355363 267.48387606852464) rotate(0 16.056640625 16.056640625)"><path d="M32.11 16.06 C32.11 16.99, 32.03 17.93, 31.87 18.84 C31.71 19.76, 31.46 20.67, 31.14 21.55 C30.83 22.42, 30.43 23.28, 29.96 24.08 C29.5 24.89, 28.95 25.67, 28.36 26.38 C27.76 27.09, 27.09 27.76, 26.38 28.36 C25.67 28.95, 24.89 29.5, 24.08 29.96 C23.28 30.43, 22.42 30.83, 21.55 31.14 C20.67 31.46, 19.76 31.71, 18.84 31.87 C17.93 32.03, 16.99 32.11, 16.06 32.11 C15.13 32.11, 14.18 32.03, 13.27 31.87 C12.35 31.71, 11.44 31.46, 10.56 31.14 C9.69 30.83, 8.83 30.43, 8.03 29.96 C7.22 29.5, 6.45 28.95, 5.74 28.36 C5.02 27.76, 4.35 27.09, 3.76 26.38 C3.16 25.67, 2.62 24.89, 2.15 24.08 C1.69 23.28, 1.29 22.42, 0.97 21.55 C0.65 20.67, 0.41 19.76, 0.24 18.84 C0.08 17.93, 0 16.99, 0 16.06 C0 15.13, 0.08 14.18, 0.24 13.27 C0.41 12.35, 0.65 11.44, 0.97 10.56 C1.29 9.69, 1.69 8.83, 2.15 8.03 C2.62 7.22, 3.16 6.45, 3.76 5.74 C4.35 5.02, 5.02 4.35, 5.74 3.76 C6.45 3.16, 7.22 2.62, 8.03 2.15 C8.83 1.69, 9.69 1.29, 10.56 0.97 C11.44 0.65, 12.35 0.41, 13.27 0.24 C14.18 0.08, 15.13 0, 16.06 0 C16.99 0, 17.93 0.08, 18.84 0.24 C19.76 0.41, 20.67 0.65, 21.55 0.97 C22.42 1.29, 23.28 1.69, 24.08 2.15 C24.89 2.62, 25.67 3.16, 26.38 3.76 C27.09 4.35, 27.76 5.02, 28.36 5.74 C28.95 6.45, 29.5 7.22, 29.96 8.03 C30.43 8.83, 30.83 9.69, 31.14 10.56 C31.46 11.44, 31.71 12.35, 31.87 13.27 C32.03 14.18, 32.07 15.59, 32.11 16.06 C32.15 16.52, 32.15 15.59, 32.11 16.06" stroke="none" stroke-width="0" fill="#a5d8ff"></path><path d="M32.11 16.06 C32.11 16.99, 32.03 17.93, 31.87 18.84 C31.71 19.76, 31.46 20.67, 31.14 21.55 C30.83 22.42, 30.43 23.28, 29.96 24.08 C29.5 24.89, 28.95 25.67, 28.36 26.38 C27.76 27.09, 27.09 27.76, 26.38 28.36 C25.67 28.95, 24.89 29.5, 24.08 29.96 C23.28 30.43, 22.42 30.83, 21.55 31.14 C20.67 31.46, 19.76 31.71, 18.84 31.87 C17.93 32.03, 16.99 32.11, 16.06 32.11 C15.13 32.11, 14.18 32.03, 13.27 31.87 C12.35 31.71, 11.44 31.46, 10.56 31.14 C9.69 30.83, 8.83 30.43, 8.03 29.96 C7.22 29.5, 6.45 28.95, 5.74 28.36 C5.02 27.76, 4.35 27.09, 3.76 26.38 C3.16 25.67, 2.62 24.89, 2.15 24.08 C1.69 23.28, 1.29 22.42, 0.97 21.55 C0.65 20.67, 0.41 19.76, 0.24 18.84 C0.08 17.93, 0 16.99, 0 16.06 C0 15.13, 0.08 14.18, 0.24 13.27 C0.41 12.35, 0.65 11.44, 0.97 10.56 C1.29 9.69, 1.69 8.83, 2.15 8.03 C2.62 7.22, 3.16 6.45, 3.76 5.74 C4.35 5.02, 5.02 4.35, 5.74 3.76 C6.45 3.16, 7.22 2.62, 8.03 2.15 C8.83 1.69, 9.69 1.29, 10.56 0.97 C11.44 0.65, 12.35 0.41, 13.27 0.24 C14.18 0.08, 15.13 0, 16.06 0 C16.99 0, 17.93 0.08, 18.84 0.24 C19.76 0.41, 20.67 0.65, 21.55 0.97 C22.42 1.29, 23.28 1.69, 24.08 2.15 C24.89 2.62, 25.67 3.16, 26.38 3.76 C27.09 4.35, 27.76 5.02, 28.36 5.74 C28.95 6.45, 29.5 7.22, 29.96 8.03 C30.43 8.83, 30.83 9.69, 31.14 10.56 C31.46 11.44, 31.71 12.35, 31.87 13.27 C32.03 14.18, 32.07 15.59, 32.11 16.06 C32.15 16.52, 32.15 15.59, 32.11 16.06" stroke="#1971c2" stroke-width="4" fill="none"></path></g><g stroke-linecap="round" transform="translate(171.78563183855363 226.36864169352464) rotate(0 16.056640625 16.056640625)"><path d="M32.11 16.06 C32.11 16.99, 32.03 17.93, 31.87 18.84 C31.71 19.76, 31.46 20.67, 31.14 21.55 C30.83 22.42, 30.43 23.28, 29.96 24.08 C29.5 24.89, 28.95 25.67, 28.36 26.38 C27.76 27.09, 27.09 27.76, 26.38 28.36 C25.67 28.95, 24.89 29.5, 24.08 29.96 C23.28 30.43, 22.42 30.83, 21.55 31.14 C20.67 31.46, 19.76 31.71, 18.84 31.87 C17.93 32.03, 16.99 32.11, 16.06 32.11 C15.13 32.11, 14.18 32.03, 13.27 31.87 C12.35 31.71, 11.44 31.46, 10.56 31.14 C9.69 30.83, 8.83 30.43, 8.03 29.96 C7.22 29.5, 6.45 28.95, 5.74 28.36 C5.02 27.76, 4.35 27.09, 3.76 26.38 C3.16 25.67, 2.62 24.89, 2.15 24.08 C1.69 23.28, 1.29 22.42, 0.97 21.55 C0.65 20.67, 0.41 19.76, 0.24 18.84 C0.08 17.93, 0 16.99, 0 16.06 C0 15.13, 0.08 14.18, 0.24 13.27 C0.41 12.35, 0.65 11.44, 0.97 10.56 C1.29 9.69, 1.69 8.83, 2.15 8.03 C2.62 7.22, 3.16 6.45, 3.76 5.74 C4.35 5.02, 5.02 4.35, 5.74 3.76 C6.45 3.16, 7.22 2.62, 8.03 2.15 C8.83 1.69, 9.69 1.29, 10.56 0.97 C11.44 0.65, 12.35 0.41, 13.27 0.24 C14.18 0.08, 15.13 0, 16.06 0 C16.99 0, 17.93 0.08, 18.84 0.24 C19.76 0.41, 20.67 0.65, 21.55 0.97 C22.42 1.29, 23.28 1.69, 24.08 2.15 C24.89 2.62, 25.67 3.16, 26.38 3.76 C27.09 4.35, 27.76 5.02, 28.36 5.74 C28.95 6.45, 29.5 7.22, 29.96 8.03 C30.43 8.83, 30.83 9.69, 31.14 10.56 C31.46 11.44, 31.71 12.35, 31.87 13.27 C32.03 14.18, 32.07 15.59, 32.11 16.06 C32.15 16.52, 32.15 15.59, 32.11 16.06" stroke="none" stroke-width="0" fill="#a5d8ff"></path><path d="M32.11 16.06 C32.11 16.99, 32.03 17.93, 31.87 18.84 C31.71 19.76, 31.46 20.67, 31.14 21.55 C30.83 22.42, 30.43 23.28, 29.96 24.08 C29.5 24.89, 28.95 25.67, 28.36 26.38 C27.76 27.09, 27.09 27.76, 26.38 28.36 C25.67 28.95, 24.89 29.5, 24.08 29.96 C23.28 30.43, 22.42 30.83, 21.55 31.14 C20.67 31.46, 19.76 31.71, 18.84 31.87 C17.93 32.03, 16.99 32.11, 16.06 32.11 C15.13 32.11, 14.18 32.03, 13.27 31.87 C12.35 31.71, 11.44 31.46, 10.56 31.14 C9.69 30.83, 8.83 30.43, 8.03 29.96 C7.22 29.5, 6.45 28.95, 5.74 28.36 C5.02 27.76, 4.35 27.09, 3.76 26.38 C3.16 25.67, 2.62 24.89, 2.15 24.08 C1.69 23.28, 1.29 22.42, 0.97 21.55 C0.65 20.67, 0.41 19.76, 0.24 18.84 C0.08 17.93, 0 16.99, 0 16.06 C0 15.13, 0.08 14.18, 0.24 13.27 C0.41 12.35, 0.65 11.44, 0.97 10.56 C1.29 9.69, 1.69 8.83, 2.15 8.03 C2.62 7.22, 3.16 6.45, 3.76 5.74 C4.35 5.02, 5.02 4.35, 5.74 3.76 C6.45 3.16, 7.22 2.62, 8.03 2.15 C8.83 1.69, 9.69 1.29, 10.56 0.97 C11.44 0.65, 12.35 0.41, 13.27 0.24 C14.18 0.08, 15.13 0, 16.06 0 C16.99 0, 17.93 0.08, 18.84 0.24 C19.76 0.41, 20.67 0.65, 21.55 0.97 C22.42 1.29, 23.28 1.69, 24.08 2.15 C24.89 2.62, 25.67 3.16, 26.38 3.76 C27.09 4.35, 27.76 5.02, 28.36 5.74 C28.95 6.45, 29.5 7.22, 29.96 8.03 C30.43 8.83, 30.83 9.69, 31.14 10.56 C31.46 11.44, 31.71 12.35, 31.87 13.27 C32.03 14.18, 32.07 15.59, 32.11 16.06 C32.15 16.52, 32.15 15.59, 32.11 16.06" stroke="#1971c2" stroke-width="4" fill="none"></path></g><g stroke-linecap="round" transform="translate(189.63328808855363 265.30614169352464) rotate(0 16.056640625 16.056640625)"><path d="M32.11 16.06 C32.11 16.99, 32.03 17.93, 31.87 18.84 C31.71 19.76, 31.46 20.67, 31.14 21.55 C30.83 22.42, 30.43 23.28, 29.96 24.08 C29.5 24.89, 28.95 25.67, 28.36 26.38 C27.76 27.09, 27.09 27.76, 26.38 28.36 C25.67 28.95, 24.89 29.5, 24.08 29.96 C23.28 30.43, 22.42 30.83, 21.55 31.14 C20.67 31.46, 19.76 31.71, 18.84 31.87 C17.93 32.03, 16.99 32.11, 16.06 32.11 C15.13 32.11, 14.18 32.03, 13.27 31.87 C12.35 31.71, 11.44 31.46, 10.56 31.14 C9.69 30.83, 8.83 30.43, 8.03 29.96 C7.22 29.5, 6.45 28.95, 5.74 28.36 C5.02 27.76, 4.35 27.09, 3.76 26.38 C3.16 25.67, 2.62 24.89, 2.15 24.08 C1.69 23.28, 1.29 22.42, 0.97 21.55 C0.65 20.67, 0.41 19.76, 0.24 18.84 C0.08 17.93, 0 16.99, 0 16.06 C0 15.13, 0.08 14.18, 0.24 13.27 C0.41 12.35, 0.65 11.44, 0.97 10.56 C1.29 9.69, 1.69 8.83, 2.15 8.03 C2.62 7.22, 3.16 6.45, 3.76 5.74 C4.35 5.02, 5.02 4.35, 5.74 3.76 C6.45 3.16, 7.22 2.62, 8.03 2.15 C8.83 1.69, 9.69 1.29, 10.56 0.97 C11.44 0.65, 12.35 0.41, 13.27 0.24 C14.18 0.08, 15.13 0, 16.06 0 C16.99 0, 17.93 0.08, 18.84 0.24 C19.76 0.41, 20.67 0.65, 21.55 0.97 C22.42 1.29, 23.28 1.69, 24.08 2.15 C24.89 2.62, 25.67 3.16, 26.38 3.76 C27.09 4.35, 27.76 5.02, 28.36 5.74 C28.95 6.45, 29.5 7.22, 29.96 8.03 C30.43 8.83, 30.83 9.69, 31.14 10.56 C31.46 11.44, 31.71 12.35, 31.87 13.27 C32.03 14.18, 32.07 15.59, 32.11 16.06 C32.15 16.52, 32.15 15.59, 32.11 16.06" stroke="none" stroke-width="0" fill="#a5d8ff"></path><path d="M32.11 16.06 C32.11 16.99, 32.03 17.93, 31.87 18.84 C31.71 19.76, 31.46 20.67, 31.14 21.55 C30.83 22.42, 30.43 23.28, 29.96 24.08 C29.5 24.89, 28.95 25.67, 28.36 26.38 C27.76 27.09, 27.09 27.76, 26.38 28.36 C25.67 28.95, 24.89 29.5, 24.08 29.96 C23.28 30.43, 22.42 30.83, 21.55 31.14 C20.67 31.46, 19.76 31.71, 18.84 31.87 C17.93 32.03, 16.99 32.11, 16.06 32.11 C15.13 32.11, 14.18 32.03, 13.27 31.87 C12.35 31.71, 11.44 31.46, 10.56 31.14 C9.69 30.83, 8.83 30.43, 8.03 29.96 C7.22 29.5, 6.45 28.95, 5.74 28.36 C5.02 27.76, 4.35 27.09, 3.76 26.38 C3.16 25.67, 2.62 24.89, 2.15 24.08 C1.69 23.28, 1.29 22.42, 0.97 21.55 C0.65 20.67, 0.41 19.76, 0.24 18.84 C0.08 17.93, 0 16.99, 0 16.06 C0 15.13, 0.08 14.18, 0.24 13.27 C0.41 12.35, 0.65 11.44, 0.97 10.56 C1.29 9.69, 1.69 8.83, 2.15 8.03 C2.62 7.22, 3.16 6.45, 3.76 5.74 C4.35 5.02, 5.02 4.35, 5.74 3.76 C6.45 3.16, 7.22 2.62, 8.03 2.15 C8.83 1.69, 9.69 1.29, 10.56 0.97 C11.44 0.65, 12.35 0.41, 13.27 0.24 C14.18 0.08, 15.13 0, 16.06 0 C16.99 0, 17.93 0.08, 18.84 0.24 C19.76 0.41, 20.67 0.65, 21.55 0.97 C22.42 1.29, 23.28 1.69, 24.08 2.15 C24.89 2.62, 25.67 3.16, 26.38 3.76 C27.09 4.35, 27.76 5.02, 28.36 5.74 C28.95 6.45, 29.5 7.22, 29.96 8.03 C30.43 8.83, 30.83 9.69, 31.14 10.56 C31.46 11.44, 31.71 12.35, 31.87 13.27 C32.03 14.18, 32.07 15.59, 32.11 16.06 C32.15 16.52, 32.15 15.59, 32.11 16.06" stroke="#1971c2" stroke-width="4" fill="none"></path></g><g stroke-linecap="round" transform="translate(212.10203808855363 217.91551669352464) rotate(0 16.056640625 16.056640625)"><path d="M32.11 16.06 C32.11 16.99, 32.03 17.93, 31.87 18.84 C31.71 19.76, 31.46 20.67, 31.14 21.55 C30.83 22.42, 30.43 23.28, 29.96 24.08 C29.5 24.89, 28.95 25.67, 28.36 26.38 C27.76 27.09, 27.09 27.76, 26.38 28.36 C25.67 28.95, 24.89 29.5, 24.08 29.96 C23.28 30.43, 22.42 30.83, 21.55 31.14 C20.67 31.46, 19.76 31.71, 18.84 31.87 C17.93 32.03, 16.99 32.11, 16.06 32.11 C15.13 32.11, 14.18 32.03, 13.27 31.87 C12.35 31.71, 11.44 31.46, 10.56 31.14 C9.69 30.83, 8.83 30.43, 8.03 29.96 C7.22 29.5, 6.45 28.95, 5.74 28.36 C5.02 27.76, 4.35 27.09, 3.76 26.38 C3.16 25.67, 2.62 24.89, 2.15 24.08 C1.69 23.28, 1.29 22.42, 0.97 21.55 C0.65 20.67, 0.41 19.76, 0.24 18.84 C0.08 17.93, 0 16.99, 0 16.06 C0 15.13, 0.08 14.18, 0.24 13.27 C0.41 12.35, 0.65 11.44, 0.97 10.56 C1.29 9.69, 1.69 8.83, 2.15 8.03 C2.62 7.22, 3.16 6.45, 3.76 5.74 C4.35 5.02, 5.02 4.35, 5.74 3.76 C6.45 3.16, 7.22 2.62, 8.03 2.15 C8.83 1.69, 9.69 1.29, 10.56 0.97 C11.44 0.65, 12.35 0.41, 13.27 0.24 C14.18 0.08, 15.13 0, 16.06 0 C16.99 0, 17.93 0.08, 18.84 0.24 C19.76 0.41, 20.67 0.65, 21.55 0.97 C22.42 1.29, 23.28 1.69, 24.08 2.15 C24.89 2.62, 25.67 3.16, 26.38 3.76 C27.09 4.35, 27.76 5.02, 28.36 5.74 C28.95 6.45, 29.5 7.22, 29.96 8.03 C30.43 8.83, 30.83 9.69, 31.14 10.56 C31.46 11.44, 31.71 12.35, 31.87 13.27 C32.03 14.18, 32.07 15.59, 32.11 16.06 C32.15 16.52, 32.15 15.59, 32.11 16.06" stroke="none" stroke-width="0" fill="#a5d8ff"></path><path d="M32.11 16.06 C32.11 16.99, 32.03 17.93, 31.87 18.84 C31.71 19.76, 31.46 20.67, 31.14 21.55 C30.83 22.42, 30.43 23.28, 29.96 24.08 C29.5 24.89, 28.95 25.67, 28.36 26.38 C27.76 27.09, 27.09 27.76, 26.38 28.36 C25.67 28.95, 24.89 29.5, 24.08 29.96 C23.28 30.43, 22.42 30.83, 21.55 31.14 C20.67 31.46, 19.76 31.71, 18.84 31.87 C17.93 32.03, 16.99 32.11, 16.06 32.11 C15.13 32.11, 14.18 32.03, 13.27 31.87 C12.35 31.71, 11.44 31.46, 10.56 31.14 C9.69 30.83, 8.83 30.43, 8.03 29.96 C7.22 29.5, 6.45 28.95, 5.74 28.36 C5.02 27.76, 4.35 27.09, 3.76 26.38 C3.16 25.67, 2.62 24.89, 2.15 24.08 C1.69 23.28, 1.29 22.42, 0.97 21.55 C0.65 20.67, 0.41 19.76, 0.24 18.84 C0.08 17.93, 0 16.99, 0 16.06 C0 15.13, 0.08 14.18, 0.24 13.27 C0.41 12.35, 0.65 11.44, 0.97 10.56 C1.29 9.69, 1.69 8.83, 2.15 8.03 C2.62 7.22, 3.16 6.45, 3.76 5.74 C4.35 5.02, 5.02 4.35, 5.74 3.76 C6.45 3.16, 7.22 2.62, 8.03 2.15 C8.83 1.69, 9.69 1.29, 10.56 0.97 C11.44 0.65, 12.35 0.41, 13.27 0.24 C14.18 0.08, 15.13 0, 16.06 0 C16.99 0, 17.93 0.08, 18.84 0.24 C19.76 0.41, 20.67 0.65, 21.55 0.97 C22.42 1.29, 23.28 1.69, 24.08 2.15 C24.89 2.62, 25.67 3.16, 26.38 3.76 C27.09 4.35, 27.76 5.02, 28.36 5.74 C28.95 6.45, 29.5 7.22, 29.96 8.03 C30.43 8.83, 30.83 9.69, 31.14 10.56 C31.46 11.44, 31.71 12.35, 31.87 13.27 C32.03 14.18, 32.07 15.59, 32.11 16.06 C32.15 16.52, 32.15 15.59, 32.11 16.06" stroke="#1971c2" stroke-width="4" fill="none"></path></g><g stroke-linecap="round" transform="translate(169.71922558855363 179.69676669352464) rotate(0 16.056640625 16.056640625)"><path d="M32.11 16.06 C32.11 16.99, 32.03 17.93, 31.87 18.84 C31.71 19.76, 31.46 20.67, 31.14 21.55 C30.83 22.42, 30.43 23.28, 29.96 24.08 C29.5 24.89, 28.95 25.67, 28.36 26.38 C27.76 27.09, 27.09 27.76, 26.38 28.36 C25.67 28.95, 24.89 29.5, 24.08 29.96 C23.28 30.43, 22.42 30.83, 21.55 31.14 C20.67 31.46, 19.76 31.71, 18.84 31.87 C17.93 32.03, 16.99 32.11, 16.06 32.11 C15.13 32.11, 14.18 32.03, 13.27 31.87 C12.35 31.71, 11.44 31.46, 10.56 31.14 C9.69 30.83, 8.83 30.43, 8.03 29.96 C7.22 29.5, 6.45 28.95, 5.74 28.36 C5.02 27.76, 4.35 27.09, 3.76 26.38 C3.16 25.67, 2.62 24.89, 2.15 24.08 C1.69 23.28, 1.29 22.42, 0.97 21.55 C0.65 20.67, 0.41 19.76, 0.24 18.84 C0.08 17.93, 0 16.99, 0 16.06 C0 15.13, 0.08 14.18, 0.24 13.27 C0.41 12.35, 0.65 11.44, 0.97 10.56 C1.29 9.69, 1.69 8.83, 2.15 8.03 C2.62 7.22, 3.16 6.45, 3.76 5.74 C4.35 5.02, 5.02 4.35, 5.74 3.76 C6.45 3.16, 7.22 2.62, 8.03 2.15 C8.83 1.69, 9.69 1.29, 10.56 0.97 C11.44 0.65, 12.35 0.41, 13.27 0.24 C14.18 0.08, 15.13 0, 16.06 0 C16.99 0, 17.93 0.08, 18.84 0.24 C19.76 0.41, 20.67 0.65, 21.55 0.97 C22.42 1.29, 23.28 1.69, 24.08 2.15 C24.89 2.62, 25.67 3.16, 26.38 3.76 C27.09 4.35, 27.76 5.02, 28.36 5.74 C28.95 6.45, 29.5 7.22, 29.96 8.03 C30.43 8.83, 30.83 9.69, 31.14 10.56 C31.46 11.44, 31.71 12.35, 31.87 13.27 C32.03 14.18, 32.07 15.59, 32.11 16.06 C32.15 16.52, 32.15 15.59, 32.11 16.06" stroke="none" stroke-width="0" fill="#a5d8ff"></path><path d="M32.11 16.06 C32.11 16.99, 32.03 17.93, 31.87 18.84 C31.71 19.76, 31.46 20.67, 31.14 21.55 C30.83 22.42, 30.43 23.28, 29.96 24.08 C29.5 24.89, 28.95 25.67, 28.36 26.38 C27.76 27.09, 27.09 27.76, 26.38 28.36 C25.67 28.95, 24.89 29.5, 24.08 29.96 C23.28 30.43, 22.42 30.83, 21.55 31.14 C20.67 31.46, 19.76 31.71, 18.84 31.87 C17.93 32.03, 16.99 32.11, 16.06 32.11 C15.13 32.11, 14.18 32.03, 13.27 31.87 C12.35 31.71, 11.44 31.46, 10.56 31.14 C9.69 30.83, 8.83 30.43, 8.03 29.96 C7.22 29.5, 6.45 28.95, 5.74 28.36 C5.02 27.76, 4.35 27.09, 3.76 26.38 C3.16 25.67, 2.62 24.89, 2.15 24.08 C1.69 23.28, 1.29 22.42, 0.97 21.55 C0.65 20.67, 0.41 19.76, 0.24 18.84 C0.08 17.93, 0 16.99, 0 16.06 C0 15.13, 0.08 14.18, 0.24 13.27 C0.41 12.35, 0.65 11.44, 0.97 10.56 C1.29 9.69, 1.69 8.83, 2.15 8.03 C2.62 7.22, 3.16 6.45, 3.76 5.74 C4.35 5.02, 5.02 4.35, 5.74 3.76 C6.45 3.16, 7.22 2.62, 8.03 2.15 C8.83 1.69, 9.69 1.29, 10.56 0.97 C11.44 0.65, 12.35 0.41, 13.27 0.24 C14.18 0.08, 15.13 0, 16.06 0 C16.99 0, 17.93 0.08, 18.84 0.24 C19.76 0.41, 20.67 0.65, 21.55 0.97 C22.42 1.29, 23.28 1.69, 24.08 2.15 C24.89 2.62, 25.67 3.16, 26.38 3.76 C27.09 4.35, 27.76 5.02, 28.36 5.74 C28.95 6.45, 29.5 7.22, 29.96 8.03 C30.43 8.83, 30.83 9.69, 31.14 10.56 C31.46 11.44, 31.71 12.35, 31.87 13.27 C32.03 14.18, 32.07 15.59, 32.11 16.06 C32.15 16.52, 32.15 15.59, 32.11 16.06" stroke="#1971c2" stroke-width="4" fill="none"></path></g><g stroke-linecap="round" transform="translate(265.7905146510536 161.00438388102464) rotate(0 16.056640625 16.056640625)"><path d="M32.11 16.06 C32.11 16.99, 32.03 17.93, 31.87 18.84 C31.71 19.76, 31.46 20.67, 31.14 21.55 C30.83 22.42, 30.43 23.28, 29.96 24.08 C29.5 24.89, 28.95 25.67, 28.36 26.38 C27.76 27.09, 27.09 27.76, 26.38 28.36 C25.67 28.95, 24.89 29.5, 24.08 29.96 C23.28 30.43, 22.42 30.83, 21.55 31.14 C20.67 31.46, 19.76 31.71, 18.84 31.87 C17.93 32.03, 16.99 32.11, 16.06 32.11 C15.13 32.11, 14.18 32.03, 13.27 31.87 C12.35 31.71, 11.44 31.46, 10.56 31.14 C9.69 30.83, 8.83 30.43, 8.03 29.96 C7.22 29.5, 6.45 28.95, 5.74 28.36 C5.02 27.76, 4.35 27.09, 3.76 26.38 C3.16 25.67, 2.62 24.89, 2.15 24.08 C1.69 23.28, 1.29 22.42, 0.97 21.55 C0.65 20.67, 0.41 19.76, 0.24 18.84 C0.08 17.93, 0 16.99, 0 16.06 C0 15.13, 0.08 14.18, 0.24 13.27 C0.41 12.35, 0.65 11.44, 0.97 10.56 C1.29 9.69, 1.69 8.83, 2.15 8.03 C2.62 7.22, 3.16 6.45, 3.76 5.74 C4.35 5.02, 5.02 4.35, 5.74 3.76 C6.45 3.16, 7.22 2.62, 8.03 2.15 C8.83 1.69, 9.69 1.29, 10.56 0.97 C11.44 0.65, 12.35 0.41, 13.27 0.24 C14.18 0.08, 15.13 0, 16.06 0 C16.99 0, 17.93 0.08, 18.84 0.24 C19.76 0.41, 20.67 0.65, 21.55 0.97 C22.42 1.29, 23.28 1.69, 24.08 2.15 C24.89 2.62, 25.67 3.16, 26.38 3.76 C27.09 4.35, 27.76 5.02, 28.36 5.74 C28.95 6.45, 29.5 7.22, 29.96 8.03 C30.43 8.83, 30.83 9.69, 31.14 10.56 C31.46 11.44, 31.71 12.35, 31.87 13.27 C32.03 14.18, 32.07 15.59, 32.11 16.06 C32.15 16.52, 32.15 15.59, 32.11 16.06" stroke="none" stroke-width="0" fill="#b2f2bb"></path><path d="M32.11 16.06 C32.11 16.99, 32.03 17.93, 31.87 18.84 C31.71 19.76, 31.46 20.67, 31.14 21.55 C30.83 22.42, 30.43 23.28, 29.96 24.08 C29.5 24.89, 28.95 25.67, 28.36 26.38 C27.76 27.09, 27.09 27.76, 26.38 28.36 C25.67 28.95, 24.89 29.5, 24.08 29.96 C23.28 30.43, 22.42 30.83, 21.55 31.14 C20.67 31.46, 19.76 31.71, 18.84 31.87 C17.93 32.03, 16.99 32.11, 16.06 32.11 C15.13 32.11, 14.18 32.03, 13.27 31.87 C12.35 31.71, 11.44 31.46, 10.56 31.14 C9.69 30.83, 8.83 30.43, 8.03 29.96 C7.22 29.5, 6.45 28.95, 5.74 28.36 C5.02 27.76, 4.35 27.09, 3.76 26.38 C3.16 25.67, 2.62 24.89, 2.15 24.08 C1.69 23.28, 1.29 22.42, 0.97 21.55 C0.65 20.67, 0.41 19.76, 0.24 18.84 C0.08 17.93, 0 16.99, 0 16.06 C0 15.13, 0.08 14.18, 0.24 13.27 C0.41 12.35, 0.65 11.44, 0.97 10.56 C1.29 9.69, 1.69 8.83, 2.15 8.03 C2.62 7.22, 3.16 6.45, 3.76 5.74 C4.35 5.02, 5.02 4.35, 5.74 3.76 C6.45 3.16, 7.22 2.62, 8.03 2.15 C8.83 1.69, 9.69 1.29, 10.56 0.97 C11.44 0.65, 12.35 0.41, 13.27 0.24 C14.18 0.08, 15.13 0, 16.06 0 C16.99 0, 17.93 0.08, 18.84 0.24 C19.76 0.41, 20.67 0.65, 21.55 0.97 C22.42 1.29, 23.28 1.69, 24.08 2.15 C24.89 2.62, 25.67 3.16, 26.38 3.76 C27.09 4.35, 27.76 5.02, 28.36 5.74 C28.95 6.45, 29.5 7.22, 29.96 8.03 C30.43 8.83, 30.83 9.69, 31.14 10.56 C31.46 11.44, 31.71 12.35, 31.87 13.27 C32.03 14.18, 32.07 15.59, 32.11 16.06 C32.15 16.52, 32.15 15.59, 32.11 16.06" stroke="#2f9e44" stroke-width="4" fill="none"></path></g><g stroke-linecap="round" transform="translate(297.3315302760536 119.88914950602464) rotate(0 16.056640625 16.056640625)"><path d="M32.11 16.06 C32.11 16.99, 32.03 17.93, 31.87 18.84 C31.71 19.76, 31.46 20.67, 31.14 21.55 C30.83 22.42, 30.43 23.28, 29.96 24.08 C29.5 24.89, 28.95 25.67, 28.36 26.38 C27.76 27.09, 27.09 27.76, 26.38 28.36 C25.67 28.95, 24.89 29.5, 24.08 29.96 C23.28 30.43, 22.42 30.83, 21.55 31.14 C20.67 31.46, 19.76 31.71, 18.84 31.87 C17.93 32.03, 16.99 32.11, 16.06 32.11 C15.13 32.11, 14.18 32.03, 13.27 31.87 C12.35 31.71, 11.44 31.46, 10.56 31.14 C9.69 30.83, 8.83 30.43, 8.03 29.96 C7.22 29.5, 6.45 28.95, 5.74 28.36 C5.02 27.76, 4.35 27.09, 3.76 26.38 C3.16 25.67, 2.62 24.89, 2.15 24.08 C1.69 23.28, 1.29 22.42, 0.97 21.55 C0.65 20.67, 0.41 19.76, 0.24 18.84 C0.08 17.93, 0 16.99, 0 16.06 C0 15.13, 0.08 14.18, 0.24 13.27 C0.41 12.35, 0.65 11.44, 0.97 10.56 C1.29 9.69, 1.69 8.83, 2.15 8.03 C2.62 7.22, 3.16 6.45, 3.76 5.74 C4.35 5.02, 5.02 4.35, 5.74 3.76 C6.45 3.16, 7.22 2.62, 8.03 2.15 C8.83 1.69, 9.69 1.29, 10.56 0.97 C11.44 0.65, 12.35 0.41, 13.27 0.24 C14.18 0.08, 15.13 0, 16.06 0 C16.99 0, 17.93 0.08, 18.84 0.24 C19.76 0.41, 20.67 0.65, 21.55 0.97 C22.42 1.29, 23.28 1.69, 24.08 2.15 C24.89 2.62, 25.67 3.16, 26.38 3.76 C27.09 4.35, 27.76 5.02, 28.36 5.74 C28.95 6.45, 29.5 7.22, 29.96 8.03 C30.43 8.83, 30.83 9.69, 31.14 10.56 C31.46 11.44, 31.71 12.35, 31.87 13.27 C32.03 14.18, 32.07 15.59, 32.11 16.06 C32.15 16.52, 32.15 15.59, 32.11 16.06" stroke="none" stroke-width="0" fill="#b2f2bb"></path><path d="M32.11 16.06 C32.11 16.99, 32.03 17.93, 31.87 18.84 C31.71 19.76, 31.46 20.67, 31.14 21.55 C30.83 22.42, 30.43 23.28, 29.96 24.08 C29.5 24.89, 28.95 25.67, 28.36 26.38 C27.76 27.09, 27.09 27.76, 26.38 28.36 C25.67 28.95, 24.89 29.5, 24.08 29.96 C23.28 30.43, 22.42 30.83, 21.55 31.14 C20.67 31.46, 19.76 31.71, 18.84 31.87 C17.93 32.03, 16.99 32.11, 16.06 32.11 C15.13 32.11, 14.18 32.03, 13.27 31.87 C12.35 31.71, 11.44 31.46, 10.56 31.14 C9.69 30.83, 8.83 30.43, 8.03 29.96 C7.22 29.5, 6.45 28.95, 5.74 28.36 C5.02 27.76, 4.35 27.09, 3.76 26.38 C3.16 25.67, 2.62 24.89, 2.15 24.08 C1.69 23.28, 1.29 22.42, 0.97 21.55 C0.65 20.67, 0.41 19.76, 0.24 18.84 C0.08 17.93, 0 16.99, 0 16.06 C0 15.13, 0.08 14.18, 0.24 13.27 C0.41 12.35, 0.65 11.44, 0.97 10.56 C1.29 9.69, 1.69 8.83, 2.15 8.03 C2.62 7.22, 3.16 6.45, 3.76 5.74 C4.35 5.02, 5.02 4.35, 5.74 3.76 C6.45 3.16, 7.22 2.62, 8.03 2.15 C8.83 1.69, 9.69 1.29, 10.56 0.97 C11.44 0.65, 12.35 0.41, 13.27 0.24 C14.18 0.08, 15.13 0, 16.06 0 C16.99 0, 17.93 0.08, 18.84 0.24 C19.76 0.41, 20.67 0.65, 21.55 0.97 C22.42 1.29, 23.28 1.69, 24.08 2.15 C24.89 2.62, 25.67 3.16, 26.38 3.76 C27.09 4.35, 27.76 5.02, 28.36 5.74 C28.95 6.45, 29.5 7.22, 29.96 8.03 C30.43 8.83, 30.83 9.69, 31.14 10.56 C31.46 11.44, 31.71 12.35, 31.87 13.27 C32.03 14.18, 32.07 15.59, 32.11 16.06 C32.15 16.52, 32.15 15.59, 32.11 16.06" stroke="#2f9e44" stroke-width="4" fill="none"></path></g><g stroke-linecap="round" transform="translate(315.1791865260536 158.82664950602464) rotate(0 16.056640625 16.056640625)"><path d="M32.11 16.06 C32.11 16.99, 32.03 17.93, 31.87 18.84 C31.71 19.76, 31.46 20.67, 31.14 21.55 C30.83 22.42, 30.43 23.28, 29.96 24.08 C29.5 24.89, 28.95 25.67, 28.36 26.38 C27.76 27.09, 27.09 27.76, 26.38 28.36 C25.67 28.95, 24.89 29.5, 24.08 29.96 C23.28 30.43, 22.42 30.83, 21.55 31.14 C20.67 31.46, 19.76 31.71, 18.84 31.87 C17.93 32.03, 16.99 32.11, 16.06 32.11 C15.13 32.11, 14.18 32.03, 13.27 31.87 C12.35 31.71, 11.44 31.46, 10.56 31.14 C9.69 30.83, 8.83 30.43, 8.03 29.96 C7.22 29.5, 6.45 28.95, 5.74 28.36 C5.02 27.76, 4.35 27.09, 3.76 26.38 C3.16 25.67, 2.62 24.89, 2.15 24.08 C1.69 23.28, 1.29 22.42, 0.97 21.55 C0.65 20.67, 0.41 19.76, 0.24 18.84 C0.08 17.93, 0 16.99, 0 16.06 C0 15.13, 0.08 14.18, 0.24 13.27 C0.41 12.35, 0.65 11.44, 0.97 10.56 C1.29 9.69, 1.69 8.83, 2.15 8.03 C2.62 7.22, 3.16 6.45, 3.76 5.74 C4.35 5.02, 5.02 4.35, 5.74 3.76 C6.45 3.16, 7.22 2.62, 8.03 2.15 C8.83 1.69, 9.69 1.29, 10.56 0.97 C11.44 0.65, 12.35 0.41, 13.27 0.24 C14.18 0.08, 15.13 0, 16.06 0 C16.99 0, 17.93 0.08, 18.84 0.24 C19.76 0.41, 20.67 0.65, 21.55 0.97 C22.42 1.29, 23.28 1.69, 24.08 2.15 C24.89 2.62, 25.67 3.16, 26.38 3.76 C27.09 4.35, 27.76 5.02, 28.36 5.74 C28.95 6.45, 29.5 7.22, 29.96 8.03 C30.43 8.83, 30.83 9.69, 31.14 10.56 C31.46 11.44, 31.71 12.35, 31.87 13.27 C32.03 14.18, 32.07 15.59, 32.11 16.06 C32.15 16.52, 32.15 15.59, 32.11 16.06" stroke="none" stroke-width="0" fill="#b2f2bb"></path><path d="M32.11 16.06 C32.11 16.99, 32.03 17.93, 31.87 18.84 C31.71 19.76, 31.46 20.67, 31.14 21.55 C30.83 22.42, 30.43 23.28, 29.96 24.08 C29.5 24.89, 28.95 25.67, 28.36 26.38 C27.76 27.09, 27.09 27.76, 26.38 28.36 C25.67 28.95, 24.89 29.5, 24.08 29.96 C23.28 30.43, 22.42 30.83, 21.55 31.14 C20.67 31.46, 19.76 31.71, 18.84 31.87 C17.93 32.03, 16.99 32.11, 16.06 32.11 C15.13 32.11, 14.18 32.03, 13.27 31.87 C12.35 31.71, 11.44 31.46, 10.56 31.14 C9.69 30.83, 8.83 30.43, 8.03 29.96 C7.22 29.5, 6.45 28.95, 5.74 28.36 C5.02 27.76, 4.35 27.09, 3.76 26.38 C3.16 25.67, 2.62 24.89, 2.15 24.08 C1.69 23.28, 1.29 22.42, 0.97 21.55 C0.65 20.67, 0.41 19.76, 0.24 18.84 C0.08 17.93, 0 16.99, 0 16.06 C0 15.13, 0.08 14.18, 0.24 13.27 C0.41 12.35, 0.65 11.44, 0.97 10.56 C1.29 9.69, 1.69 8.83, 2.15 8.03 C2.62 7.22, 3.16 6.45, 3.76 5.74 C4.35 5.02, 5.02 4.35, 5.74 3.76 C6.45 3.16, 7.22 2.62, 8.03 2.15 C8.83 1.69, 9.69 1.29, 10.56 0.97 C11.44 0.65, 12.35 0.41, 13.27 0.24 C14.18 0.08, 15.13 0, 16.06 0 C16.99 0, 17.93 0.08, 18.84 0.24 C19.76 0.41, 20.67 0.65, 21.55 0.97 C22.42 1.29, 23.28 1.69, 24.08 2.15 C24.89 2.62, 25.67 3.16, 26.38 3.76 C27.09 4.35, 27.76 5.02, 28.36 5.74 C28.95 6.45, 29.5 7.22, 29.96 8.03 C30.43 8.83, 30.83 9.69, 31.14 10.56 C31.46 11.44, 31.71 12.35, 31.87 13.27 C32.03 14.18, 32.07 15.59, 32.11 16.06 C32.15 16.52, 32.15 15.59, 32.11 16.06" stroke="#2f9e44" stroke-width="4" fill="none"></path></g><g stroke-linecap="round" transform="translate(337.6479365260536 111.43602450602464) rotate(0 16.056640625 16.056640625)"><path d="M32.11 16.06 C32.11 16.99, 32.03 17.93, 31.87 18.84 C31.71 19.76, 31.46 20.67, 31.14 21.55 C30.83 22.42, 30.43 23.28, 29.96 24.08 C29.5 24.89, 28.95 25.67, 28.36 26.38 C27.76 27.09, 27.09 27.76, 26.38 28.36 C25.67 28.95, 24.89 29.5, 24.08 29.96 C23.28 30.43, 22.42 30.83, 21.55 31.14 C20.67 31.46, 19.76 31.71, 18.84 31.87 C17.93 32.03, 16.99 32.11, 16.06 32.11 C15.13 32.11, 14.18 32.03, 13.27 31.87 C12.35 31.71, 11.44 31.46, 10.56 31.14 C9.69 30.83, 8.83 30.43, 8.03 29.96 C7.22 29.5, 6.45 28.95, 5.74 28.36 C5.02 27.76, 4.35 27.09, 3.76 26.38 C3.16 25.67, 2.62 24.89, 2.15 24.08 C1.69 23.28, 1.29 22.42, 0.97 21.55 C0.65 20.67, 0.41 19.76, 0.24 18.84 C0.08 17.93, 0 16.99, 0 16.06 C0 15.13, 0.08 14.18, 0.24 13.27 C0.41 12.35, 0.65 11.44, 0.97 10.56 C1.29 9.69, 1.69 8.83, 2.15 8.03 C2.62 7.22, 3.16 6.45, 3.76 5.74 C4.35 5.02, 5.02 4.35, 5.74 3.76 C6.45 3.16, 7.22 2.62, 8.03 2.15 C8.83 1.69, 9.69 1.29, 10.56 0.97 C11.44 0.65, 12.35 0.41, 13.27 0.24 C14.18 0.08, 15.13 0, 16.06 0 C16.99 0, 17.93 0.08, 18.84 0.24 C19.76 0.41, 20.67 0.65, 21.55 0.97 C22.42 1.29, 23.28 1.69, 24.08 2.15 C24.89 2.62, 25.67 3.16, 26.38 3.76 C27.09 4.35, 27.76 5.02, 28.36 5.74 C28.95 6.45, 29.5 7.22, 29.96 8.03 C30.43 8.83, 30.83 9.69, 31.14 10.56 C31.46 11.44, 31.71 12.35, 31.87 13.27 C32.03 14.18, 32.07 15.59, 32.11 16.06 C32.15 16.52, 32.15 15.59, 32.11 16.06" stroke="none" stroke-width="0" fill="#b2f2bb"></path><path d="M32.11 16.06 C32.11 16.99, 32.03 17.93, 31.87 18.84 C31.71 19.76, 31.46 20.67, 31.14 21.55 C30.83 22.42, 30.43 23.28, 29.96 24.08 C29.5 24.89, 28.95 25.67, 28.36 26.38 C27.76 27.09, 27.09 27.76, 26.38 28.36 C25.67 28.95, 24.89 29.5, 24.08 29.96 C23.28 30.43, 22.42 30.83, 21.55 31.14 C20.67 31.46, 19.76 31.71, 18.84 31.87 C17.93 32.03, 16.99 32.11, 16.06 32.11 C15.13 32.11, 14.18 32.03, 13.27 31.87 C12.35 31.71, 11.44 31.46, 10.56 31.14 C9.69 30.83, 8.83 30.43, 8.03 29.96 C7.22 29.5, 6.45 28.95, 5.74 28.36 C5.02 27.76, 4.35 27.09, 3.76 26.38 C3.16 25.67, 2.62 24.89, 2.15 24.08 C1.69 23.28, 1.29 22.42, 0.97 21.55 C0.65 20.67, 0.41 19.76, 0.24 18.84 C0.08 17.93, 0 16.99, 0 16.06 C0 15.13, 0.08 14.18, 0.24 13.27 C0.41 12.35, 0.65 11.44, 0.97 10.56 C1.29 9.69, 1.69 8.83, 2.15 8.03 C2.62 7.22, 3.16 6.45, 3.76 5.74 C4.35 5.02, 5.02 4.35, 5.74 3.76 C6.45 3.16, 7.22 2.62, 8.03 2.15 C8.83 1.69, 9.69 1.29, 10.56 0.97 C11.44 0.65, 12.35 0.41, 13.27 0.24 C14.18 0.08, 15.13 0, 16.06 0 C16.99 0, 17.93 0.08, 18.84 0.24 C19.76 0.41, 20.67 0.65, 21.55 0.97 C22.42 1.29, 23.28 1.69, 24.08 2.15 C24.89 2.62, 25.67 3.16, 26.38 3.76 C27.09 4.35, 27.76 5.02, 28.36 5.74 C28.95 6.45, 29.5 7.22, 29.96 8.03 C30.43 8.83, 30.83 9.69, 31.14 10.56 C31.46 11.44, 31.71 12.35, 31.87 13.27 C32.03 14.18, 32.07 15.59, 32.11 16.06 C32.15 16.52, 32.15 15.59, 32.11 16.06" stroke="#2f9e44" stroke-width="4" fill="none"></path></g><g stroke-linecap="round" transform="translate(364.6557490260536 147.74852450602464) rotate(0 16.056640625 16.056640625)"><path d="M32.11 16.06 C32.11 16.99, 32.03 17.93, 31.87 18.84 C31.71 19.76, 31.46 20.67, 31.14 21.55 C30.83 22.42, 30.43 23.28, 29.96 24.08 C29.5 24.89, 28.95 25.67, 28.36 26.38 C27.76 27.09, 27.09 27.76, 26.38 28.36 C25.67 28.95, 24.89 29.5, 24.08 29.96 C23.28 30.43, 22.42 30.83, 21.55 31.14 C20.67 31.46, 19.76 31.71, 18.84 31.87 C17.93 32.03, 16.99 32.11, 16.06 32.11 C15.13 32.11, 14.18 32.03, 13.27 31.87 C12.35 31.71, 11.44 31.46, 10.56 31.14 C9.69 30.83, 8.83 30.43, 8.03 29.96 C7.22 29.5, 6.45 28.95, 5.74 28.36 C5.02 27.76, 4.35 27.09, 3.76 26.38 C3.16 25.67, 2.62 24.89, 2.15 24.08 C1.69 23.28, 1.29 22.42, 0.97 21.55 C0.65 20.67, 0.41 19.76, 0.24 18.84 C0.08 17.93, 0 16.99, 0 16.06 C0 15.13, 0.08 14.18, 0.24 13.27 C0.41 12.35, 0.65 11.44, 0.97 10.56 C1.29 9.69, 1.69 8.83, 2.15 8.03 C2.62 7.22, 3.16 6.45, 3.76 5.74 C4.35 5.02, 5.02 4.35, 5.74 3.76 C6.45 3.16, 7.22 2.62, 8.03 2.15 C8.83 1.69, 9.69 1.29, 10.56 0.97 C11.44 0.65, 12.35 0.41, 13.27 0.24 C14.18 0.08, 15.13 0, 16.06 0 C16.99 0, 17.93 0.08, 18.84 0.24 C19.76 0.41, 20.67 0.65, 21.55 0.97 C22.42 1.29, 23.28 1.69, 24.08 2.15 C24.89 2.62, 25.67 3.16, 26.38 3.76 C27.09 4.35, 27.76 5.02, 28.36 5.74 C28.95 6.45, 29.5 7.22, 29.96 8.03 C30.43 8.83, 30.83 9.69, 31.14 10.56 C31.46 11.44, 31.71 12.35, 31.87 13.27 C32.03 14.18, 32.07 15.59, 32.11 16.06 C32.15 16.52, 32.15 15.59, 32.11 16.06" stroke="none" stroke-width="0" fill="#b2f2bb"></path><path d="M32.11 16.06 C32.11 16.99, 32.03 17.93, 31.87 18.84 C31.71 19.76, 31.46 20.67, 31.14 21.55 C30.83 22.42, 30.43 23.28, 29.96 24.08 C29.5 24.89, 28.95 25.67, 28.36 26.38 C27.76 27.09, 27.09 27.76, 26.38 28.36 C25.67 28.95, 24.89 29.5, 24.08 29.96 C23.28 30.43, 22.42 30.83, 21.55 31.14 C20.67 31.46, 19.76 31.71, 18.84 31.87 C17.93 32.03, 16.99 32.11, 16.06 32.11 C15.13 32.11, 14.18 32.03, 13.27 31.87 C12.35 31.71, 11.44 31.46, 10.56 31.14 C9.69 30.83, 8.83 30.43, 8.03 29.96 C7.22 29.5, 6.45 28.95, 5.74 28.36 C5.02 27.76, 4.35 27.09, 3.76 26.38 C3.16 25.67, 2.62 24.89, 2.15 24.08 C1.69 23.28, 1.29 22.42, 0.97 21.55 C0.65 20.67, 0.41 19.76, 0.24 18.84 C0.08 17.93, 0 16.99, 0 16.06 C0 15.13, 0.08 14.18, 0.24 13.27 C0.41 12.35, 0.65 11.44, 0.97 10.56 C1.29 9.69, 1.69 8.83, 2.15 8.03 C2.62 7.22, 3.16 6.45, 3.76 5.74 C4.35 5.02, 5.02 4.35, 5.74 3.76 C6.45 3.16, 7.22 2.62, 8.03 2.15 C8.83 1.69, 9.69 1.29, 10.56 0.97 C11.44 0.65, 12.35 0.41, 13.27 0.24 C14.18 0.08, 15.13 0, 16.06 0 C16.99 0, 17.93 0.08, 18.84 0.24 C19.76 0.41, 20.67 0.65, 21.55 0.97 C22.42 1.29, 23.28 1.69, 24.08 2.15 C24.89 2.62, 25.67 3.16, 26.38 3.76 C27.09 4.35, 27.76 5.02, 28.36 5.74 C28.95 6.45, 29.5 7.22, 29.96 8.03 C30.43 8.83, 30.83 9.69, 31.14 10.56 C31.46 11.44, 31.71 12.35, 31.87 13.27 C32.03 14.18, 32.07 15.59, 32.11 16.06 C32.15 16.52, 32.15 15.59, 32.11 16.06" stroke="#2f9e44" stroke-width="4" fill="none"></path></g><g stroke-linecap="round"><g transform="translate(181.54539746355363 110.69871981852464) rotate(0 82.57164125211133 143.018277913007)"><path d="M0 0 C27.52 47.67, 137.62 238.36, 165.14 286.04 M0 0 C27.52 47.67, 137.62 238.36, 165.14 286.04" stroke="#1971c2" stroke-width="4" fill="none"></path></g></g><mask></mask><g stroke-linecap="round"><g transform="translate(106.18720991723865 230.7125143831185) rotate(0 189.26248442131498 -63.121216439593866)"><path d="M0 0 C63.09 -21.04, 315.44 -105.2, 378.52 -126.24 M0 0 C63.09 -21.04, 315.44 -105.2, 378.52 -126.24" stroke="#2f9e44" stroke-width="4" fill="none"></path></g></g><mask></mask></svg>