<svg version="1.1" xmlns="http://www.w3.org/2000/svg" viewBox="0 0 700.8808804284411 411.2465614555832" width="700.8808804284411" height="411.2465614555832" class="excalidraw-svg">
  <!-- svg-source:excalidraw -->
  
  <defs>
    <style class="style-fonts">
      @font-face {
        font-family: "Virgil";
        src: url("https://excalidraw.com/Virgil.woff2");
      }
      @font-face {
        font-family: "Cascadia";
        src: url("https://excalidraw.com/Cascadia.woff2");
      }
      @font-face {
        font-family: "Assistant";
        src: url("https://excalidraw.com/Assistant-Regular.woff2");
      }
    </style>
    
  </defs>
  <g stroke-linecap="round" transform="translate(11.690087127160893 201.77325764623305) rotate(0 22.750457763671875 20.067108154296875)"><path d="M0 0 L45.5 0 L45.5 40.13 L0 40.13" stroke="none" stroke-width="0" fill="#e9ecef"/><path d="M0 0 C16.52 0, 33.04 0, 45.5 0 M0 0 C17.18 0, 34.35 0, 45.5 0 M45.5 0 C45.5 8.19, 45.5 16.37, 45.5 40.13 M45.5 0 C45.5 11.87, 45.5 23.75, 45.5 40.13 M45.5 40.13 C34.7 40.13, 23.91 40.13, 0 40.13 M45.5 40.13 C35.86 40.13, 26.23 40.13, 0 40.13 M0 40.13 C0 27.75, 0 15.37, 0 0 M0 40.13 C0 26.38, 0 12.63, 0 0" stroke="#1e1e1e" stroke-width="2" fill="none"/></g><g transform="translate(27.77062301583277 210.34036580052992) rotate(0 6.669921875 11.5)"><text x="6.669921875" y="18.400390625" font-family="Helvetica, Segoe UI Emoji" font-size="20px" fill="#1e1e1e" text-anchor="middle" style="white-space: pre;" direction="ltr" dominant-baseline="alphabetic">S</text></g><g stroke-linecap="round" transform="translate(56.586770173535086 201.57566258801856) rotate(0 22.750457763671875 20.067108154296875)"><path d="M0 0 L45.5 0 L45.5 40.13 L0 40.13" stroke="none" stroke-width="0" fill="#e9ecef"/><path d="M0 0 C15.36 0, 30.73 0, 45.5 0 M0 0 C15.54 0, 31.09 0, 45.5 0 M45.5 0 C45.5 9.04, 45.5 18.08, 45.5 40.13 M45.5 0 C45.5 10.99, 45.5 21.98, 45.5 40.13 M45.5 40.13 C29.3 40.13, 13.09 40.13, 0 40.13 M45.5 40.13 C36.15 40.13, 26.81 40.13, 0 40.13 M0 40.13 C0 27.02, 0 13.9, 0 0 M0 40.13 C0 24.47, 0 8.8, 0 0" stroke="#1e1e1e" stroke-width="2" fill="none"/></g><g transform="translate(72.11554824970696 210.14277074231543) rotate(0 7.2216796875 11.5)"><text x="7.2216796875" y="18.400390625" font-family="Helvetica, Segoe UI Emoji" font-size="20px" fill="#1e1e1e" text-anchor="middle" style="white-space: pre;" direction="ltr" dominant-baseline="alphabetic">R</text></g><g stroke-linecap="round" transform="translate(103.22519861359041 201.57566258801856) rotate(0 22.75045776367188 20.067108154296875)"><path d="M0 0 L45.5 0 L45.5 40.13 L0 40.13" stroke="none" stroke-width="0" fill="#e9ecef"/><path d="M0 0 C14.4 0, 28.8 0, 45.5 0 M0 0 C12.81 0, 25.62 0, 45.5 0 M45.5 0 C45.5 9.38, 45.5 18.77, 45.5 40.13 M45.5 0 C45.5 13.45, 45.5 26.9, 45.5 40.13 M45.5 40.13 C33.71 40.13, 21.92 40.13, 0 40.13 M45.5 40.13 C30.15 40.13, 14.8 40.13, 0 40.13 M0 40.13 C0 30.9, 0 21.67, 0 0 M0 40.13 C0 31.71, 0 23.29, 0 0" stroke="#1e1e1e" stroke-width="2" fill="none"/></g><g transform="translate(118.19733606476228 210.14277074231543) rotate(0 7.7783203125 11.5)"><text x="7.7783203125" y="18.400390625" font-family="Helvetica, Segoe UI Emoji" font-size="20px" fill="#1e1e1e" text-anchor="middle" style="white-space: pre;" direction="ltr" dominant-baseline="alphabetic">Q</text></g><g stroke-linecap="round" transform="translate(148.21051198700673 201.57566258801856) rotate(0 22.75045776367188 20.067108154296875)"><path d="M0 0 L45.5 0 L45.5 40.13 L0 40.13" stroke="none" stroke-width="0" fill="#e9ecef"/><path d="M0 0 C12.46 0, 24.92 0, 45.5 0 M0 0 C13.4 0, 26.81 0, 45.5 0 M45.5 0 C45.5 11.1, 45.5 22.19, 45.5 40.13 M45.5 0 C45.5 15.07, 45.5 30.14, 45.5 40.13 M45.5 40.13 C33.32 40.13, 21.13 40.13, 0 40.13 M45.5 40.13 C33.42 40.13, 21.34 40.13, 0 40.13 M0 40.13 C0 30.22, 0 20.31, 0 0 M0 40.13 C0 26.61, 0 13.09, 0 0" stroke="#1e1e1e" stroke-width="2" fill="none"/></g><g transform="translate(161.2734697506786 210.14277074231543) rotate(0 9.6875 11.5)"><text x="9.6875" y="18.400390625" font-family="Helvetica, Segoe UI Emoji" font-size="20px" fill="#1e1e1e" text-anchor="middle" style="white-space: pre;" direction="ltr" dominant-baseline="alphabetic">Q'</text></g><g stroke-linecap="round" transform="translate(193.34778275253055 201.57566258801856) rotate(0 86.99552917480469 20.067108154296875)"><path d="M0 0 L173.99 0 L173.99 40.13 L0 40.13" stroke="none" stroke-width="0" fill="#e9ecef"/><path d="M0 0 C48.41 0, 96.83 0, 173.99 0 M0 0 C68.92 0, 137.84 0, 173.99 0 M173.99 0 C173.99 11.18, 173.99 22.36, 173.99 40.13 M173.99 0 C173.99 9.92, 173.99 19.85, 173.99 40.13 M173.99 40.13 C138.57 40.13, 103.14 40.13, 0 40.13 M173.99 40.13 C111.09 40.13, 48.18 40.13, 0 40.13 M0 40.13 C0 26.45, 0 12.77, 0 0 M0 40.13 C0 30.54, 0 20.95, 0 0" stroke="#1e1e1e" stroke-width="2" fill="none"/></g><g stroke-linecap="round" transform="translate(11.326760222528094 241.6041186383884) rotate(0 22.750457763671875 20.067108154296875)"><path d="M0 0 C12 0, 24.01 0, 45.5 0 M0 0 C10.71 0, 21.42 0, 45.5 0 M45.5 0 C45.5 12, 45.5 24, 45.5 40.13 M45.5 0 C45.5 14.31, 45.5 28.62, 45.5 40.13 M45.5 40.13 C28.95 40.13, 12.39 40.13, 0 40.13 M45.5 40.13 C32.06 40.13, 18.62 40.13, 0 40.13 M0 40.13 C0 31.15, 0 22.17, 0 0 M0 40.13 C0 26.88, 0 13.62, 0 0" stroke="#1e1e1e" stroke-width="2" fill="none"/></g><g transform="translate(28.51569454869997 250.17122679268527) rotate(0 5.5615234375 11.5)"><text x="5.5615234375" y="18.400390625" font-family="Helvetica, Segoe UI Emoji" font-size="20px" fill="#1e1e1e" text-anchor="middle" style="white-space: pre;" direction="ltr" dominant-baseline="alphabetic">0</text></g><g stroke-linecap="round" transform="translate(56.7949469744714 241.40956750667965) rotate(0 22.750457763671875 20.067108154296875)"><path d="M0 0 C13.4 0, 26.79 0, 45.5 0 M0 0 C10.85 0, 21.69 0, 45.5 0 M45.5 0 C45.5 8.2, 45.5 16.39, 45.5 40.13 M45.5 0 C45.5 8.91, 45.5 17.82, 45.5 40.13 M45.5 40.13 C35.64 40.13, 25.79 40.13, 0 40.13 M45.5 40.13 C33.98 40.13, 22.47 40.13, 0 40.13 M0 40.13 C0 26.18, 0 12.22, 0 0 M0 40.13 C0 26.21, 0 12.28, 0 0" stroke="#1e1e1e" stroke-width="2" fill="none"/></g><g transform="translate(73.98388130064328 249.97667566097653) rotate(0 5.5615234375 11.5)"><text x="5.5615234375" y="18.400390625" font-family="Helvetica, Segoe UI Emoji" font-size="20px" fill="#1e1e1e" text-anchor="middle" style="white-space: pre;" direction="ltr" dominant-baseline="alphabetic">0</text></g><g stroke-linecap="round" transform="translate(103.23578035631226 241.40956750667965) rotate(0 22.75045776367188 20.067108154296875)"><path d="M0 0 C15.13 0, 30.26 0, 45.5 0 M0 0 C10.14 0, 20.28 0, 45.5 0 M45.5 0 C45.5 11.46, 45.5 22.93, 45.5 40.13 M45.5 0 C45.5 14.59, 45.5 29.18, 45.5 40.13 M45.5 40.13 C32.98 40.13, 20.45 40.13, 0 40.13 M45.5 40.13 C29.78 40.13, 14.06 40.13, 0 40.13 M0 40.13 C0 27.36, 0 14.6, 0 0 M0 40.13 C0 25.25, 0 10.36, 0 0" stroke="#1e1e1e" stroke-width="2" fill="none"/></g><g transform="translate(111.54287874498414 249.97667566097653) rotate(0 14.443359375 11.5)"><text x="14.443359375" y="18.400390625" font-family="Helvetica, Segoe UI Emoji" font-size="20px" fill="#1e1e1e" text-anchor="middle" style="white-space: pre;" direction="ltr" dominant-baseline="alphabetic">NC</text></g><g stroke-linecap="round" transform="translate(148.0234986715141 241.227166064528) rotate(0 22.75045776367188 20.067108154296875)"><path d="M0 0 C14.47 0, 28.93 0, 45.5 0 M0 0 C12.96 0, 25.91 0, 45.5 0 M45.5 0 C45.5 9.48, 45.5 18.97, 45.5 40.13 M45.5 0 C45.5 10.99, 45.5 21.98, 45.5 40.13 M45.5 40.13 C32.5 40.13, 19.49 40.13, 0 40.13 M45.5 40.13 C29.01 40.13, 12.53 40.13, 0 40.13 M0 40.13 C0 30.73, 0 21.33, 0 0 M0 40.13 C0 24.53, 0 8.92, 0 0" stroke="#1e1e1e" stroke-width="2" fill="none"/></g><g transform="translate(156.33059706018597 249.79427421882488) rotate(0 14.443359375 11.5)"><text x="14.443359375" y="18.400390625" font-family="Helvetica, Segoe UI Emoji" font-size="20px" fill="#1e1e1e" text-anchor="middle" style="white-space: pre;" direction="ltr" dominant-baseline="alphabetic">NC</text></g><g stroke-linecap="round" transform="translate(193.35836449525237 241.40956750667965) rotate(0 86.99552917480469 20.067108154296875)"><path d="M0 0 C58.19 0, 116.39 0, 173.99 0 M0 0 C48.08 0, 96.16 0, 173.99 0 M173.99 0 C173.99 11.76, 173.99 23.52, 173.99 40.13 M173.99 0 C173.99 8.12, 173.99 16.23, 173.99 40.13 M173.99 40.13 C115.12 40.13, 56.25 40.13, 0 40.13 M173.99 40.13 C130.57 40.13, 87.16 40.13, 0 40.13 M0 40.13 C0 26.53, 0 12.92, 0 0 M0 40.13 C0 26.34, 0 12.55, 0 0" stroke="#1e1e1e" stroke-width="2" fill="none"/></g><g transform="translate(229.00195590101788 249.65425085839104) rotate(0 51.1474609375 11.5)"><text x="0" y="18.400390625" font-family="Helvetica, Segoe UI Emoji" font-size="20px" fill="#1e1e1e" text-anchor="start" style="white-space: pre;" direction="ltr" dominant-baseline="alphabetic">No change.</text></g><g stroke-linecap="round" transform="translate(10.534838060696643 281.4549349090907) rotate(0 22.750457763671875 20.067108154296875)"><path d="M0 0 C14.33 0, 28.66 0, 45.5 0 M0 0 C9.32 0, 18.64 0, 45.5 0 M45.5 0 C45.5 11.81, 45.5 23.61, 45.5 40.13 M45.5 0 C45.5 11.77, 45.5 23.55, 45.5 40.13 M45.5 40.13 C27.73 40.13, 9.96 40.13, 0 40.13 M45.5 40.13 C27.67 40.13, 9.83 40.13, 0 40.13 M0 40.13 C0 27.19, 0 14.25, 0 0 M0 40.13 C0 26.18, 0 12.22, 0 0" stroke="#1e1e1e" stroke-width="2" fill="none"/></g><g transform="translate(27.723772386868518 290.02204306338757) rotate(0 5.5615234375 11.5)"><text x="5.5615234375" y="18.400390625" font-family="Helvetica, Segoe UI Emoji" font-size="20px" fill="#1e1e1e" text-anchor="middle" style="white-space: pre;" direction="ltr" dominant-baseline="alphabetic">1</text></g><g stroke-linecap="round" transform="translate(56.20366379736015 281.26038377738195) rotate(0 22.750457763671875 20.067108154296875)"><path d="M0 0 C15.04 0, 30.08 0, 45.5 0 M0 0 C10.86 0, 21.72 0, 45.5 0 M45.5 0 C45.5 9.45, 45.5 18.9, 45.5 40.13 M45.5 0 C45.5 11.6, 45.5 23.2, 45.5 40.13 M45.5 40.13 C32.08 40.13, 18.65 40.13, 0 40.13 M45.5 40.13 C30.02 40.13, 14.54 40.13, 0 40.13 M0 40.13 C0 31.52, 0 22.91, 0 0 M0 40.13 C0 29.49, 0 18.84, 0 0" stroke="#1e1e1e" stroke-width="2" fill="none"/></g><g transform="translate(73.39259812353203 289.8274919316788) rotate(0 5.5615234375 11.5)"><text x="5.5615234375" y="18.400390625" font-family="Helvetica, Segoe UI Emoji" font-size="20px" fill="#1e1e1e" text-anchor="middle" style="white-space: pre;" direction="ltr" dominant-baseline="alphabetic">0</text></g><g stroke-linecap="round" transform="translate(102.44385819448081 281.26038377738195) rotate(0 22.75045776367188 20.067108154296875)"><path d="M0 0 C13.47 0, 26.93 0, 45.5 0 M0 0 C9.71 0, 19.42 0, 45.5 0 M45.5 0 C45.5 9.24, 45.5 18.48, 45.5 40.13 M45.5 0 C45.5 11.87, 45.5 23.73, 45.5 40.13 M45.5 40.13 C35.44 40.13, 25.37 40.13, 0 40.13 M45.5 40.13 C32.73 40.13, 19.96 40.13, 0 40.13 M0 40.13 C0 31.69, 0 23.25, 0 0 M0 40.13 C0 31.42, 0 22.71, 0 0" stroke="#1e1e1e" stroke-width="2" fill="none"/></g><g transform="translate(119.63279252065269 289.8274919316788) rotate(0 5.5615234375 11.5)"><text x="5.5615234375" y="18.400390625" font-family="Helvetica, Segoe UI Emoji" font-size="20px" fill="#1e1e1e" text-anchor="middle" style="white-space: pre;" direction="ltr" dominant-baseline="alphabetic">1</text></g><g stroke-linecap="round" transform="translate(147.23157650968264 281.07798233523033) rotate(0 22.75045776367188 20.067108154296875)"><path d="M0 0 C10.84 0, 21.68 0, 45.5 0 M0 0 C17.77 0, 35.54 0, 45.5 0 M45.5 0 C45.5 12.16, 45.5 24.32, 45.5 40.13 M45.5 0 C45.5 9.16, 45.5 18.32, 45.5 40.13 M45.5 40.13 C32.31 40.13, 19.11 40.13, 0 40.13 M45.5 40.13 C32.7 40.13, 19.89 40.13, 0 40.13 M0 40.13 C0 30.99, 0 21.85, 0 0 M0 40.13 C0 27.12, 0 14.1, 0 0" stroke="#1e1e1e" stroke-width="2" fill="none"/></g><g transform="translate(164.42051083585451 289.6450904895272) rotate(0 5.5615234375 11.5)"><text x="5.5615234375" y="18.400390625" font-family="Helvetica, Segoe UI Emoji" font-size="20px" fill="#1e1e1e" text-anchor="middle" style="white-space: pre;" direction="ltr" dominant-baseline="alphabetic">0</text></g><g stroke-linecap="round" transform="translate(192.76708131814115 281.26038377738195) rotate(0 86.99552917480469 20.067108154296875)"><path d="M0 0 C59.33 0, 118.66 0, 173.99 0 M0 0 C65.38 0, 130.76 0, 173.99 0 M173.99 0 C173.99 9.38, 173.99 18.76, 173.99 40.13 M173.99 0 C173.99 13.86, 173.99 27.73, 173.99 40.13 M173.99 40.13 C108.11 40.13, 42.22 40.13, 0 40.13 M173.99 40.13 C112.37 40.13, 50.75 40.13, 0 40.13 M0 40.13 C0 26.45, 0 12.76, 0 0 M0 40.13 C0 30.01, 0 19.89, 0 0" stroke="#1e1e1e" stroke-width="2" fill="none"/></g><g transform="translate(228.41067272390666 289.50506712909333) rotate(0 46.689453125 11.5)"><text x="0" y="18.400390625" font-family="Helvetica, Segoe UI Emoji" font-size="20px" fill="#1e1e1e" text-anchor="start" style="white-space: pre;" direction="ltr" dominant-baseline="alphabetic">Latch SET</text></g><g stroke-linecap="round" transform="translate(10.791922161831451 320.98800284255174) rotate(0 22.750457763671875 20.067108154296875)"><path d="M0 0 C12.23 0, 24.47 0, 45.5 0 M0 0 C13.45 0, 26.89 0, 45.5 0 M45.5 0 C45.5 11.11, 45.5 22.21, 45.5 40.13 M45.5 0 C45.5 11.64, 45.5 23.29, 45.5 40.13 M45.5 40.13 C30.8 40.13, 16.09 40.13, 0 40.13 M45.5 40.13 C35.7 40.13, 25.9 40.13, 0 40.13 M0 40.13 C0 31.28, 0 22.43, 0 0 M0 40.13 C0 31.39, 0 22.64, 0 0" stroke="#1e1e1e" stroke-width="2" fill="none"/></g><g transform="translate(27.980856488003326 329.5551109968486) rotate(0 5.5615234375 11.5)"><text x="5.5615234375" y="18.400390625" font-family="Helvetica, Segoe UI Emoji" font-size="20px" fill="#1e1e1e" text-anchor="middle" style="white-space: pre;" direction="ltr" dominant-baseline="alphabetic">0</text></g><g stroke-linecap="round" transform="translate(56.260108913774786 320.793451710843) rotate(0 22.750457763671875 20.067108154296875)"><path d="M0 0 C17.46 0, 34.92 0, 45.5 0 M0 0 C16.79 0, 33.58 0, 45.5 0 M45.5 0 C45.5 14.19, 45.5 28.37, 45.5 40.13 M45.5 0 C45.5 11.62, 45.5 23.24, 45.5 40.13 M45.5 40.13 C32.2 40.13, 18.89 40.13, 0 40.13 M45.5 40.13 C29.53 40.13, 13.56 40.13, 0 40.13 M0 40.13 C0 25.1, 0 10.06, 0 0 M0 40.13 C0 26.05, 0 11.96, 0 0" stroke="#1e1e1e" stroke-width="2" fill="none"/></g><g transform="translate(73.44904323994666 329.36055986513986) rotate(0 5.5615234375 11.5)"><text x="5.5615234375" y="18.400390625" font-family="Helvetica, Segoe UI Emoji" font-size="20px" fill="#1e1e1e" text-anchor="middle" style="white-space: pre;" direction="ltr" dominant-baseline="alphabetic">1</text></g><g stroke-linecap="round" transform="translate(102.41889485983972 320.793451710843) rotate(0 22.75045776367188 20.067108154296875)"><path d="M0 0 C14.59 0, 29.18 0, 45.5 0 M0 0 C13.26 0, 26.52 0, 45.5 0 M45.5 0 C45.5 12.35, 45.5 24.7, 45.5 40.13 M45.5 0 C45.5 9.29, 45.5 18.57, 45.5 40.13 M45.5 40.13 C31.45 40.13, 17.4 40.13, 0 40.13 M45.5 40.13 C28.04 40.13, 10.58 40.13, 0 40.13 M0 40.13 C0 27.71, 0 15.29, 0 0 M0 40.13 C0 26.22, 0 12.31, 0 0" stroke="#1e1e1e" stroke-width="2" fill="none"/></g><g transform="translate(119.6078291860116 329.36055986513986) rotate(0 5.5615234375 11.5)"><text x="5.5615234375" y="18.400390625" font-family="Helvetica, Segoe UI Emoji" font-size="20px" fill="#1e1e1e" text-anchor="middle" style="white-space: pre;" direction="ltr" dominant-baseline="alphabetic">0</text></g><g stroke-linecap="round" transform="translate(147.48866061081745 320.6110502686913) rotate(0 22.75045776367188 20.067108154296875)"><path d="M0 0 C14.95 0, 29.91 0, 45.5 0 M0 0 C16.04 0, 32.08 0, 45.5 0 M45.5 0 C45.5 11.46, 45.5 22.92, 45.5 40.13 M45.5 0 C45.5 14.41, 45.5 28.81, 45.5 40.13 M45.5 40.13 C31.16 40.13, 16.83 40.13, 0 40.13 M45.5 40.13 C35.95 40.13, 26.4 40.13, 0 40.13 M0 40.13 C0 29.5, 0 18.87, 0 0 M0 40.13 C0 29.92, 0 19.71, 0 0" stroke="#1e1e1e" stroke-width="2" fill="none"/></g><g transform="translate(164.67759493698932 329.1781584229882) rotate(0 5.5615234375 11.5)"><text x="5.5615234375" y="18.400390625" font-family="Helvetica, Segoe UI Emoji" font-size="20px" fill="#1e1e1e" text-anchor="middle" style="white-space: pre;" direction="ltr" dominant-baseline="alphabetic">1</text></g><g stroke-linecap="round" transform="translate(192.82352643455573 320.793451710843) rotate(0 86.99552917480469 20.067108154296875)"><path d="M0 0 C37.08 0, 74.17 0, 173.99 0 M0 0 C67.2 0, 134.41 0, 173.99 0 M173.99 0 C173.99 15.62, 173.99 31.23, 173.99 40.13 M173.99 0 C173.99 10.39, 173.99 20.78, 173.99 40.13 M173.99 40.13 C137.37 40.13, 100.74 40.13, 0 40.13 M173.99 40.13 C127.12 40.13, 80.24 40.13, 0 40.13 M0 40.13 C0 30.63, 0 21.13, 0 0 M0 40.13 C0 29.4, 0 18.67, 0 0" stroke="#1e1e1e" stroke-width="2" fill="none"/></g><g transform="translate(219.4075142873313 329.0381350625544) rotate(0 60.5810546875 11.5)"><text x="0" y="18.400390625" font-family="Helvetica, Segoe UI Emoji" font-size="20px" fill="#1e1e1e" text-anchor="start" style="white-space: pre;" direction="ltr" dominant-baseline="alphabetic">Latch RESET</text></g><g stroke-linecap="round" transform="translate(10 361.11234514698947) rotate(0 22.750457763671875 20.067108154296875)"><path d="M0 0 L45.5 0 L45.5 40.13 L0 40.13" stroke="none" stroke-width="0" fill="#ffc9c9"/><path d="M0 0 C15.28 0, 30.56 0, 45.5 0 M0 0 C16.83 0, 33.66 0, 45.5 0 M45.5 0 C45.5 11.11, 45.5 22.23, 45.5 40.13 M45.5 0 C45.5 10.51, 45.5 21.02, 45.5 40.13 M45.5 40.13 C34.11 40.13, 22.71 40.13, 0 40.13 M45.5 40.13 C29.76 40.13, 14.02 40.13, 0 40.13 M0 40.13 C0 24.99, 0 9.85, 0 0 M0 40.13 C0 27.19, 0 14.25, 0 0" stroke="#1e1e1e" stroke-width="2" fill="none"/></g><g transform="translate(27.188934326171875 369.67945330128634) rotate(0 5.5615234375 11.5)"><text x="5.5615234375" y="18.400390625" font-family="Helvetica, Segoe UI Emoji" font-size="20px" fill="#1e1e1e" text-anchor="middle" style="white-space: pre;" direction="ltr" dominant-baseline="alphabetic">1</text></g><g stroke-linecap="round" transform="translate(55.933793795817564 360.9177940152807) rotate(0 22.750457763671875 20.067108154296875)"><path d="M0 0 L45.5 0 L45.5 40.13 L0 40.13" stroke="none" stroke-width="0" fill="#ffc9c9"/><path d="M0 0 C9.76 0, 19.51 0, 45.5 0 M0 0 C10.22 0, 20.44 0, 45.5 0 M45.5 0 C45.5 14.6, 45.5 29.2, 45.5 40.13 M45.5 0 C45.5 9.72, 45.5 19.45, 45.5 40.13 M45.5 40.13 C34.29 40.13, 23.08 40.13, 0 40.13 M45.5 40.13 C28.81 40.13, 12.11 40.13, 0 40.13 M0 40.13 C0 24.28, 0 8.42, 0 0 M0 40.13 C0 28.1, 0 16.06, 0 0" stroke="#1e1e1e" stroke-width="2" fill="none"/></g><g transform="translate(73.12272812198944 369.4849021695776) rotate(0 5.5615234375 11.5)"><text x="5.5615234375" y="18.400390625" font-family="Helvetica, Segoe UI Emoji" font-size="20px" fill="#1e1e1e" text-anchor="middle" style="white-space: pre;" direction="ltr" dominant-baseline="alphabetic">1</text></g><g stroke-linecap="round" transform="translate(101.90902013378417 360.9177940152807) rotate(0 22.75045776367188 20.067108154296875)"><path d="M0 0 L45.5 0 L45.5 40.13 L0 40.13" stroke="none" stroke-width="0" fill="#ffc9c9"/><path d="M0 0 C14.7 0, 29.41 0, 45.5 0 M0 0 C9.8 0, 19.6 0, 45.5 0 M45.5 0 C45.5 8.85, 45.5 17.71, 45.5 40.13 M45.5 0 C45.5 8.75, 45.5 17.5, 45.5 40.13 M45.5 40.13 C28.83 40.13, 12.16 40.13, 0 40.13 M45.5 40.13 C36.24 40.13, 26.97 40.13, 0 40.13 M0 40.13 C0 25.89, 0 11.64, 0 0 M0 40.13 C0 31.13, 0 22.13, 0 0" stroke="#1e1e1e" stroke-width="2" fill="none"/></g><g transform="translate(119.09795445995604 369.4849021695776) rotate(0 5.5615234375 11.5)"><text x="5.5615234375" y="18.400390625" font-family="Helvetica, Segoe UI Emoji" font-size="20px" fill="#1e1e1e" text-anchor="middle" style="white-space: pre;" direction="ltr" dominant-baseline="alphabetic">0</text></g><g stroke-linecap="round" transform="translate(146.696738448986 360.73539257312916) rotate(0 22.75045776367188 20.067108154296875)"><path d="M0 0 L45.5 0 L45.5 40.13 L0 40.13" stroke="none" stroke-width="0" fill="#ffc9c9"/><path d="M0 0 C13.3 0, 26.61 0, 45.5 0 M0 0 C15.97 0, 31.94 0, 45.5 0 M45.5 0 C45.5 15.04, 45.5 30.08, 45.5 40.13 M45.5 0 C45.5 14.08, 45.5 28.17, 45.5 40.13 M45.5 40.13 C30.29 40.13, 15.07 40.13, 0 40.13 M45.5 40.13 C33.18 40.13, 20.85 40.13, 0 40.13 M0 40.13 C0 28.99, 0 17.84, 0 0 M0 40.13 C0 29.56, 0 18.98, 0 0" stroke="#1e1e1e" stroke-width="2" fill="none"/></g><g transform="translate(163.88567277515787 369.30250072742604) rotate(0 5.5615234375 11.5)"><text x="5.5615234375" y="18.400390625" font-family="Helvetica, Segoe UI Emoji" font-size="20px" fill="#1e1e1e" text-anchor="middle" style="white-space: pre;" direction="ltr" dominant-baseline="alphabetic">0</text></g><g stroke-linecap="round" transform="translate(192.2322432574445 360.9177940152807) rotate(0 86.99552917480469 20.067108154296875)"><path d="M0 0 L173.99 0 L173.99 40.13 L0 40.13" stroke="none" stroke-width="0" fill="#ffc9c9"/><path d="M0 0 C53.72 0, 107.44 0, 173.99 0 M0 0 C66.77 0, 133.53 0, 173.99 0 M173.99 0 C173.99 12.42, 173.99 24.85, 173.99 40.13 M173.99 0 C173.99 13.91, 173.99 27.83, 173.99 40.13 M173.99 40.13 C133.82 40.13, 93.65 40.13, 0 40.13 M173.99 40.13 C117.03 40.13, 60.06 40.13, 0 40.13 M0 40.13 C0 26.46, 0 12.78, 0 0 M0 40.13 C0 26.9, 0 13.68, 0 0" stroke="#1e1e1e" stroke-width="2" fill="none"/></g><g transform="translate(245.39254572964472 369.1624773669921) rotate(0 28.90625 11.5)"><text x="0" y="18.400390625" font-family="Helvetica, Segoe UI Emoji" font-size="20px" fill="#1e1e1e" text-anchor="start" style="white-space: pre;" direction="ltr" dominant-baseline="alphabetic">Invalid</text></g><g stroke-linecap="round" transform="translate(467.3326681103192 215.09871146028343) rotate(0 68.12454976117644 86.34423992340552)"><path d="M0 0 C44.61 0, 89.22 0, 136.25 0 M0 0 C52.3 0, 104.61 0, 136.25 0 M136.25 0 C136.25 59.02, 136.25 118.04, 136.25 172.69 M136.25 0 C136.25 36.46, 136.25 72.92, 136.25 172.69 M136.25 172.69 C96.82 172.69, 57.39 172.69, 0 172.69 M136.25 172.69 C83.63 172.69, 31.01 172.69, 0 172.69 M0 172.69 C0 117.71, 0 62.73, 0 0 M0 172.69 C0 129.27, 0 85.85, 0 0" stroke="#1e1e1e" stroke-width="2" fill="none"/></g><g stroke-linecap="round"><g transform="translate(415.99191485665614 284.61422637242276) rotate(0 25.311398431994334 0)"><path d="M0 0 C16.93 0, 33.86 0, 50.62 0 M0 0 C18 0, 36 0, 50.62 0" stroke="#1e1e1e" stroke-width="2" fill="none"/></g></g><mask/><g stroke-linecap="round"><g transform="translate(417.49614346576686 324.1390125412529) rotate(0 25.384049784583638 0)"><path d="M0 0 C17.84 0, 35.67 0, 50.77 0 M0 0 C18.44 0, 36.89 0, 50.77 0" stroke="#1e1e1e" stroke-width="2" fill="none"/></g></g><mask/><g transform="translate(485.10147286313224 270.02907875687055) rotate(0 6.669921875 11.5)"><text x="0" y="18.400390625" font-family="Helvetica, Segoe UI Emoji" font-size="20px" fill="#1e1e1e" text-anchor="start" style="white-space: pre;" direction="ltr" dominant-baseline="alphabetic">S</text></g><g transform="translate(485.32883963022834 311.64756752874666) rotate(0 7.2216796875 11.5)"><text x="0" y="18.400390625" font-family="Helvetica, Segoe UI Emoji" font-size="20px" fill="#1e1e1e" text-anchor="start" style="white-space: pre;" direction="ltr" dominant-baseline="alphabetic">R</text></g><g transform="translate(671.0951442902362 267.5005236150341) rotate(0 7.7783203125 11.5)"><text x="0" y="18.400390625" font-family="Helvetica, Segoe UI Emoji" font-size="20px" fill="#1e1e1e" text-anchor="start" style="white-space: pre;" direction="ltr" dominant-baseline="alphabetic">Q</text></g><g transform="translate(671.5058804284411 312.40847303402785) rotate(0 9.6875 11.5)"><text x="0" y="18.400390625" font-family="Helvetica, Segoe UI Emoji" font-size="20px" fill="#1e1e1e" text-anchor="start" style="white-space: pre;" direction="ltr" dominant-baseline="alphabetic">Q'</text></g><g stroke-linecap="round"><g transform="translate(605.1244331439544 278.9989881531902) rotate(0 28.86261044412555 0)"><path d="M0 0 C19.54 0, 39.09 0, 57.73 0 M0 0 C17.07 0, 34.13 0, 57.73 0" stroke="#1e1e1e" stroke-width="2" fill="none"/></g></g><mask/><g stroke-linecap="round" transform="translate(604.274450437147 321.0778232669911) rotate(0 3.5274485993859344 3.5274485993859344)"><path d="M7.05 3.53 C7.05 3.73, 7.04 3.94, 7 4.14 C6.97 4.34, 6.91 4.54, 6.84 4.73 C6.77 4.93, 6.68 5.11, 6.58 5.29 C6.48 5.47, 6.36 5.64, 6.23 5.79 C6.1 5.95, 5.95 6.1, 5.79 6.23 C5.64 6.36, 5.47 6.48, 5.29 6.58 C5.11 6.68, 4.93 6.77, 4.73 6.84 C4.54 6.91, 4.34 6.97, 4.14 7 C3.94 7.04, 3.73 7.05, 3.53 7.05 C3.32 7.05, 3.12 7.04, 2.91 7 C2.71 6.97, 2.51 6.91, 2.32 6.84 C2.13 6.77, 1.94 6.68, 1.76 6.58 C1.59 6.48, 1.42 6.36, 1.26 6.23 C1.1 6.1, 0.96 5.95, 0.83 5.79 C0.69 5.64, 0.57 5.47, 0.47 5.29 C0.37 5.11, 0.28 4.93, 0.21 4.73 C0.14 4.54, 0.09 4.34, 0.05 4.14 C0.02 3.94, 0 3.73, 0 3.53 C0 3.32, 0.02 3.12, 0.05 2.91 C0.09 2.71, 0.14 2.51, 0.21 2.32 C0.28 2.13, 0.37 1.94, 0.47 1.76 C0.57 1.59, 0.69 1.42, 0.83 1.26 C0.96 1.1, 1.1 0.96, 1.26 0.83 C1.42 0.69, 1.59 0.57, 1.76 0.47 C1.94 0.37, 2.13 0.28, 2.32 0.21 C2.51 0.14, 2.71 0.09, 2.91 0.05 C3.12 0.02, 3.32 0, 3.53 0 C3.73 0, 3.94 0.02, 4.14 0.05 C4.34 0.09, 4.54 0.14, 4.73 0.21 C4.93 0.28, 5.11 0.37, 5.29 0.47 C5.47 0.57, 5.64 0.69, 5.79 0.83 C5.95 0.96, 6.1 1.1, 6.23 1.26 C6.36 1.42, 6.48 1.59, 6.58 1.76 C6.68 1.94, 6.77 2.13, 6.84 2.32 C6.91 2.51, 6.97 2.71, 7 2.91 C7.04 3.12, 7.05 3.43, 7.05 3.53 C7.06 3.63, 7.06 3.43, 7.05 3.53" stroke="#1e1e1e" stroke-width="2" fill="none"/></g><g stroke-linecap="round"><g transform="translate(611.6036900155295 324.2434966153967) rotate(0 26.325445113521795 0)"><path d="M0 0 C20.33 0, 40.65 0, 52.65 0 M0 0 C12.91 0, 25.82 0, 52.65 0" stroke="#1e1e1e" stroke-width="2" fill="none"/></g></g><mask/><g stroke-linecap="round"><g transform="translate(258.60826000701064 29.179349920922903) rotate(0 39.17090031706208 0)"><path d="M0 0 C17.92 0, 35.85 0, 78.34 0 M0 0 C16.4 0, 32.8 0, 78.34 0" stroke="#1e1e1e" stroke-width="2" fill="none"/></g></g><mask/><g stroke-linecap="round"><g transform="translate(320.7796060541933 10) rotate(0 24.338747120019434 25.798881740776125)"><path d="M0 0 C2.76 3.21, 14.23 12.91, 16.54 19.27 C18.85 25.63, 16.69 32.77, 13.83 38.16 C10.97 43.54, -6.54 50.58, -0.62 51.6 C5.29 52.61, 41.47 51.23, 49.3 44.25 C57.14 37.26, 54.61 17.05, 46.39 9.68 C38.18 2.3, 7.73 1.61, 0 0 M0 0 C2.76 3.21, 14.23 12.91, 16.54 19.27 C18.85 25.63, 16.69 32.77, 13.83 38.16 C10.97 43.54, -6.54 50.58, -0.62 51.6 C5.29 52.61, 41.47 51.23, 49.3 44.25 C57.14 37.26, 54.61 17.05, 46.39 9.68 C38.18 2.3, 7.73 1.61, 0 0" stroke="#1e1e1e" stroke-width="2" fill="none"/></g></g><mask/><g stroke-linecap="round"><g transform="translate(259.3861655833763 133.7546220174791) rotate(0 39.17090031706208 0)"><path d="M0 0 C18.8 0, 37.59 0, 78.34 0 M0 0 C20.93 0, 41.87 0, 78.34 0" stroke="#1e1e1e" stroke-width="2" fill="none"/></g></g><mask/><g stroke-linecap="round"><g transform="translate(323.0047235875655 96.46291081828707) rotate(0 24.338747120019434 25.798881740776125)"><path d="M0 0 C2.76 3.21, 14.23 12.91, 16.54 19.27 C18.85 25.63, 16.69 32.77, 13.83 38.16 C10.97 43.54, -6.54 50.58, -0.62 51.6 C5.29 52.61, 41.47 51.23, 49.3 44.25 C57.14 37.26, 54.61 17.05, 46.39 9.68 C38.18 2.3, 7.73 1.61, 0 0 M0 0 C2.76 3.21, 14.23 12.91, 16.54 19.27 C18.85 25.63, 16.69 32.77, 13.83 38.16 C10.97 43.54, -6.54 50.58, -0.62 51.6 C5.29 52.61, 41.47 51.23, 49.3 44.25 C57.14 37.26, 54.61 17.05, 46.39 9.68 C38.18 2.3, 7.73 1.61, 0 0" stroke="#1e1e1e" stroke-width="2" fill="none"/></g></g><mask/><g stroke-linecap="round" transform="translate(373.3372801650752 26.207358428653606) rotate(0 5.700269129190332 5.700269129190332)"><path d="M11.4 5.7 C11.4 6.03, 11.37 6.37, 11.31 6.69 C11.26 7.02, 11.17 7.34, 11.06 7.65 C10.94 7.96, 10.8 8.26, 10.64 8.55 C10.47 8.84, 10.28 9.11, 10.07 9.36 C9.85 9.62, 9.62 9.85, 9.36 10.07 C9.11 10.28, 8.84 10.47, 8.55 10.64 C8.26 10.8, 7.96 10.94, 7.65 11.06 C7.34 11.17, 7.02 11.26, 6.69 11.31 C6.37 11.37, 6.03 11.4, 5.7 11.4 C5.37 11.4, 5.04 11.37, 4.71 11.31 C4.39 11.26, 4.06 11.17, 3.75 11.06 C3.44 10.94, 3.14 10.8, 2.85 10.64 C2.56 10.47, 2.29 10.28, 2.04 10.07 C1.78 9.85, 1.55 9.62, 1.33 9.36 C1.12 9.11, 0.93 8.84, 0.76 8.55 C0.6 8.26, 0.46 7.96, 0.34 7.65 C0.23 7.34, 0.14 7.02, 0.09 6.69 C0.03 6.37, 0 6.03, 0 5.7 C0 5.37, 0.03 5.04, 0.09 4.71 C0.14 4.39, 0.23 4.06, 0.34 3.75 C0.46 3.44, 0.6 3.14, 0.76 2.85 C0.93 2.56, 1.12 2.29, 1.33 2.04 C1.55 1.78, 1.78 1.55, 2.04 1.33 C2.29 1.12, 2.56 0.93, 2.85 0.76 C3.14 0.6, 3.44 0.46, 3.75 0.34 C4.06 0.23, 4.39 0.14, 4.71 0.09 C5.04 0.03, 5.37 0, 5.7 0 C6.03 0, 6.37 0.03, 6.69 0.09 C7.02 0.14, 7.34 0.23, 7.65 0.34 C7.96 0.46, 8.26 0.6, 8.55 0.76 C8.84 0.93, 9.11 1.12, 9.36 1.33 C9.62 1.55, 9.85 1.78, 10.07 2.04 C10.28 2.29, 10.47 2.56, 10.64 2.85 C10.8 3.14, 10.94 3.44, 11.06 3.75 C11.17 4.06, 11.26 4.39, 11.31 4.71 C11.37 5.04, 11.39 5.54, 11.4 5.7 C11.41 5.87, 11.41 5.54, 11.4 5.7" stroke="#1e1e1e" stroke-width="2" fill="none"/></g><g stroke-linecap="round" transform="translate(376.8482478421448 114.60581928052153) rotate(0 5.700269129190332 5.700269129190332)"><path d="M11.4 5.7 C11.4 6.03, 11.37 6.37, 11.31 6.69 C11.26 7.02, 11.17 7.34, 11.06 7.65 C10.94 7.96, 10.8 8.26, 10.64 8.55 C10.47 8.84, 10.28 9.11, 10.07 9.36 C9.85 9.62, 9.62 9.85, 9.36 10.07 C9.11 10.28, 8.84 10.47, 8.55 10.64 C8.26 10.8, 7.96 10.94, 7.65 11.06 C7.34 11.17, 7.02 11.26, 6.69 11.31 C6.37 11.37, 6.03 11.4, 5.7 11.4 C5.37 11.4, 5.04 11.37, 4.71 11.31 C4.39 11.26, 4.06 11.17, 3.75 11.06 C3.44 10.94, 3.14 10.8, 2.85 10.64 C2.56 10.47, 2.29 10.28, 2.04 10.07 C1.78 9.85, 1.55 9.62, 1.33 9.36 C1.12 9.11, 0.93 8.84, 0.76 8.55 C0.6 8.26, 0.46 7.96, 0.34 7.65 C0.23 7.34, 0.14 7.02, 0.09 6.69 C0.03 6.37, 0 6.03, 0 5.7 C0 5.37, 0.03 5.04, 0.09 4.71 C0.14 4.39, 0.23 4.06, 0.34 3.75 C0.46 3.44, 0.6 3.14, 0.76 2.85 C0.93 2.56, 1.12 2.29, 1.33 2.04 C1.55 1.78, 1.78 1.55, 2.04 1.33 C2.29 1.12, 2.56 0.93, 2.85 0.76 C3.14 0.6, 3.44 0.46, 3.75 0.34 C4.06 0.23, 4.39 0.14, 4.71 0.09 C5.04 0.03, 5.37 0, 5.7 0 C6.03 0, 6.37 0.03, 6.69 0.09 C7.02 0.14, 7.34 0.23, 7.65 0.34 C7.96 0.46, 8.26 0.6, 8.55 0.76 C8.84 0.93, 9.11 1.12, 9.36 1.33 C9.62 1.55, 9.85 1.78, 10.07 2.04 C10.28 2.29, 10.47 2.56, 10.64 2.85 C10.8 3.14, 10.94 3.44, 11.06 3.75 C11.17 4.06, 11.26 4.39, 11.31 4.71 C11.37 5.04, 11.39 5.54, 11.4 5.7 C11.41 5.87, 11.41 5.54, 11.4 5.7" stroke="#1e1e1e" stroke-width="2" fill="none"/></g><g transform="translate(228.00995150260593 15.866383810527395) rotate(0 7.2216796875 11.5)"><text x="0" y="18.400390625" font-family="Helvetica, Segoe UI Emoji" font-size="20px" fill="#1e1e1e" text-anchor="start" style="white-space: pre;" direction="ltr" dominant-baseline="alphabetic">R</text></g><g transform="translate(227.53703027246146 124.00927055643405) rotate(0 6.669921875 11.5)"><text x="0" y="18.400390625" font-family="Helvetica, Segoe UI Emoji" font-size="20px" fill="#1e1e1e" text-anchor="start" style="white-space: pre;" direction="ltr" dominant-baseline="alphabetic">S</text></g><g stroke-linecap="round"><g transform="translate(385.73832959781987 32.82322514093954) rotate(0 50.135780509134435 0)"><path d="M0 0 C16.71 0, 83.56 0, 100.27 0 M0 0 C16.71 0, 83.56 0, 100.27 0" stroke="#1e1e1e" stroke-width="2" fill="none"/></g></g><mask/><g stroke-linecap="round"><g transform="translate(388.60321148101013 123.12670464030043) rotate(0 50.67480408756714 0)"><path d="M0 0 C16.89 0, 84.46 0, 101.35 0 M0 0 C16.89 0, 84.46 0, 101.35 0" stroke="#1e1e1e" stroke-width="2" fill="none"/></g></g><mask/><g transform="translate(503.5906217225696 19.753957088014772) rotate(0 7.7783203125 11.5)"><text x="0" y="18.400390625" font-family="Helvetica, Segoe UI Emoji" font-size="20px" fill="#1e1e1e" text-anchor="start" style="white-space: pre;" direction="ltr" dominant-baseline="alphabetic">Q</text></g><g transform="translate(503.5906217225696 110.40837233172107) rotate(0 9.6875 11.5)"><text x="0" y="18.400390625" font-family="Helvetica, Segoe UI Emoji" font-size="20px" fill="#1e1e1e" text-anchor="start" style="white-space: pre;" direction="ltr" dominant-baseline="alphabetic">Q'</text></g><g stroke-linecap="round"><g transform="translate(444.180836504971 31.937158199793828) rotate(0 -77.93382044910001 38.82939760032764)"><path d="M0 0 C0 9.26, 0 18.52, 0 25.04 M0 0 C0 6.11, 0 12.21, 0 25.04 M0 25.04 C-48.04 34.02, -96.07 43.01, -155.87 54.19 M0 25.04 C-47.22 33.87, -94.44 42.7, -155.87 54.19 M-155.87 54.19 C-155.87 61.59, -155.87 68.99, -155.87 77.66 M-155.87 54.19 C-155.87 61.4, -155.87 68.61, -155.87 77.66 M-155.87 77.66 C-143.62 77.66, -131.37 77.66, -107.74 77.66 M-155.87 77.66 C-142.62 77.66, -129.38 77.66, -107.74 77.66" stroke="#1e1e1e" stroke-width="2" fill="none"/></g></g><mask/><g stroke-linecap="round"><g transform="translate(451.96704157415763 124.66621220634693) rotate(0 -82.26995865876853 -41.82905117600359)"><path d="M0 0 C0 -11.94, 0 -23.88, 0 -30.11 M0 0 C0 -10.24, 0 -20.48, 0 -30.11 M0 -30.11 C-42.9 -37.92, -85.8 -45.72, -164.54 -60.04 M0 -30.11 C-45.32 -38.36, -90.65 -46.6, -164.54 -60.04 M-164.54 -60.04 C-164.54 -69.26, -164.54 -78.48, -164.54 -83.66 M-164.54 -60.04 C-164.54 -67.41, -164.54 -74.77, -164.54 -83.66 M-164.54 -83.66 C-146.24 -83.66, -127.94 -83.66, -113.7 -83.66 M-164.54 -83.66 C-150.57 -83.66, -136.61 -83.66, -113.7 -83.66" stroke="#1e1e1e" stroke-width="2" fill="none"/></g></g><mask/><g stroke-linecap="round" transform="translate(434.5561060544585 26.458422706018553) rotate(0 8.96758614242151 8.96758614242151)"><path d="M17.94 8.97 C17.94 9.49, 17.89 10.01, 17.8 10.52 C17.71 11.04, 17.57 11.55, 17.39 12.03 C17.22 12.52, 16.99 13, 16.73 13.45 C16.47 13.9, 16.17 14.33, 15.84 14.73 C15.5 15.13, 15.13 15.5, 14.73 15.84 C14.33 16.17, 13.9 16.47, 13.45 16.73 C13 16.99, 12.52 17.22, 12.03 17.39 C11.55 17.57, 11.04 17.71, 10.52 17.8 C10.01 17.89, 9.49 17.94, 8.97 17.94 C8.45 17.94, 7.92 17.89, 7.41 17.8 C6.9 17.71, 6.39 17.57, 5.9 17.39 C5.41 17.22, 4.93 16.99, 4.48 16.73 C4.03 16.47, 3.6 16.17, 3.2 15.84 C2.81 15.5, 2.43 15.13, 2.1 14.73 C1.76 14.33, 1.46 13.9, 1.2 13.45 C0.94 13, 0.72 12.52, 0.54 12.03 C0.36 11.55, 0.23 11.04, 0.14 10.52 C0.05 10.01, 0 9.49, 0 8.97 C0 8.45, 0.05 7.92, 0.14 7.41 C0.23 6.9, 0.36 6.39, 0.54 5.9 C0.72 5.41, 0.94 4.93, 1.2 4.48 C1.46 4.03, 1.76 3.6, 2.1 3.2 C2.43 2.81, 2.81 2.43, 3.2 2.1 C3.6 1.76, 4.03 1.46, 4.48 1.2 C4.93 0.94, 5.41 0.72, 5.9 0.54 C6.39 0.36, 6.9 0.23, 7.41 0.14 C7.92 0.05, 8.45 0, 8.97 0 C9.49 0, 10.01 0.05, 10.52 0.14 C11.04 0.23, 11.55 0.36, 12.03 0.54 C12.52 0.72, 13 0.94, 13.45 1.2 C13.9 1.46, 14.33 1.76, 14.73 2.1 C15.13 2.43, 15.5 2.81, 15.84 3.2 C16.17 3.6, 16.47 4.03, 16.73 4.48 C16.99 4.93, 17.22 5.41, 17.39 5.9 C17.57 6.39, 17.71 6.9, 17.8 7.41 C17.89 7.92, 17.91 8.71, 17.94 8.97 C17.96 9.23, 17.96 8.71, 17.94 8.97" stroke="none" stroke-width="0" fill="#1e1e1e"/><path d="M17.94 8.97 C17.94 9.49, 17.89 10.01, 17.8 10.52 C17.71 11.04, 17.57 11.55, 17.39 12.03 C17.22 12.52, 16.99 13, 16.73 13.45 C16.47 13.9, 16.17 14.33, 15.84 14.73 C15.5 15.13, 15.13 15.5, 14.73 15.84 C14.33 16.17, 13.9 16.47, 13.45 16.73 C13 16.99, 12.52 17.22, 12.03 17.39 C11.55 17.57, 11.04 17.71, 10.52 17.8 C10.01 17.89, 9.49 17.94, 8.97 17.94 C8.45 17.94, 7.92 17.89, 7.41 17.8 C6.9 17.71, 6.39 17.57, 5.9 17.39 C5.41 17.22, 4.93 16.99, 4.48 16.73 C4.03 16.47, 3.6 16.17, 3.2 15.84 C2.81 15.5, 2.43 15.13, 2.1 14.73 C1.76 14.33, 1.46 13.9, 1.2 13.45 C0.94 13, 0.72 12.52, 0.54 12.03 C0.36 11.55, 0.23 11.04, 0.14 10.52 C0.05 10.01, 0 9.49, 0 8.97 C0 8.45, 0.05 7.92, 0.14 7.41 C0.23 6.9, 0.36 6.39, 0.54 5.9 C0.72 5.41, 0.94 4.93, 1.2 4.48 C1.46 4.03, 1.76 3.6, 2.1 3.2 C2.43 2.81, 2.81 2.43, 3.2 2.1 C3.6 1.76, 4.03 1.46, 4.48 1.2 C4.93 0.94, 5.41 0.72, 5.9 0.54 C6.39 0.36, 6.9 0.23, 7.41 0.14 C7.92 0.05, 8.45 0, 8.97 0 C9.49 0, 10.01 0.05, 10.52 0.14 C11.04 0.23, 11.55 0.36, 12.03 0.54 C12.52 0.72, 13 0.94, 13.45 1.2 C13.9 1.46, 14.33 1.76, 14.73 2.1 C15.13 2.43, 15.5 2.81, 15.84 3.2 C16.17 3.6, 16.47 4.03, 16.73 4.48 C16.99 4.93, 17.22 5.41, 17.39 5.9 C17.57 6.39, 17.71 6.9, 17.8 7.41 C17.89 7.92, 17.91 8.71, 17.94 8.97 C17.96 9.23, 17.96 8.71, 17.94 8.97" stroke="#1e1e1e" stroke-width="2" fill="none"/></g><g stroke-linecap="round" transform="translate(443.47939494852346 113.52780812841559) rotate(0 8.96758614242151 8.96758614242151)"><path d="M17.94 8.97 C17.94 9.49, 17.89 10.01, 17.8 10.52 C17.71 11.04, 17.57 11.55, 17.39 12.03 C17.22 12.52, 16.99 13, 16.73 13.45 C16.47 13.9, 16.17 14.33, 15.84 14.73 C15.5 15.13, 15.13 15.5, 14.73 15.84 C14.33 16.17, 13.9 16.47, 13.45 16.73 C13 16.99, 12.52 17.22, 12.03 17.39 C11.55 17.57, 11.04 17.71, 10.52 17.8 C10.01 17.89, 9.49 17.94, 8.97 17.94 C8.45 17.94, 7.92 17.89, 7.41 17.8 C6.9 17.71, 6.39 17.57, 5.9 17.39 C5.41 17.22, 4.93 16.99, 4.48 16.73 C4.03 16.47, 3.6 16.17, 3.2 15.84 C2.81 15.5, 2.43 15.13, 2.1 14.73 C1.76 14.33, 1.46 13.9, 1.2 13.45 C0.94 13, 0.72 12.52, 0.54 12.03 C0.36 11.55, 0.23 11.04, 0.14 10.52 C0.05 10.01, 0 9.49, 0 8.97 C0 8.45, 0.05 7.92, 0.14 7.41 C0.23 6.9, 0.36 6.39, 0.54 5.9 C0.72 5.41, 0.94 4.93, 1.2 4.48 C1.46 4.03, 1.76 3.6, 2.1 3.2 C2.43 2.81, 2.81 2.43, 3.2 2.1 C3.6 1.76, 4.03 1.46, 4.48 1.2 C4.93 0.94, 5.41 0.72, 5.9 0.54 C6.39 0.36, 6.9 0.23, 7.41 0.14 C7.92 0.05, 8.45 0, 8.97 0 C9.49 0, 10.01 0.05, 10.52 0.14 C11.04 0.23, 11.55 0.36, 12.03 0.54 C12.52 0.72, 13 0.94, 13.45 1.2 C13.9 1.46, 14.33 1.76, 14.73 2.1 C15.13 2.43, 15.5 2.81, 15.84 3.2 C16.17 3.6, 16.47 4.03, 16.73 4.48 C16.99 4.93, 17.22 5.41, 17.39 5.9 C17.57 6.39, 17.71 6.9, 17.8 7.41 C17.89 7.92, 17.91 8.71, 17.94 8.97 C17.96 9.23, 17.96 8.71, 17.94 8.97" stroke="none" stroke-width="0" fill="#1e1e1e"/><path d="M17.94 8.97 C17.94 9.49, 17.89 10.01, 17.8 10.52 C17.71 11.04, 17.57 11.55, 17.39 12.03 C17.22 12.52, 16.99 13, 16.73 13.45 C16.47 13.9, 16.17 14.33, 15.84 14.73 C15.5 15.13, 15.13 15.5, 14.73 15.84 C14.33 16.17, 13.9 16.47, 13.45 16.73 C13 16.99, 12.52 17.22, 12.03 17.39 C11.55 17.57, 11.04 17.71, 10.52 17.8 C10.01 17.89, 9.49 17.94, 8.97 17.94 C8.45 17.94, 7.92 17.89, 7.41 17.8 C6.9 17.71, 6.39 17.57, 5.9 17.39 C5.41 17.22, 4.93 16.99, 4.48 16.73 C4.03 16.47, 3.6 16.17, 3.2 15.84 C2.81 15.5, 2.43 15.13, 2.1 14.73 C1.76 14.33, 1.46 13.9, 1.2 13.45 C0.94 13, 0.72 12.52, 0.54 12.03 C0.36 11.55, 0.23 11.04, 0.14 10.52 C0.05 10.01, 0 9.49, 0 8.97 C0 8.45, 0.05 7.92, 0.14 7.41 C0.23 6.9, 0.36 6.39, 0.54 5.9 C0.72 5.41, 0.94 4.93, 1.2 4.48 C1.46 4.03, 1.76 3.6, 2.1 3.2 C2.43 2.81, 2.81 2.43, 3.2 2.1 C3.6 1.76, 4.03 1.46, 4.48 1.2 C4.93 0.94, 5.41 0.72, 5.9 0.54 C6.39 0.36, 6.9 0.23, 7.41 0.14 C7.92 0.05, 8.45 0, 8.97 0 C9.49 0, 10.01 0.05, 10.52 0.14 C11.04 0.23, 11.55 0.36, 12.03 0.54 C12.52 0.72, 13 0.94, 13.45 1.2 C13.9 1.46, 14.33 1.76, 14.73 2.1 C15.13 2.43, 15.5 2.81, 15.84 3.2 C16.17 3.6, 16.47 4.03, 16.73 4.48 C16.99 4.93, 17.22 5.41, 17.39 5.9 C17.57 6.39, 17.71 6.9, 17.8 7.41 C17.89 7.92, 17.91 8.71, 17.94 8.97 C17.96 9.23, 17.96 8.71, 17.94 8.97" stroke="#1e1e1e" stroke-width="2" fill="none"/></g></svg>