<svg version="1.1" xmlns="http://www.w3.org/2000/svg" viewBox="0 0 896.1281096941386 737.7972981335391" width="896.1281096941386" height="737.7972981335391" class="excalidraw-svg">
  <!-- svg-source:excalidraw -->
  
  <defs>
    <style class="style-fonts">
      @font-face {
        font-family: "Virgil";
        src: url("https://excalidraw.com/Virgil.woff2");
      }
      @font-face {
        font-family: "Cascadia";
        src: url("https://excalidraw.com/Cascadia.woff2");
      }
      @font-face {
        font-family: "Assistant";
        src: url("https://excalidraw.com/Assistant-Regular.woff2");
      }
    </style>
    
  </defs>
  <g stroke-linecap="round" transform="translate(10 10) rotate(0 438.0640548470693 358.89864906676956)"><path d="M32 0 C329.95 0, 627.9 0, 844.13 0 C865.46 0, 876.13 10.67, 876.13 32 C876.13 259.58, 876.13 487.17, 876.13 685.8 C876.13 707.13, 865.46 717.8, 844.13 717.8 C536.72 717.8, 229.32 717.8, 32 717.8 C10.67 717.8, 0 707.13, 0 685.8 C0 504.19, 0 322.59, 0 32 C0 10.67, 10.67 0, 32 0" stroke="none" stroke-width="0" fill="#f8f9fa"/><path d="M32 0 C296.03 0, 560.07 0, 844.13 0 M32 0 C339.54 0, 647.08 0, 844.13 0 M844.13 0 C865.46 0, 876.13 10.67, 876.13 32 M844.13 0 C865.46 0, 876.13 10.67, 876.13 32 M876.13 32 C876.13 280.01, 876.13 528.01, 876.13 685.8 M876.13 32 C876.13 226.11, 876.13 420.22, 876.13 685.8 M876.13 685.8 C876.13 707.13, 865.46 717.8, 844.13 717.8 M876.13 685.8 C876.13 707.13, 865.46 717.8, 844.13 717.8 M844.13 717.8 C611.62 717.8, 379.12 717.8, 32 717.8 M844.13 717.8 C587.75 717.8, 331.38 717.8, 32 717.8 M32 717.8 C10.67 717.8, 0 707.13, 0 685.8 M32 717.8 C10.67 717.8, 0 707.13, 0 685.8 M0 685.8 C0 495.56, 0 305.32, 0 32 M0 685.8 C0 445.72, 0 205.64, 0 32 M0 32 C0 10.67, 10.67 0, 32 0 M0 32 C0 10.67, 10.67 0, 32 0" stroke="transparent" stroke-width="2" fill="none"/></g><g stroke-linecap="round" transform="translate(301.8509419174148 482.2941034379121) rotate(0 164.578857421875 65.699951171875)"><path d="M0 0 C115.81 0, 231.61 0, 329.16 0 M0 0 C87.87 0, 175.75 0, 329.16 0 M329.16 0 C329.16 38.55, 329.16 77.11, 329.16 131.4 M329.16 0 C329.16 48.19, 329.16 96.38, 329.16 131.4 M329.16 131.4 C229.27 131.4, 129.38 131.4, 0 131.4 M329.16 131.4 C212.84 131.4, 96.53 131.4, 0 131.4 M0 131.4 C0 79.61, 0 27.82, 0 0 M0 131.4 C0 94.59, 0 57.78, 0 0" stroke="#1e1e1e" stroke-width="2" fill="none"/></g><g transform="translate(421.91484572600854 534.851934248459) rotate(0 90.595703125 11.5)"><text x="0" y="18.400390625" font-family="Helvetica, Segoe UI Emoji" font-size="20px" fill="#1e1e1e" text-anchor="start" style="white-space: pre;" direction="ltr" dominant-baseline="alphabetic">combinational circuit</text></g><g stroke-linecap="round"><g transform="translate(445.01115920257104 698.2237299027558) rotate(0 0 -42.247039794921875)"><path d="M0 0 C0 -27.61, 0 -55.23, 0 -84.49 M0 0 C0 -33.34, 0 -66.69, 0 -84.49" stroke="#1e1e1e" stroke-width="2" fill="none"/></g><g transform="translate(445.01115920257104 698.2237299027558) rotate(0 0 -42.247039794921875)"><path d="M8.55 -61 C5.76 -68.68, 2.96 -76.36, 0 -84.49 M8.55 -61 C5.18 -70.27, 1.8 -79.54, 0 -84.49" stroke="#1e1e1e" stroke-width="2" fill="none"/></g><g transform="translate(445.01115920257104 698.2237299027558) rotate(0 0 -42.247039794921875)"><path d="M-8.55 -61 C-5.76 -68.68, -2.96 -76.36, 0 -84.49 M-8.55 -61 C-5.18 -70.27, -1.8 -79.54, 0 -84.49" stroke="#1e1e1e" stroke-width="2" fill="none"/></g></g><mask/><g transform="translate(440.0866596908523 580.2458856644746) rotate(0 5 11.5)"><text x="0" y="18.400390625" font-family="Helvetica, Segoe UI Emoji" font-size="20px" fill="#1e1e1e" text-anchor="start" style="white-space: pre;" direction="ltr" dominant-baseline="alphabetic">x</text></g><g stroke-linecap="round" transform="translate(324.4479587206529 287.39615670637596) rotate(0 70.83840942382812 39.581504821777344)"><path d="M0 0 C51.95 0, 103.91 0, 141.68 0 M0 0 C30.16 0, 60.32 0, 141.68 0 M141.68 0 C141.68 27.71, 141.68 55.43, 141.68 79.16 M141.68 0 C141.68 21, 141.68 42, 141.68 79.16 M141.68 79.16 C103.41 79.16, 65.15 79.16, 0 79.16 M141.68 79.16 C108.16 79.16, 74.65 79.16, 0 79.16 M0 79.16 C0 56.58, 0 33.99, 0 0 M0 79.16 C0 48.31, 0 17.45, 0 0" stroke="#1e1e1e" stroke-width="2" fill="none"/></g><g stroke-linecap="round"><g transform="translate(354.9372306775279 481.2941034379121) rotate(0 0.058479134667152266 -56.867468543990725)"><path d="M0 0 C0.03 -24.82, 0.05 -49.65, 0.12 -113.73 M0 0 C0.04 -35.84, 0.07 -71.68, 0.12 -113.73" stroke="#1e1e1e" stroke-width="2" fill="none"/></g><g transform="translate(354.9372306775279 481.2941034379121) rotate(0 0.058479134667152266 -56.867468543990725)"><path d="M8.64 -90.23 C6.78 -95.36, 4.92 -100.49, 0.12 -113.73 M8.64 -90.23 C5.96 -97.64, 3.27 -105.04, 0.12 -113.73" stroke="#1e1e1e" stroke-width="2" fill="none"/></g><g transform="translate(354.9372306775279 481.2941034379121) rotate(0 0.058479134667152266 -56.867468543990725)"><path d="M-8.46 -90.25 C-6.59 -95.38, -4.71 -100.5, 0.12 -113.73 M-8.46 -90.25 C-5.76 -97.65, -3.05 -105.05, 0.12 -113.73" stroke="#1e1e1e" stroke-width="2" fill="none"/></g></g><mask/><g stroke-linecap="round"><g transform="translate(440.4877903056375 481.2941034379121) rotate(0 0.08015608644655714 -56.867468543990725)"><path d="M0 0 C0.06 -41.48, 0.12 -82.96, 0.16 -113.73 M0 0 C0.05 -38.05, 0.11 -76.11, 0.16 -113.73" stroke="#1e1e1e" stroke-width="2" fill="none"/></g><g transform="translate(440.4877903056375 481.2941034379121) rotate(0 0.08015608644655714 -56.867468543990725)"><path d="M8.68 -90.23 C5.57 -98.8, 2.46 -107.38, 0.16 -113.73 M8.68 -90.23 C5.83 -98.09, 2.98 -105.96, 0.16 -113.73" stroke="#1e1e1e" stroke-width="2" fill="none"/></g><g transform="translate(440.4877903056375 481.2941034379121) rotate(0 0.08015608644655714 -56.867468543990725)"><path d="M-8.42 -90.25 C-5.29 -98.82, -2.16 -107.38, 0.16 -113.73 M-8.42 -90.25 C-5.55 -98.11, -2.68 -105.97, 0.16 -113.73" stroke="#1e1e1e" stroke-width="2" fill="none"/></g></g><mask/><g transform="translate(348.45260900519287 337.1609813815209) rotate(0 6.669921875 11.5)"><text x="0" y="18.400390625" font-family="Helvetica, Segoe UI Emoji" font-size="20px" fill="#1e1e1e" text-anchor="start" style="white-space: pre;" direction="ltr" dominant-baseline="alphabetic">K</text></g><g transform="translate(434.99670814897934 337.1609813815209) rotate(0 5 11.5)"><text x="0" y="18.400390625" font-family="Helvetica, Segoe UI Emoji" font-size="20px" fill="#1e1e1e" text-anchor="start" style="white-space: pre;" direction="ltr" dominant-baseline="alphabetic">J</text></g><g transform="translate(347.1984554039544 291.1703274171321) rotate(0 9.6875 11.5)"><text x="0" y="18.400390625" font-family="Helvetica, Segoe UI Emoji" font-size="20px" fill="#1e1e1e" text-anchor="start" style="white-space: pre;" direction="ltr" dominant-baseline="alphabetic">Q'</text></g><g transform="translate(433.9255774689627 291.1703274171321) rotate(0 7.7783203125 11.5)"><text x="0" y="18.400390625" font-family="Helvetica, Segoe UI Emoji" font-size="20px" fill="#1e1e1e" text-anchor="start" style="white-space: pre;" direction="ltr" dominant-baseline="alphabetic">Q</text></g><g stroke-linecap="round" transform="translate(484.32174976069336 286.98918793393216) rotate(0 70.83840942382812 39.581504821777344)"><path d="M0 0 C36.85 0, 73.69 0, 141.68 0 M0 0 C34.11 0, 68.22 0, 141.68 0 M141.68 0 C141.68 28.34, 141.68 56.69, 141.68 79.16 M141.68 0 C141.68 27.53, 141.68 55.06, 141.68 79.16 M141.68 79.16 C112.91 79.16, 84.14 79.16, 0 79.16 M141.68 79.16 C87.22 79.16, 32.77 79.16, 0 79.16 M0 79.16 C0 49.56, 0 19.95, 0 0 M0 79.16 C0 57.93, 0 36.69, 0 0" stroke="#1e1e1e" stroke-width="2" fill="none"/></g><g stroke-linecap="round"><g transform="translate(514.8110217175683 480.8871346654683) rotate(0 0.058479134667152266 -56.867468543990725)"><path d="M0 0 C0.03 -29.27, 0.06 -58.54, 0.12 -113.73 M0 0 C0.04 -34.92, 0.07 -69.83, 0.12 -113.73" stroke="#1e1e1e" stroke-width="2" fill="none"/></g><g transform="translate(514.8110217175683 480.8871346654683) rotate(0 0.058479134667152266 -56.867468543990725)"><path d="M8.64 -90.23 C6.45 -96.28, 4.25 -102.33, 0.12 -113.73 M8.64 -90.23 C6.03 -97.45, 3.41 -104.66, 0.12 -113.73" stroke="#1e1e1e" stroke-width="2" fill="none"/></g><g transform="translate(514.8110217175683 480.8871346654683) rotate(0 0.058479134667152266 -56.867468543990725)"><path d="M-8.46 -90.25 C-6.25 -96.29, -4.04 -102.34, 0.12 -113.73 M-8.46 -90.25 C-5.83 -97.46, -3.19 -104.67, 0.12 -113.73" stroke="#1e1e1e" stroke-width="2" fill="none"/></g></g><mask/><g stroke-linecap="round"><g transform="translate(600.3615813456779 480.8871346654683) rotate(0 0.08015608644655714 -56.867468543990725)"><path d="M0 0 C0.05 -32.18, 0.09 -64.35, 0.16 -113.73 M0 0 C0.03 -22.88, 0.06 -45.75, 0.16 -113.73" stroke="#1e1e1e" stroke-width="2" fill="none"/></g><g transform="translate(600.3615813456779 480.8871346654683) rotate(0 0.08015608644655714 -56.867468543990725)"><path d="M8.68 -90.23 C6.27 -96.88, 3.86 -103.53, 0.16 -113.73 M8.68 -90.23 C6.96 -94.96, 5.25 -99.69, 0.16 -113.73" stroke="#1e1e1e" stroke-width="2" fill="none"/></g><g transform="translate(600.3615813456779 480.8871346654683) rotate(0 0.08015608644655714 -56.867468543990725)"><path d="M-8.42 -90.25 C-5.99 -96.9, -3.57 -103.54, 0.16 -113.73 M-8.42 -90.25 C-6.7 -94.98, -4.97 -99.7, 0.16 -113.73" stroke="#1e1e1e" stroke-width="2" fill="none"/></g></g><mask/><g transform="translate(508.32640004523336 336.7540126090771) rotate(0 6.669921875 11.5)"><text x="0" y="18.400390625" font-family="Helvetica, Segoe UI Emoji" font-size="20px" fill="#1e1e1e" text-anchor="start" style="white-space: pre;" direction="ltr" dominant-baseline="alphabetic">K</text></g><g transform="translate(594.8704991890198 336.7540126090771) rotate(0 5 11.5)"><text x="0" y="18.400390625" font-family="Helvetica, Segoe UI Emoji" font-size="20px" fill="#1e1e1e" text-anchor="start" style="white-space: pre;" direction="ltr" dominant-baseline="alphabetic">J</text></g><g transform="translate(507.0722464439949 290.7633586446883) rotate(0 9.6875 11.5)"><text x="0" y="18.400390625" font-family="Helvetica, Segoe UI Emoji" font-size="20px" fill="#1e1e1e" text-anchor="start" style="white-space: pre;" direction="ltr" dominant-baseline="alphabetic">Q'</text></g><g transform="translate(593.7993685090032 290.7633586446883) rotate(0 7.7783203125 11.5)"><text x="0" y="18.400390625" font-family="Helvetica, Segoe UI Emoji" font-size="20px" fill="#1e1e1e" text-anchor="start" style="white-space: pre;" direction="ltr" dominant-baseline="alphabetic">Q</text></g><g stroke-linecap="round"><g transform="translate(383.77120915370426 366.6356291911753) rotate(0 16.096137249454088 -7.670083714927429)"><path d="M0 0 C4.13 -4.13, 8.26 -8.26, 15.84 -15.84 M0 0 C4.48 -4.48, 8.96 -8.96, 15.84 -15.84 M15.84 -15.84 C21.54 -10.15, 27.24 -4.45, 32.19 0.5 M15.84 -15.84 C20.93 -10.76, 26.01 -5.68, 32.19 0.5" stroke="#1e1e1e" stroke-width="2" fill="none"/></g></g><mask/><g stroke-linecap="round"><g transform="translate(544.6318185343007 364.40611692795835) rotate(0 16.096137249454088 -7.670083714927429)"><path d="M0 0 C5.84 -5.84, 11.67 -11.67, 15.84 -15.84 M0 0 C3.76 -3.76, 7.53 -7.53, 15.84 -15.84 M15.84 -15.84 C21.55 -10.14, 27.26 -4.43, 32.19 0.5 M15.84 -15.84 C21.38 -10.31, 26.92 -4.77, 32.19 0.5" stroke="#1e1e1e" stroke-width="2" fill="none"/></g></g><mask/><g stroke-linecap="round"><g transform="translate(398.47059763487226 367.7395775125008) rotate(0 178.17854815220113 36.29370909559695)"><path d="M0 0 C0 21.62, 0 43.24, 0 72.59 M0 0 C0 19.06, 0 38.13, 0 72.59 M0 72.59 C118.63 72.59, 237.26 72.59, 356.36 72.59 M0 72.59 C93.38 72.59, 186.76 72.59, 356.36 72.59" stroke="#1e1e1e" stroke-width="2" fill="none"/></g></g><mask/><g stroke-linecap="round"><g transform="translate(561.4679675810123 366.23591261102916) rotate(0 0 37.35468630100061)"><path d="M0 0 C0 15.03, 0 30.05, 0 74.71 M0 0 C0 20.46, 0 40.92, 0 74.71" stroke="#1e1e1e" stroke-width="2" fill="none"/></g></g><mask/><g stroke-linecap="round" transform="translate(554.9428769629455 432.5990135033802) rotate(0 6.9093349781662425 6.9093349781662425)"><path d="M13.82 6.91 C13.82 7.31, 13.78 7.72, 13.71 8.11 C13.64 8.5, 13.54 8.9, 13.4 9.27 C13.27 9.65, 13.09 10.02, 12.89 10.36 C12.69 10.71, 12.46 11.04, 12.2 11.35 C11.95 11.66, 11.66 11.95, 11.35 12.2 C11.04 12.46, 10.71 12.69, 10.36 12.89 C10.02 13.09, 9.65 13.27, 9.27 13.4 C8.9 13.54, 8.5 13.64, 8.11 13.71 C7.72 13.78, 7.31 13.82, 6.91 13.82 C6.51 13.82, 6.1 13.78, 5.71 13.71 C5.32 13.64, 4.92 13.54, 4.55 13.4 C4.17 13.27, 3.8 13.09, 3.45 12.89 C3.11 12.69, 2.77 12.46, 2.47 12.2 C2.16 11.95, 1.87 11.66, 1.62 11.35 C1.36 11.04, 1.13 10.71, 0.93 10.36 C0.73 10.02, 0.55 9.65, 0.42 9.27 C0.28 8.9, 0.17 8.5, 0.1 8.11 C0.04 7.72, 0 7.31, 0 6.91 C0 6.51, 0.04 6.1, 0.1 5.71 C0.17 5.32, 0.28 4.92, 0.42 4.55 C0.55 4.17, 0.73 3.8, 0.93 3.45 C1.13 3.11, 1.36 2.77, 1.62 2.47 C1.87 2.16, 2.16 1.87, 2.47 1.62 C2.77 1.36, 3.11 1.13, 3.45 0.93 C3.8 0.73, 4.17 0.55, 4.55 0.42 C4.92 0.28, 5.32 0.17, 5.71 0.1 C6.1 0.04, 6.51 0, 6.91 0 C7.31 0, 7.72 0.04, 8.11 0.1 C8.5 0.17, 8.9 0.28, 9.27 0.42 C9.65 0.55, 10.02 0.73, 10.36 0.93 C10.71 1.13, 11.04 1.36, 11.35 1.62 C11.66 1.87, 11.95 2.16, 12.2 2.47 C12.46 2.77, 12.69 3.11, 12.89 3.45 C13.09 3.8, 13.27 4.17, 13.4 4.55 C13.54 4.92, 13.64 5.32, 13.71 5.71 C13.78 6.1, 13.8 6.71, 13.82 6.91 C13.84 7.11, 13.84 6.71, 13.82 6.91" stroke="none" stroke-width="0" fill="#1e1e1e"/><path d="M13.82 6.91 C13.82 7.31, 13.78 7.72, 13.71 8.11 C13.64 8.5, 13.54 8.9, 13.4 9.27 C13.27 9.65, 13.09 10.02, 12.89 10.36 C12.69 10.71, 12.46 11.04, 12.2 11.35 C11.95 11.66, 11.66 11.95, 11.35 12.2 C11.04 12.46, 10.71 12.69, 10.36 12.89 C10.02 13.09, 9.65 13.27, 9.27 13.4 C8.9 13.54, 8.5 13.64, 8.11 13.71 C7.72 13.78, 7.31 13.82, 6.91 13.82 C6.51 13.82, 6.1 13.78, 5.71 13.71 C5.32 13.64, 4.92 13.54, 4.55 13.4 C4.17 13.27, 3.8 13.09, 3.45 12.89 C3.11 12.69, 2.77 12.46, 2.47 12.2 C2.16 11.95, 1.87 11.66, 1.62 11.35 C1.36 11.04, 1.13 10.71, 0.93 10.36 C0.73 10.02, 0.55 9.65, 0.42 9.27 C0.28 8.9, 0.17 8.5, 0.1 8.11 C0.04 7.72, 0 7.31, 0 6.91 C0 6.51, 0.04 6.1, 0.1 5.71 C0.17 5.32, 0.28 4.92, 0.42 4.55 C0.55 4.17, 0.73 3.8, 0.93 3.45 C1.13 3.11, 1.36 2.77, 1.62 2.47 C1.87 2.16, 2.16 1.87, 2.47 1.62 C2.77 1.36, 3.11 1.13, 3.45 0.93 C3.8 0.73, 4.17 0.55, 4.55 0.42 C4.92 0.28, 5.32 0.17, 5.71 0.1 C6.1 0.04, 6.51 0, 6.91 0 C7.31 0, 7.72 0.04, 8.11 0.1 C8.5 0.17, 8.9 0.28, 9.27 0.42 C9.65 0.55, 10.02 0.73, 10.36 0.93 C10.71 1.13, 11.04 1.36, 11.35 1.62 C11.66 1.87, 11.95 2.16, 12.2 2.47 C12.46 2.77, 12.69 3.11, 12.89 3.45 C13.09 3.8, 13.27 4.17, 13.4 4.55 C13.54 4.92, 13.64 5.32, 13.71 5.71 C13.78 6.1, 13.8 6.71, 13.82 6.91 C13.84 7.11, 13.84 6.71, 13.82 6.91" stroke="#1e1e1e" stroke-width="2" fill="none"/></g><g stroke-linecap="round"><g transform="translate(604.1499952791942 287.4924973902303) rotate(0 0 -92.01036903850363)"><path d="M0 0 C0 -52.62, 0 -105.25, 0 -184.02 M0 0 C0 -45.22, 0 -90.43, 0 -184.02" stroke="#1e1e1e" stroke-width="2" fill="none"/></g></g><mask/><g stroke-linecap="round"><g transform="translate(517.2158732611127 287.15756959346595) rotate(0 3.552713678800501e-15 -91.99541667621591)"><path d="M0 0 C0 -42.67, 0 -85.34, 0 -183.99 M0 0 C0 -50.37, 0 -100.74, 0 -183.99" stroke="#1e1e1e" stroke-width="2" fill="none"/></g></g><mask/><g stroke-linecap="round"><g transform="translate(441.978708502569 285.8851408376526) rotate(0 0 -92.01036903850363)"><path d="M0 0 C0 -66.75, 0 -133.49, 0 -184.02 M0 0 C0 -71.88, 0 -143.76, 0 -184.02" stroke="#1e1e1e" stroke-width="2" fill="none"/></g></g><mask/><g stroke-linecap="round"><g transform="translate(355.0445864844877 285.5502130408883) rotate(0 0 -91.99541667621591)"><path d="M0 0 C0 -39.45, 0 -78.89, 0 -183.99 M0 0 C0 -44.35, 0 -88.7, 0 -183.99" stroke="#1e1e1e" stroke-width="2" fill="none"/></g></g><mask/><g stroke-linecap="round"><g transform="translate(355.82041235471564 245.4963306326207) rotate(0 -55.26250578473912 134.76294384265026)"><path d="M0 0 C-26.25 0, -52.49 0, -110.53 0 M0 0 C-43.77 0, -87.54 0, -110.53 0 M-110.53 0 C-110.53 58.13, -110.53 116.26, -110.53 269.53 M-110.53 0 C-110.53 89.52, -110.53 179.05, -110.53 269.53 M-110.53 269.53 C-95.98 269.53, -81.44 269.53, -52.76 269.53 M-110.53 269.53 C-94.39 269.53, -78.25 269.53, -52.76 269.53" stroke="#1e1e1e" stroke-width="2" fill="none"/></g></g><mask/><g stroke-linecap="round" transform="translate(347.56591318538113 235.82914999063405) rotate(0 8.630728120323056 8.630728120323056)"><path d="M17.26 8.63 C17.26 9.13, 17.22 9.64, 17.13 10.13 C17.04 10.62, 16.91 11.11, 16.74 11.58 C16.57 12.05, 16.35 12.51, 16.11 12.95 C15.86 13.38, 15.56 13.8, 15.24 14.18 C14.92 14.56, 14.56 14.92, 14.18 15.24 C13.8 15.56, 13.38 15.86, 12.95 16.11 C12.51 16.35, 12.05 16.57, 11.58 16.74 C11.11 16.91, 10.62 17.04, 10.13 17.13 C9.64 17.22, 9.13 17.26, 8.63 17.26 C8.13 17.26, 7.62 17.22, 7.13 17.13 C6.64 17.04, 6.15 16.91, 5.68 16.74 C5.21 16.57, 4.75 16.35, 4.32 16.11 C3.88 15.86, 3.47 15.56, 3.08 15.24 C2.7 14.92, 2.34 14.56, 2.02 14.18 C1.7 13.8, 1.41 13.38, 1.16 12.95 C0.91 12.51, 0.69 12.05, 0.52 11.58 C0.35 11.11, 0.22 10.62, 0.13 10.13 C0.04 9.64, 0 9.13, 0 8.63 C0 8.13, 0.04 7.62, 0.13 7.13 C0.22 6.64, 0.35 6.15, 0.52 5.68 C0.69 5.21, 0.91 4.75, 1.16 4.32 C1.41 3.88, 1.7 3.47, 2.02 3.08 C2.34 2.7, 2.7 2.34, 3.08 2.02 C3.47 1.7, 3.88 1.41, 4.32 1.16 C4.75 0.91, 5.21 0.69, 5.68 0.52 C6.15 0.35, 6.64 0.22, 7.13 0.13 C7.62 0.04, 8.13 0, 8.63 0 C9.13 0, 9.64 0.04, 10.13 0.13 C10.62 0.22, 11.11 0.35, 11.58 0.52 C12.05 0.69, 12.51 0.91, 12.95 1.16 C13.38 1.41, 13.8 1.7, 14.18 2.02 C14.56 2.34, 14.92 2.7, 15.24 3.08 C15.56 3.47, 15.86 3.88, 16.11 4.32 C16.35 4.75, 16.57 5.21, 16.74 5.68 C16.91 6.15, 17.04 6.64, 17.13 7.13 C17.22 7.62, 17.24 8.38, 17.26 8.63 C17.28 8.88, 17.28 8.38, 17.26 8.63" stroke="none" stroke-width="0" fill="#1e1e1e"/><path d="M17.26 8.63 C17.26 9.13, 17.22 9.64, 17.13 10.13 C17.04 10.62, 16.91 11.11, 16.74 11.58 C16.57 12.05, 16.35 12.51, 16.11 12.95 C15.86 13.38, 15.56 13.8, 15.24 14.18 C14.92 14.56, 14.56 14.92, 14.18 15.24 C13.8 15.56, 13.38 15.86, 12.95 16.11 C12.51 16.35, 12.05 16.57, 11.58 16.74 C11.11 16.91, 10.62 17.04, 10.13 17.13 C9.64 17.22, 9.13 17.26, 8.63 17.26 C8.13 17.26, 7.62 17.22, 7.13 17.13 C6.64 17.04, 6.15 16.91, 5.68 16.74 C5.21 16.57, 4.75 16.35, 4.32 16.11 C3.88 15.86, 3.47 15.56, 3.08 15.24 C2.7 14.92, 2.34 14.56, 2.02 14.18 C1.7 13.8, 1.41 13.38, 1.16 12.95 C0.91 12.51, 0.69 12.05, 0.52 11.58 C0.35 11.11, 0.22 10.62, 0.13 10.13 C0.04 9.64, 0 9.13, 0 8.63 C0 8.13, 0.04 7.62, 0.13 7.13 C0.22 6.64, 0.35 6.15, 0.52 5.68 C0.69 5.21, 0.91 4.75, 1.16 4.32 C1.41 3.88, 1.7 3.47, 2.02 3.08 C2.34 2.7, 2.7 2.34, 3.08 2.02 C3.47 1.7, 3.88 1.41, 4.32 1.16 C4.75 0.91, 5.21 0.69, 5.68 0.52 C6.15 0.35, 6.64 0.22, 7.13 0.13 C7.62 0.04, 8.13 0, 8.63 0 C9.13 0, 9.64 0.04, 10.13 0.13 C10.62 0.22, 11.11 0.35, 11.58 0.52 C12.05 0.69, 12.51 0.91, 12.95 1.16 C13.38 1.41, 13.8 1.7, 14.18 2.02 C14.56 2.34, 14.92 2.7, 15.24 3.08 C15.56 3.47, 15.86 3.88, 16.11 4.32 C16.35 4.75, 16.57 5.21, 16.74 5.68 C16.91 6.15, 17.04 6.64, 17.13 7.13 C17.22 7.62, 17.24 8.38, 17.26 8.63 C17.28 8.88, 17.28 8.38, 17.26 8.63" stroke="#1e1e1e" stroke-width="2" fill="none"/></g><g stroke-linecap="round"><g transform="translate(444.69851247600224 205.51464194198218) rotate(0 -119.61309192328338 170.1987457758314)"><path d="M0 0 C-83.63 0, -167.27 0, -239.23 0 M0 0 C-61.54 0, -123.08 0, -239.23 0 M-239.23 0 C-239.23 106.43, -239.23 212.87, -239.23 340.4 M-239.23 0 C-239.23 133.28, -239.23 266.55, -239.23 340.4 M-239.23 340.4 C-201.17 340.4, -163.11 340.4, -141.03 340.4 M-239.23 340.4 C-201.77 340.4, -164.32 340.4, -141.03 340.4" stroke="#1e1e1e" stroke-width="2" fill="none"/></g></g><mask/><g stroke-linecap="round" transform="translate(434.42278095339583 199.11906542997326) rotate(0 8.630728120323056 8.630728120323056)"><path d="M17.26 8.63 C17.26 9.13, 17.22 9.64, 17.13 10.13 C17.04 10.62, 16.91 11.11, 16.74 11.58 C16.57 12.05, 16.35 12.51, 16.11 12.95 C15.86 13.38, 15.56 13.8, 15.24 14.18 C14.92 14.56, 14.56 14.92, 14.18 15.24 C13.8 15.56, 13.38 15.86, 12.95 16.11 C12.51 16.35, 12.05 16.57, 11.58 16.74 C11.11 16.91, 10.62 17.04, 10.13 17.13 C9.64 17.22, 9.13 17.26, 8.63 17.26 C8.13 17.26, 7.62 17.22, 7.13 17.13 C6.64 17.04, 6.15 16.91, 5.68 16.74 C5.21 16.57, 4.75 16.35, 4.32 16.11 C3.88 15.86, 3.47 15.56, 3.08 15.24 C2.7 14.92, 2.34 14.56, 2.02 14.18 C1.7 13.8, 1.41 13.38, 1.16 12.95 C0.91 12.51, 0.69 12.05, 0.52 11.58 C0.35 11.11, 0.22 10.62, 0.13 10.13 C0.04 9.64, 0 9.13, 0 8.63 C0 8.13, 0.04 7.62, 0.13 7.13 C0.22 6.64, 0.35 6.15, 0.52 5.68 C0.69 5.21, 0.91 4.75, 1.16 4.32 C1.41 3.88, 1.7 3.47, 2.02 3.08 C2.34 2.7, 2.7 2.34, 3.08 2.02 C3.47 1.7, 3.88 1.41, 4.32 1.16 C4.75 0.91, 5.21 0.69, 5.68 0.52 C6.15 0.35, 6.64 0.22, 7.13 0.13 C7.62 0.04, 8.13 0, 8.63 0 C9.13 0, 9.64 0.04, 10.13 0.13 C10.62 0.22, 11.11 0.35, 11.58 0.52 C12.05 0.69, 12.51 0.91, 12.95 1.16 C13.38 1.41, 13.8 1.7, 14.18 2.02 C14.56 2.34, 14.92 2.7, 15.24 3.08 C15.56 3.47, 15.86 3.88, 16.11 4.32 C16.35 4.75, 16.57 5.21, 16.74 5.68 C16.91 6.15, 17.04 6.64, 17.13 7.13 C17.22 7.62, 17.24 8.38, 17.26 8.63 C17.28 8.88, 17.28 8.38, 17.26 8.63" stroke="none" stroke-width="0" fill="#1e1e1e"/><path d="M17.26 8.63 C17.26 9.13, 17.22 9.64, 17.13 10.13 C17.04 10.62, 16.91 11.11, 16.74 11.58 C16.57 12.05, 16.35 12.51, 16.11 12.95 C15.86 13.38, 15.56 13.8, 15.24 14.18 C14.92 14.56, 14.56 14.92, 14.18 15.24 C13.8 15.56, 13.38 15.86, 12.95 16.11 C12.51 16.35, 12.05 16.57, 11.58 16.74 C11.11 16.91, 10.62 17.04, 10.13 17.13 C9.64 17.22, 9.13 17.26, 8.63 17.26 C8.13 17.26, 7.62 17.22, 7.13 17.13 C6.64 17.04, 6.15 16.91, 5.68 16.74 C5.21 16.57, 4.75 16.35, 4.32 16.11 C3.88 15.86, 3.47 15.56, 3.08 15.24 C2.7 14.92, 2.34 14.56, 2.02 14.18 C1.7 13.8, 1.41 13.38, 1.16 12.95 C0.91 12.51, 0.69 12.05, 0.52 11.58 C0.35 11.11, 0.22 10.62, 0.13 10.13 C0.04 9.64, 0 9.13, 0 8.63 C0 8.13, 0.04 7.62, 0.13 7.13 C0.22 6.64, 0.35 6.15, 0.52 5.68 C0.69 5.21, 0.91 4.75, 1.16 4.32 C1.41 3.88, 1.7 3.47, 2.02 3.08 C2.34 2.7, 2.7 2.34, 3.08 2.02 C3.47 1.7, 3.88 1.41, 4.32 1.16 C4.75 0.91, 5.21 0.69, 5.68 0.52 C6.15 0.35, 6.64 0.22, 7.13 0.13 C7.62 0.04, 8.13 0, 8.63 0 C9.13 0, 9.64 0.04, 10.13 0.13 C10.62 0.22, 11.11 0.35, 11.58 0.52 C12.05 0.69, 12.51 0.91, 12.95 1.16 C13.38 1.41, 13.8 1.7, 14.18 2.02 C14.56 2.34, 14.92 2.7, 15.24 3.08 C15.56 3.47, 15.86 3.88, 16.11 4.32 C16.35 4.75, 16.57 5.21, 16.74 5.68 C16.91 6.15, 17.04 6.64, 17.13 7.13 C17.22 7.62, 17.24 8.38, 17.26 8.63 C17.28 8.88, 17.28 8.38, 17.26 8.63" stroke="#1e1e1e" stroke-width="2" fill="none"/></g><g stroke-linecap="round"><g transform="translate(517.751947017031 160.89226846005096) rotate(0 -178.76652857647002 208.7208973155999)"><path d="M0 0 C-120.4 0, -240.79 0, -357.53 0 M0 0 C-141.95 0, -283.89 0, -357.53 0 M-357.53 0 C-357.53 157.41, -357.53 314.83, -357.53 417.44 M-357.53 0 C-357.53 135.07, -357.53 270.13, -357.53 417.44 M-357.53 417.44 C-307.18 417.44, -256.83 417.44, -216.6 417.44 M-357.53 417.44 C-301.85 417.44, -246.18 417.44, -216.6 417.44" stroke="#1e1e1e" stroke-width="2" fill="none"/></g></g><mask/><g stroke-linecap="round" transform="translate(507.7146422964135 152.10686738200485) rotate(0 8.630728120323056 8.630728120323056)"><path d="M17.26 8.63 C17.26 9.13, 17.22 9.64, 17.13 10.13 C17.04 10.62, 16.91 11.11, 16.74 11.58 C16.57 12.05, 16.35 12.51, 16.11 12.95 C15.86 13.38, 15.56 13.8, 15.24 14.18 C14.92 14.56, 14.56 14.92, 14.18 15.24 C13.8 15.56, 13.38 15.86, 12.95 16.11 C12.51 16.35, 12.05 16.57, 11.58 16.74 C11.11 16.91, 10.62 17.04, 10.13 17.13 C9.64 17.22, 9.13 17.26, 8.63 17.26 C8.13 17.26, 7.62 17.22, 7.13 17.13 C6.64 17.04, 6.15 16.91, 5.68 16.74 C5.21 16.57, 4.75 16.35, 4.32 16.11 C3.88 15.86, 3.47 15.56, 3.08 15.24 C2.7 14.92, 2.34 14.56, 2.02 14.18 C1.7 13.8, 1.41 13.38, 1.16 12.95 C0.91 12.51, 0.69 12.05, 0.52 11.58 C0.35 11.11, 0.22 10.62, 0.13 10.13 C0.04 9.64, 0 9.13, 0 8.63 C0 8.13, 0.04 7.62, 0.13 7.13 C0.22 6.64, 0.35 6.15, 0.52 5.68 C0.69 5.21, 0.91 4.75, 1.16 4.32 C1.41 3.88, 1.7 3.47, 2.02 3.08 C2.34 2.7, 2.7 2.34, 3.08 2.02 C3.47 1.7, 3.88 1.41, 4.32 1.16 C4.75 0.91, 5.21 0.69, 5.68 0.52 C6.15 0.35, 6.64 0.22, 7.13 0.13 C7.62 0.04, 8.13 0, 8.63 0 C9.13 0, 9.64 0.04, 10.13 0.13 C10.62 0.22, 11.11 0.35, 11.58 0.52 C12.05 0.69, 12.51 0.91, 12.95 1.16 C13.38 1.41, 13.8 1.7, 14.18 2.02 C14.56 2.34, 14.92 2.7, 15.24 3.08 C15.56 3.47, 15.86 3.88, 16.11 4.32 C16.35 4.75, 16.57 5.21, 16.74 5.68 C16.91 6.15, 17.04 6.64, 17.13 7.13 C17.22 7.62, 17.24 8.38, 17.26 8.63 C17.28 8.88, 17.28 8.38, 17.26 8.63" stroke="none" stroke-width="0" fill="#1e1e1e"/><path d="M17.26 8.63 C17.26 9.13, 17.22 9.64, 17.13 10.13 C17.04 10.62, 16.91 11.11, 16.74 11.58 C16.57 12.05, 16.35 12.51, 16.11 12.95 C15.86 13.38, 15.56 13.8, 15.24 14.18 C14.92 14.56, 14.56 14.92, 14.18 15.24 C13.8 15.56, 13.38 15.86, 12.95 16.11 C12.51 16.35, 12.05 16.57, 11.58 16.74 C11.11 16.91, 10.62 17.04, 10.13 17.13 C9.64 17.22, 9.13 17.26, 8.63 17.26 C8.13 17.26, 7.62 17.22, 7.13 17.13 C6.64 17.04, 6.15 16.91, 5.68 16.74 C5.21 16.57, 4.75 16.35, 4.32 16.11 C3.88 15.86, 3.47 15.56, 3.08 15.24 C2.7 14.92, 2.34 14.56, 2.02 14.18 C1.7 13.8, 1.41 13.38, 1.16 12.95 C0.91 12.51, 0.69 12.05, 0.52 11.58 C0.35 11.11, 0.22 10.62, 0.13 10.13 C0.04 9.64, 0 9.13, 0 8.63 C0 8.13, 0.04 7.62, 0.13 7.13 C0.22 6.64, 0.35 6.15, 0.52 5.68 C0.69 5.21, 0.91 4.75, 1.16 4.32 C1.41 3.88, 1.7 3.47, 2.02 3.08 C2.34 2.7, 2.7 2.34, 3.08 2.02 C3.47 1.7, 3.88 1.41, 4.32 1.16 C4.75 0.91, 5.21 0.69, 5.68 0.52 C6.15 0.35, 6.64 0.22, 7.13 0.13 C7.62 0.04, 8.13 0, 8.63 0 C9.13 0, 9.64 0.04, 10.13 0.13 C10.62 0.22, 11.11 0.35, 11.58 0.52 C12.05 0.69, 12.51 0.91, 12.95 1.16 C13.38 1.41, 13.8 1.7, 14.18 2.02 C14.56 2.34, 14.92 2.7, 15.24 3.08 C15.56 3.47, 15.86 3.88, 16.11 4.32 C16.35 4.75, 16.57 5.21, 16.74 5.68 C16.91 6.15, 17.04 6.64, 17.13 7.13 C17.22 7.62, 17.24 8.38, 17.26 8.63 C17.28 8.88, 17.28 8.38, 17.26 8.63" stroke="#1e1e1e" stroke-width="2" fill="none"/></g><g stroke-linecap="round"><g transform="translate(606.1552391222594 129.40081742506447) rotate(0 -245.7009924844752 234.41432391521806)"><path d="M0 0 C-194.04 0, -388.08 0, -491.4 0 M0 0 C-143.49 0, -286.99 0, -491.4 0 M-491.4 0 C-491.4 108.04, -491.4 216.08, -491.4 468.83 M-491.4 0 C-491.4 122.72, -491.4 245.43, -491.4 468.83 M-491.4 468.83 C-426.88 468.83, -362.36 468.83, -305.5 468.83 M-491.4 468.83 C-419.82 468.83, -348.24 468.83, -305.5 468.83" stroke="#1e1e1e" stroke-width="2" fill="none"/></g></g><mask/><g stroke-linecap="round" transform="translate(595.6393580230847 121.51448532153637) rotate(0 8.630728120323056 8.630728120323056)"><path d="M17.26 8.63 C17.26 9.13, 17.22 9.64, 17.13 10.13 C17.04 10.62, 16.91 11.11, 16.74 11.58 C16.57 12.05, 16.35 12.51, 16.11 12.95 C15.86 13.38, 15.56 13.8, 15.24 14.18 C14.92 14.56, 14.56 14.92, 14.18 15.24 C13.8 15.56, 13.38 15.86, 12.95 16.11 C12.51 16.35, 12.05 16.57, 11.58 16.74 C11.11 16.91, 10.62 17.04, 10.13 17.13 C9.64 17.22, 9.13 17.26, 8.63 17.26 C8.13 17.26, 7.62 17.22, 7.13 17.13 C6.64 17.04, 6.15 16.91, 5.68 16.74 C5.21 16.57, 4.75 16.35, 4.32 16.11 C3.88 15.86, 3.47 15.56, 3.08 15.24 C2.7 14.92, 2.34 14.56, 2.02 14.18 C1.7 13.8, 1.41 13.38, 1.16 12.95 C0.91 12.51, 0.69 12.05, 0.52 11.58 C0.35 11.11, 0.22 10.62, 0.13 10.13 C0.04 9.64, 0 9.13, 0 8.63 C0 8.13, 0.04 7.62, 0.13 7.13 C0.22 6.64, 0.35 6.15, 0.52 5.68 C0.69 5.21, 0.91 4.75, 1.16 4.32 C1.41 3.88, 1.7 3.47, 2.02 3.08 C2.34 2.7, 2.7 2.34, 3.08 2.02 C3.47 1.7, 3.88 1.41, 4.32 1.16 C4.75 0.91, 5.21 0.69, 5.68 0.52 C6.15 0.35, 6.64 0.22, 7.13 0.13 C7.62 0.04, 8.13 0, 8.63 0 C9.13 0, 9.64 0.04, 10.13 0.13 C10.62 0.22, 11.11 0.35, 11.58 0.52 C12.05 0.69, 12.51 0.91, 12.95 1.16 C13.38 1.41, 13.8 1.7, 14.18 2.02 C14.56 2.34, 14.92 2.7, 15.24 3.08 C15.56 3.47, 15.86 3.88, 16.11 4.32 C16.35 4.75, 16.57 5.21, 16.74 5.68 C16.91 6.15, 17.04 6.64, 17.13 7.13 C17.22 7.62, 17.24 8.38, 17.26 8.63 C17.28 8.88, 17.28 8.38, 17.26 8.63" stroke="none" stroke-width="0" fill="#1e1e1e"/><path d="M17.26 8.63 C17.26 9.13, 17.22 9.64, 17.13 10.13 C17.04 10.62, 16.91 11.11, 16.74 11.58 C16.57 12.05, 16.35 12.51, 16.11 12.95 C15.86 13.38, 15.56 13.8, 15.24 14.18 C14.92 14.56, 14.56 14.92, 14.18 15.24 C13.8 15.56, 13.38 15.86, 12.95 16.11 C12.51 16.35, 12.05 16.57, 11.58 16.74 C11.11 16.91, 10.62 17.04, 10.13 17.13 C9.64 17.22, 9.13 17.26, 8.63 17.26 C8.13 17.26, 7.62 17.22, 7.13 17.13 C6.64 17.04, 6.15 16.91, 5.68 16.74 C5.21 16.57, 4.75 16.35, 4.32 16.11 C3.88 15.86, 3.47 15.56, 3.08 15.24 C2.7 14.92, 2.34 14.56, 2.02 14.18 C1.7 13.8, 1.41 13.38, 1.16 12.95 C0.91 12.51, 0.69 12.05, 0.52 11.58 C0.35 11.11, 0.22 10.62, 0.13 10.13 C0.04 9.64, 0 9.13, 0 8.63 C0 8.13, 0.04 7.62, 0.13 7.13 C0.22 6.64, 0.35 6.15, 0.52 5.68 C0.69 5.21, 0.91 4.75, 1.16 4.32 C1.41 3.88, 1.7 3.47, 2.02 3.08 C2.34 2.7, 2.7 2.34, 3.08 2.02 C3.47 1.7, 3.88 1.41, 4.32 1.16 C4.75 0.91, 5.21 0.69, 5.68 0.52 C6.15 0.35, 6.64 0.22, 7.13 0.13 C7.62 0.04, 8.13 0, 8.63 0 C9.13 0, 9.64 0.04, 10.13 0.13 C10.62 0.22, 11.11 0.35, 11.58 0.52 C12.05 0.69, 12.51 0.91, 12.95 1.16 C13.38 1.41, 13.8 1.7, 14.18 2.02 C14.56 2.34, 14.92 2.7, 15.24 3.08 C15.56 3.47, 15.86 3.88, 16.11 4.32 C16.35 4.75, 16.57 5.21, 16.74 5.68 C16.91 6.15, 17.04 6.64, 17.13 7.13 C17.22 7.62, 17.24 8.38, 17.26 8.63 C17.28 8.88, 17.28 8.38, 17.26 8.63" stroke="#1e1e1e" stroke-width="2" fill="none"/></g><g transform="translate(774.6417254401083 424.5333870609691) rotate(0 21.08049774169922 17.454310063242556)"><text x="0" y="27.927488978567954" font-family="Helvetica, Segoe UI Emoji" font-size="30.355321849117487px" fill="#1e1e1e" text-anchor="start" style="white-space: pre;" direction="ltr" dominant-baseline="alphabetic">CP</text></g><g transform="translate(310.1893732004579 503.0566235232656) rotate(0 8.5791015625 11.5)"><text x="0" y="18.400390625" font-family="Helvetica, Segoe UI Emoji" font-size="20px" fill="#1e1e1e" text-anchor="start" style="white-space: pre;" direction="ltr" dominant-baseline="alphabetic">A'</text></g><g transform="translate(310.1893732004579 532.7087637450014) rotate(0 6.669921875 11.5)"><text x="0" y="18.400390625" font-family="Helvetica, Segoe UI Emoji" font-size="20px" fill="#1e1e1e" text-anchor="start" style="white-space: pre;" direction="ltr" dominant-baseline="alphabetic">A</text></g><g transform="translate(310.1893732004579 560.312564651631) rotate(0 6.669921875 11.5)"><text x="13.33984375" y="18.400390625" font-family="Helvetica, Segoe UI Emoji" font-size="20px" fill="#1e1e1e" text-anchor="end" style="white-space: pre;" direction="ltr" dominant-baseline="alphabetic">B</text></g><g transform="translate(310.1893732004579 588.201430374142) rotate(0 8.5791015625 11.5)"><text x="0" y="18.400390625" font-family="Helvetica, Segoe UI Emoji" font-size="20px" fill="#1e1e1e" text-anchor="start" style="white-space: pre;" direction="ltr" dominant-baseline="alphabetic">B'</text></g><g transform="translate(316.5719848688683 453.4419601751671) rotate(0 13.33984375 11.5)"><text x="26.6796875" y="18.400390625" font-family="Helvetica, Segoe UI Emoji" font-size="20px" fill="#1e1e1e" text-anchor="end" style="white-space: pre;" direction="ltr" dominant-baseline="alphabetic">KA</text></g><g transform="translate(408.4686659353405 453.4419601751671) rotate(0 11.669921875 11.5)"><text x="23.33984375" y="18.400390625" font-family="Helvetica, Segoe UI Emoji" font-size="20px" fill="#1e1e1e" text-anchor="end" style="white-space: pre;" direction="ltr" dominant-baseline="alphabetic">JA</text></g><g transform="translate(478.97358317501573 453.26493130931124) rotate(0 13.33984375 11.5)"><text x="26.6796875" y="18.400390625" font-family="Helvetica, Segoe UI Emoji" font-size="20px" fill="#1e1e1e" text-anchor="end" style="white-space: pre;" direction="ltr" dominant-baseline="alphabetic">KB</text></g><g transform="translate(571.2006978787988 453.4275445209889) rotate(0 11.669921875 11.5)"><text x="23.33984375" y="18.400390625" font-family="Helvetica, Segoe UI Emoji" font-size="20px" fill="#1e1e1e" text-anchor="end" style="white-space: pre;" direction="ltr" dominant-baseline="alphabetic">JB</text></g><g transform="translate(548.802062957494 63.26502138495772) rotate(0 6.669921875 11.5)"><text x="13.33984375" y="18.400390625" font-family="Helvetica, Segoe UI Emoji" font-size="20px" fill="transparent" text-anchor="end" style="white-space: pre;" direction="ltr" dominant-baseline="alphabetic">A</text></g><g transform="translate(327.5530689654204 255.96968913287805) rotate(0 8.5791015625 11.5)"><text x="17.158203125" y="18.400390625" font-family="Helvetica, Segoe UI Emoji" font-size="20px" fill="#1e1e1e" text-anchor="end" style="white-space: pre;" direction="ltr" dominant-baseline="alphabetic">A'</text></g><g transform="translate(418.21538404398905 255.96968913287805) rotate(0 6.669921875 11.5)"><text x="13.33984375" y="18.400390625" font-family="Helvetica, Segoe UI Emoji" font-size="20px" fill="#1e1e1e" text-anchor="end" style="white-space: pre;" direction="ltr" dominant-baseline="alphabetic">A</text></g><g transform="translate(491.6496011624515 255.96968913287805) rotate(0 8.5791015625 11.5)"><text x="17.158203125" y="18.400390625" font-family="Helvetica, Segoe UI Emoji" font-size="20px" fill="#1e1e1e" text-anchor="end" style="white-space: pre;" direction="ltr" dominant-baseline="alphabetic">B'</text></g><g transform="translate(582.3119162410202 255.96968913287805) rotate(0 6.669921875 11.5)"><text x="13.33984375" y="18.400390625" font-family="Helvetica, Segoe UI Emoji" font-size="20px" fill="#1e1e1e" text-anchor="end" style="white-space: pre;" direction="ltr" dominant-baseline="alphabetic">B</text></g></svg>