<svg version="1.1" xmlns="http://www.w3.org/2000/svg" viewBox="0 0 706.8500469747598 627.9234187988081" width="706.8500469747598" height="627.9234187988081" class="excalidraw-svg">
  <!-- svg-source:excalidraw -->
  
  <defs>
    <style class="style-fonts">
      @font-face {
        font-family: "Virgil";
        src: url("https://excalidraw.com/Virgil.woff2");
      }
      @font-face {
        font-family: "Cascadia";
        src: url("https://excalidraw.com/Cascadia.woff2");
      }
      @font-face {
        font-family: "Assistant";
        src: url("https://excalidraw.com/Assistant-Regular.woff2");
      }
    </style>
    
  </defs>
  <g stroke-linecap="round" transform="translate(10 10) rotate(0 343.4250234873799 303.96170939940407)"><path d="M32 0 C213.5 0, 395 0, 654.85 0 C676.18 0, 686.85 10.67, 686.85 32 C686.85 182.21, 686.85 332.43, 686.85 575.92 C686.85 597.26, 676.18 607.92, 654.85 607.92 C444.23 607.92, 233.61 607.92, 32 607.92 C10.67 607.92, 0 597.26, 0 575.92 C0 372.67, 0 169.43, 0 32 C0 10.67, 10.67 0, 32 0" stroke="none" stroke-width="0" fill="#ffffff"/><path d="M32 0 C170.94 0, 309.88 0, 654.85 0 M32 0 C239.89 0, 447.78 0, 654.85 0 M654.85 0 C676.18 0, 686.85 10.67, 686.85 32 M654.85 0 C676.18 0, 686.85 10.67, 686.85 32 M686.85 32 C686.85 167.37, 686.85 302.74, 686.85 575.92 M686.85 32 C686.85 144.67, 686.85 257.34, 686.85 575.92 M686.85 575.92 C686.85 597.26, 676.18 607.92, 654.85 607.92 M686.85 575.92 C686.85 597.26, 676.18 607.92, 654.85 607.92 M654.85 607.92 C506.59 607.92, 358.33 607.92, 32 607.92 M654.85 607.92 C407.18 607.92, 159.51 607.92, 32 607.92 M32 607.92 C10.67 607.92, 0 597.26, 0 575.92 M32 607.92 C10.67 607.92, 0 597.26, 0 575.92 M0 575.92 C0 432.31, 0 288.69, 0 32 M0 575.92 C0 438.51, 0 301.09, 0 32 M0 32 C0 10.67, 10.67 0, 32 0 M0 32 C0 10.67, 10.67 0, 32 0" stroke="transparent" stroke-width="2" fill="none"/></g><g stroke-linecap="round" transform="translate(86.96735826971718 230.34162190145386) rotate(0 70.83840942382812 39.581504821777344)"><path d="M0 0 C36.96 0, 73.91 0, 141.68 0 M0 0 C56.57 0, 113.14 0, 141.68 0 M141.68 0 C141.68 21.3, 141.68 42.61, 141.68 79.16 M141.68 0 C141.68 23.36, 141.68 46.71, 141.68 79.16 M141.68 79.16 C100.6 79.16, 59.53 79.16, 0 79.16 M141.68 79.16 C94.14 79.16, 46.6 79.16, 0 79.16 M0 79.16 C0 63.32, 0 47.47, 0 0 M0 79.16 C0 57.65, 0 36.13, 0 0" stroke="#1e1e1e" stroke-width="2" fill="none"/></g><g transform="translate(110.97200855425717 280.10644657659884) rotate(0 6.669921875 11.5)"><text x="0" y="18.400390625" font-family="Helvetica, Segoe UI Emoji" font-size="20px" fill="#1e1e1e" text-anchor="start" style="white-space: pre;" direction="ltr" dominant-baseline="alphabetic">K</text></g><g transform="translate(197.51610769804364 280.10644657659884) rotate(0 5 11.5)"><text x="0" y="18.400390625" font-family="Helvetica, Segoe UI Emoji" font-size="20px" fill="#1e1e1e" text-anchor="start" style="white-space: pre;" direction="ltr" dominant-baseline="alphabetic">J</text></g><g transform="translate(109.71785495301873 234.11579261221002) rotate(0 9.6875 11.5)"><text x="0" y="18.400390625" font-family="Helvetica, Segoe UI Emoji" font-size="20px" fill="#1e1e1e" text-anchor="start" style="white-space: pre;" direction="ltr" dominant-baseline="alphabetic">Q'</text></g><g transform="translate(196.44497701802698 234.11579261221002) rotate(0 7.7783203125 11.5)"><text x="0" y="18.400390625" font-family="Helvetica, Segoe UI Emoji" font-size="20px" fill="#1e1e1e" text-anchor="start" style="white-space: pre;" direction="ltr" dominant-baseline="alphabetic">Q</text></g><g stroke-linecap="round" transform="translate(309.4833001886639 229.93465312901) rotate(0 70.83840942382812 39.581504821777344)"><path d="M0 0 C51.25 0, 102.51 0, 141.68 0 M0 0 C38.07 0, 76.14 0, 141.68 0 M141.68 0 C141.68 18.71, 141.68 37.42, 141.68 79.16 M141.68 0 C141.68 25.15, 141.68 50.31, 141.68 79.16 M141.68 79.16 C89.3 79.16, 36.92 79.16, 0 79.16 M141.68 79.16 C91.79 79.16, 41.9 79.16, 0 79.16 M0 79.16 C0 61.4, 0 43.63, 0 0 M0 79.16 C0 57.9, 0 36.64, 0 0" stroke="#1e1e1e" stroke-width="2" fill="none"/></g><g transform="translate(333.4879504732039 279.699477804155) rotate(0 6.669921875 11.5)"><text x="0" y="18.400390625" font-family="Helvetica, Segoe UI Emoji" font-size="20px" fill="#1e1e1e" text-anchor="start" style="white-space: pre;" direction="ltr" dominant-baseline="alphabetic">K</text></g><g transform="translate(420.0320496169904 279.699477804155) rotate(0 5 11.5)"><text x="0" y="18.400390625" font-family="Helvetica, Segoe UI Emoji" font-size="20px" fill="#1e1e1e" text-anchor="start" style="white-space: pre;" direction="ltr" dominant-baseline="alphabetic">J</text></g><g transform="translate(332.23379687196547 233.70882383976615) rotate(0 9.6875 11.5)"><text x="0" y="18.400390625" font-family="Helvetica, Segoe UI Emoji" font-size="20px" fill="#1e1e1e" text-anchor="start" style="white-space: pre;" direction="ltr" dominant-baseline="alphabetic">Q'</text></g><g transform="translate(418.9609189369737 233.70882383976615) rotate(0 7.7783203125 11.5)"><text x="0" y="18.400390625" font-family="Helvetica, Segoe UI Emoji" font-size="20px" fill="#1e1e1e" text-anchor="start" style="white-space: pre;" direction="ltr" dominant-baseline="alphabetic">Q</text></g><g stroke-linecap="round"><g transform="translate(146.2906087027686 309.5810943862532) rotate(0 16.096137249454088 -7.670083714927429)"><path d="M0 0 C3.99 -3.99, 7.98 -7.98, 15.84 -15.84 M0 0 C4.15 -4.15, 8.3 -8.3, 15.84 -15.84 M15.84 -15.84 C22.07 -9.62, 28.3 -3.39, 32.19 0.5 M15.84 -15.84 C20.68 -11.01, 25.52 -6.17, 32.19 0.5" stroke="#1e1e1e" stroke-width="2" fill="none"/></g></g><mask/><g stroke-linecap="round"><g transform="translate(369.7933689622713 307.3515821230362) rotate(0 16.096137249454088 -7.670083714927429)"><path d="M0 0 C5.43 -5.43, 10.86 -10.86, 15.84 -15.84 M0 0 C5.39 -5.39, 10.79 -10.79, 15.84 -15.84 M15.84 -15.84 C21.07 -10.62, 26.29 -5.4, 32.19 0.5 M15.84 -15.84 C22.35 -9.33, 28.86 -2.83, 32.19 0.5" stroke="#1e1e1e" stroke-width="2" fill="none"/></g></g><mask/><g stroke-linecap="round"><g transform="translate(207.71773885710502 229.85425669795353) rotate(0 7.105427357601002e-15 -71.91354370117188)"><path d="M0 0 C0 -54.63, 0 -109.26, 0 -143.83 M0 0 C0 -44.48, 0 -88.96, 0 -143.83" stroke="#1e1e1e" stroke-width="2" fill="none"/></g></g><mask/><g stroke-linecap="round"><g transform="translate(427.00997518523 229.11609751826603) rotate(0 0 -73.69827270507814)"><path d="M0 0 C0 -51.75, 0 -103.5, 0 -147.4 M0 0 C0 -34.24, 0 -68.49, 0 -147.4" stroke="#1e1e1e" stroke-width="2" fill="none"/></g></g><mask/><g transform="translate(166.85549520476127 142.47184092646916) rotate(0 6.669921875 11.5)"><text x="0" y="18.400390625" font-family="Helvetica, Segoe UI Emoji" font-size="20px" fill="#1e1e1e" text-anchor="start" style="white-space: pre;" direction="ltr" dominant-baseline="alphabetic">A</text></g><g transform="translate(396.88302206023 142.47184092646916) rotate(0 6.669921875 11.5)"><text x="0" y="18.400390625" font-family="Helvetica, Segoe UI Emoji" font-size="20px" fill="#1e1e1e" text-anchor="start" style="white-space: pre;" direction="ltr" dominant-baseline="alphabetic">B</text></g><g transform="translate(529.2912591772565 503.86850247976986) rotate(0 5 11.5)"><text x="0" y="18.400390625" font-family="Helvetica, Segoe UI Emoji" font-size="20px" fill="#1e1e1e" text-anchor="start" style="white-space: pre;" direction="ltr" dominant-baseline="alphabetic">x</text></g><g stroke-linecap="round"><g transform="translate(95.9024432191161 421.5969765414012) rotate(0 23.370150313434266 -24.35253151820119)"><path d="M0 0 C7.58 -0.15, 37.71 4.21, 45.5 -0.91 C53.29 -6.04, 48.69 -22.8, 46.74 -30.76 C44.79 -38.73, 39.36 -45.77, 33.81 -48.71 C28.25 -51.64, 18.99 -51.02, 13.41 -48.38 C7.83 -45.74, 2.56 -40.94, 0.33 -32.88 C-1.91 -24.82, 0.05 -5.48, 0 0 M0 0 C7.58 -0.15, 37.71 4.21, 45.5 -0.91 C53.29 -6.04, 48.69 -22.8, 46.74 -30.76 C44.79 -38.73, 39.36 -45.77, 33.81 -48.71 C28.25 -51.64, 18.99 -51.02, 13.41 -48.38 C7.83 -45.74, 2.56 -40.94, 0.33 -32.88 C-1.91 -24.82, 0.05 -5.48, 0 0" stroke="#1e1e1e" stroke-width="2" fill="none"/></g></g><mask/><g stroke-linecap="round"><g transform="translate(183.12644536429056 422.96106138934306) rotate(0 23.370150313434262 -24.35253151820119)"><path d="M0 0 C7.58 -0.15, 37.71 4.21, 45.5 -0.91 C53.29 -6.04, 48.69 -22.8, 46.74 -30.76 C44.79 -38.73, 39.36 -45.77, 33.81 -48.71 C28.25 -51.64, 18.99 -51.02, 13.41 -48.38 C7.83 -45.74, 2.56 -40.94, 0.33 -32.88 C-1.91 -24.82, 0.05 -5.48, 0 0 M0 0 C7.58 -0.15, 37.71 4.21, 45.5 -0.91 C53.29 -6.04, 48.69 -22.8, 46.74 -30.76 C44.79 -38.73, 39.36 -45.77, 33.81 -48.71 C28.25 -51.64, 18.99 -51.02, 13.41 -48.38 C7.83 -45.74, 2.56 -40.94, 0.33 -32.88 C-1.91 -24.82, 0.05 -5.48, 0 0" stroke="#1e1e1e" stroke-width="2" fill="none"/></g></g><mask/><g stroke-linecap="round"><g transform="translate(495.4134047138533 483.87804325561365) rotate(0 -191.40916524073083 -30.610047488768984)"><path d="M0 0 C-99.51 0, -199.03 0, -382.82 0 M0 0 C-100.44 0, -200.88 0, -382.82 0 M-382.82 0 C-382.82 -20.98, -382.82 -41.95, -382.82 -61.22 M-382.82 0 C-382.82 -18.25, -382.82 -36.51, -382.82 -61.22" stroke="#1e1e1e" stroke-width="2" fill="none"/></g></g><mask/><g stroke-linecap="round"><g transform="translate(118.25165989189503 370.67600869371836) rotate(0 1.7763568394002505e-15 -30.84952742508895)"><path d="M0 0 C0 -13.32, 0 -26.63, 0 -61.7 M0 0 C0 -21.24, 0 -42.47, 0 -61.7" stroke="#1e1e1e" stroke-width="2" fill="none"/></g></g><mask/><g stroke-linecap="round"><g transform="translate(130.5557300004648 424.58045562439264) rotate(0 148.60658114377782 -140.1020071806253)"><path d="M0 0 C0 11.72, 0 23.44, 0 31.78 M0 0 C0 11.15, 0 22.3, 0 31.78 M0 31.78 C32.07 31.78, 64.14 31.78, 133.86 31.78 M0 31.78 C48.57 31.78, 97.14 31.78, 133.86 31.78 M133.86 31.78 C133.86 -63.26, 133.86 -158.3, 133.86 -311.98 M133.86 31.78 C133.86 -51.51, 133.86 -134.8, 133.86 -311.98 M133.86 -311.98 C171.74 -311.98, 209.61 -311.98, 297.21 -311.98 M133.86 -311.98 C192.44 -311.98, 251.02 -311.98, 297.21 -311.98" stroke="#1e1e1e" stroke-width="2" fill="none"/></g></g><mask/><g stroke-linecap="round" transform="translate(421.27619042141146 105.33600147864044) rotate(0 6.964878422786057 6.964878422786057)"><path d="M13.93 6.96 C13.93 7.37, 13.89 7.78, 13.82 8.17 C13.75 8.57, 13.65 8.97, 13.51 9.35 C13.37 9.73, 13.2 10.1, 13 10.45 C12.8 10.8, 12.56 11.13, 12.3 11.44 C12.04 11.75, 11.75 12.04, 11.44 12.3 C11.13 12.56, 10.8 12.8, 10.45 13 C10.1 13.2, 9.73 13.37, 9.35 13.51 C8.97 13.65, 8.57 13.75, 8.17 13.82 C7.78 13.89, 7.37 13.93, 6.96 13.93 C6.56 13.93, 6.15 13.89, 5.76 13.82 C5.36 13.75, 4.96 13.65, 4.58 13.51 C4.2 13.37, 3.83 13.2, 3.48 13 C3.13 12.8, 2.8 12.56, 2.49 12.3 C2.18 12.04, 1.89 11.75, 1.63 11.44 C1.37 11.13, 1.13 10.8, 0.93 10.45 C0.73 10.1, 0.56 9.73, 0.42 9.35 C0.28 8.97, 0.18 8.57, 0.11 8.17 C0.04 7.78, 0 7.37, 0 6.96 C0 6.56, 0.04 6.15, 0.11 5.76 C0.18 5.36, 0.28 4.96, 0.42 4.58 C0.56 4.2, 0.73 3.83, 0.93 3.48 C1.13 3.13, 1.37 2.8, 1.63 2.49 C1.89 2.18, 2.18 1.89, 2.49 1.63 C2.8 1.37, 3.13 1.13, 3.48 0.93 C3.83 0.73, 4.2 0.56, 4.58 0.42 C4.96 0.28, 5.36 0.18, 5.76 0.11 C6.15 0.04, 6.56 0, 6.96 0 C7.37 0, 7.78 0.04, 8.17 0.11 C8.57 0.18, 8.97 0.28, 9.35 0.42 C9.73 0.56, 10.1 0.73, 10.45 0.93 C10.8 1.13, 11.13 1.37, 11.44 1.63 C11.75 1.89, 12.04 2.18, 12.3 2.49 C12.56 2.8, 12.8 3.13, 13 3.48 C13.2 3.83, 13.37 4.2, 13.51 4.58 C13.65 4.96, 13.75 5.36, 13.82 5.76 C13.89 6.15, 13.91 6.76, 13.93 6.96 C13.95 7.17, 13.95 6.76, 13.93 6.96" stroke="none" stroke-width="0" fill="#1e1e1e"/><path d="M13.93 6.96 C13.93 7.37, 13.89 7.78, 13.82 8.17 C13.75 8.57, 13.65 8.97, 13.51 9.35 C13.37 9.73, 13.2 10.1, 13 10.45 C12.8 10.8, 12.56 11.13, 12.3 11.44 C12.04 11.75, 11.75 12.04, 11.44 12.3 C11.13 12.56, 10.8 12.8, 10.45 13 C10.1 13.2, 9.73 13.37, 9.35 13.51 C8.97 13.65, 8.57 13.75, 8.17 13.82 C7.78 13.89, 7.37 13.93, 6.96 13.93 C6.56 13.93, 6.15 13.89, 5.76 13.82 C5.36 13.75, 4.96 13.65, 4.58 13.51 C4.2 13.37, 3.83 13.2, 3.48 13 C3.13 12.8, 2.8 12.56, 2.49 12.3 C2.18 12.04, 1.89 11.75, 1.63 11.44 C1.37 11.13, 1.13 10.8, 0.93 10.45 C0.73 10.1, 0.56 9.73, 0.42 9.35 C0.28 8.97, 0.18 8.57, 0.11 8.17 C0.04 7.78, 0 7.37, 0 6.96 C0 6.56, 0.04 6.15, 0.11 5.76 C0.18 5.36, 0.28 4.96, 0.42 4.58 C0.56 4.2, 0.73 3.83, 0.93 3.48 C1.13 3.13, 1.37 2.8, 1.63 2.49 C1.89 2.18, 2.18 1.89, 2.49 1.63 C2.8 1.37, 3.13 1.13, 3.48 0.93 C3.83 0.73, 4.2 0.56, 4.58 0.42 C4.96 0.28, 5.36 0.18, 5.76 0.11 C6.15 0.04, 6.56 0, 6.96 0 C7.37 0, 7.78 0.04, 8.17 0.11 C8.57 0.18, 8.97 0.28, 9.35 0.42 C9.73 0.56, 10.1 0.73, 10.45 0.93 C10.8 1.13, 11.13 1.37, 11.44 1.63 C11.75 1.89, 12.04 2.18, 12.3 2.49 C12.56 2.8, 12.8 3.13, 13 3.48 C13.2 3.83, 13.37 4.2, 13.51 4.58 C13.65 4.96, 13.75 5.36, 13.82 5.76 C13.89 6.15, 13.91 6.76, 13.93 6.96 C13.95 7.17, 13.95 6.76, 13.93 6.96" stroke="#1e1e1e" stroke-width="2" fill="none"/></g><g stroke-linecap="round"><g transform="translate(509.64415703018483 515.8667806538529) rotate(0 -29.458240353353347 0)"><path d="M0 0 C-22.47 0, -44.93 0, -58.92 0 M0 0 C-23.08 0, -46.15 0, -58.92 0" stroke="#1e1e1e" stroke-width="2" fill="none"/></g></g><mask/><g stroke-linecap="round"><g transform="translate(451.48654181203983 506.36551917743753) rotate(0 -9.00785786618735 10.091496604224773)"><path d="M0 0 C0 5.06, 0 10.12, 0 20.18 M0 0 C0 5.13, 0 10.26, 0 20.18 M0 20.18 C-6.75 16.28, -13.5 12.39, -18.02 9.78 M0 20.18 C-4.47 17.6, -8.93 15.03, -18.02 9.78 M-18.02 9.78 C-13.98 7.59, -9.94 5.4, 0 0 M-18.02 9.78 C-11.65 6.33, -5.29 2.87, 0 0" stroke="#1e1e1e" stroke-width="2" fill="none"/></g></g><mask/><g stroke-linecap="round" transform="translate(422.8955111514055 512.0349177628859) rotate(0 4.389335047393075 4.389335047393075)"><path d="M8.78 4.39 C8.78 4.64, 8.76 4.9, 8.71 5.15 C8.67 5.4, 8.6 5.65, 8.51 5.89 C8.43 6.13, 8.32 6.36, 8.19 6.58 C8.06 6.8, 7.92 7.02, 7.75 7.21 C7.59 7.41, 7.41 7.59, 7.21 7.75 C7.02 7.92, 6.8 8.06, 6.58 8.19 C6.36 8.32, 6.13 8.43, 5.89 8.51 C5.65 8.6, 5.4 8.67, 5.15 8.71 C4.9 8.76, 4.64 8.78, 4.39 8.78 C4.14 8.78, 3.88 8.76, 3.63 8.71 C3.38 8.67, 3.13 8.6, 2.89 8.51 C2.65 8.43, 2.41 8.32, 2.19 8.19 C1.97 8.06, 1.76 7.92, 1.57 7.75 C1.37 7.59, 1.19 7.41, 1.03 7.21 C0.86 7.02, 0.72 6.8, 0.59 6.58 C0.46 6.36, 0.35 6.13, 0.26 5.89 C0.18 5.65, 0.11 5.4, 0.07 5.15 C0.02 4.9, 0 4.64, 0 4.39 C0 4.14, 0.02 3.88, 0.07 3.63 C0.11 3.38, 0.18 3.13, 0.26 2.89 C0.35 2.65, 0.46 2.41, 0.59 2.19 C0.72 1.97, 0.86 1.76, 1.03 1.57 C1.19 1.37, 1.37 1.19, 1.57 1.03 C1.76 0.86, 1.97 0.72, 2.19 0.59 C2.41 0.46, 2.65 0.35, 2.89 0.26 C3.13 0.18, 3.38 0.11, 3.63 0.07 C3.88 0.02, 4.14 0, 4.39 0 C4.64 0, 4.9 0.02, 5.15 0.07 C5.4 0.11, 5.65 0.18, 5.89 0.26 C6.13 0.35, 6.36 0.46, 6.58 0.59 C6.8 0.72, 7.02 0.86, 7.21 1.03 C7.41 1.19, 7.59 1.37, 7.75 1.57 C7.92 1.76, 8.06 1.97, 8.19 2.19 C8.32 2.41, 8.43 2.65, 8.51 2.89 C8.6 3.13, 8.67 3.38, 8.71 3.63 C8.76 3.88, 8.77 4.26, 8.78 4.39 C8.79 4.52, 8.79 4.26, 8.78 4.39" stroke="#1e1e1e" stroke-width="2" fill="none"/></g><g stroke-linecap="round" transform="translate(489.149907722861 510.3646666313) rotate(0 5.143700563816992 5.143700563816992)"><path d="M10.29 5.14 C10.29 5.44, 10.26 5.74, 10.21 6.04 C10.16 6.33, 10.08 6.62, 9.98 6.9 C9.88 7.18, 9.75 7.46, 9.6 7.72 C9.45 7.97, 9.28 8.22, 9.08 8.45 C8.89 8.68, 8.68 8.89, 8.45 9.08 C8.22 9.28, 7.97 9.45, 7.72 9.6 C7.46 9.75, 7.18 9.88, 6.9 9.98 C6.62 10.08, 6.33 10.16, 6.04 10.21 C5.74 10.26, 5.44 10.29, 5.14 10.29 C4.85 10.29, 4.54 10.26, 4.25 10.21 C3.96 10.16, 3.66 10.08, 3.38 9.98 C3.1 9.88, 2.83 9.75, 2.57 9.6 C2.31 9.45, 2.07 9.28, 1.84 9.08 C1.61 8.89, 1.39 8.68, 1.2 8.45 C1.01 8.22, 0.84 7.97, 0.69 7.72 C0.54 7.46, 0.41 7.18, 0.31 6.9 C0.21 6.62, 0.13 6.33, 0.08 6.04 C0.03 5.74, 0 5.44, 0 5.14 C0 4.85, 0.03 4.54, 0.08 4.25 C0.13 3.96, 0.21 3.66, 0.31 3.38 C0.41 3.1, 0.54 2.83, 0.69 2.57 C0.84 2.31, 1.01 2.07, 1.2 1.84 C1.39 1.61, 1.61 1.39, 1.84 1.2 C2.07 1.01, 2.31 0.84, 2.57 0.69 C2.83 0.54, 3.1 0.41, 3.38 0.31 C3.66 0.21, 3.96 0.13, 4.25 0.08 C4.54 0.03, 4.85 0, 5.14 0 C5.44 0, 5.74 0.03, 6.04 0.08 C6.33 0.13, 6.62 0.21, 6.9 0.31 C7.18 0.41, 7.46 0.54, 7.72 0.69 C7.97 0.84, 8.22 1.01, 8.45 1.2 C8.68 1.39, 8.89 1.61, 9.08 1.84 C9.28 2.07, 9.45 2.31, 9.6 2.57 C9.75 2.83, 9.88 3.1, 9.98 3.38 C10.08 3.66, 10.16 3.96, 10.21 4.25 C10.26 4.54, 10.27 4.99, 10.29 5.14 C10.3 5.29, 10.3 4.99, 10.29 5.14" stroke="none" stroke-width="0" fill="#1e1e1e"/><path d="M10.29 5.14 C10.29 5.44, 10.26 5.74, 10.21 6.04 C10.16 6.33, 10.08 6.62, 9.98 6.9 C9.88 7.18, 9.75 7.46, 9.6 7.72 C9.45 7.97, 9.28 8.22, 9.08 8.45 C8.89 8.68, 8.68 8.89, 8.45 9.08 C8.22 9.28, 7.97 9.45, 7.72 9.6 C7.46 9.75, 7.18 9.88, 6.9 9.98 C6.62 10.08, 6.33 10.16, 6.04 10.21 C5.74 10.26, 5.44 10.29, 5.14 10.29 C4.85 10.29, 4.54 10.26, 4.25 10.21 C3.96 10.16, 3.66 10.08, 3.38 9.98 C3.1 9.88, 2.83 9.75, 2.57 9.6 C2.31 9.45, 2.07 9.28, 1.84 9.08 C1.61 8.89, 1.39 8.68, 1.2 8.45 C1.01 8.22, 0.84 7.97, 0.69 7.72 C0.54 7.46, 0.41 7.18, 0.31 6.9 C0.21 6.62, 0.13 6.33, 0.08 6.04 C0.03 5.74, 0 5.44, 0 5.14 C0 4.85, 0.03 4.54, 0.08 4.25 C0.13 3.96, 0.21 3.66, 0.31 3.38 C0.41 3.1, 0.54 2.83, 0.69 2.57 C0.84 2.31, 1.01 2.07, 1.2 1.84 C1.39 1.61, 1.61 1.39, 1.84 1.2 C2.07 1.01, 2.31 0.84, 2.57 0.69 C2.83 0.54, 3.1 0.41, 3.38 0.31 C3.66 0.21, 3.96 0.13, 4.25 0.08 C4.54 0.03, 4.85 0, 5.14 0 C5.44 0, 5.74 0.03, 6.04 0.08 C6.33 0.13, 6.62 0.21, 6.9 0.31 C7.18 0.41, 7.46 0.54, 7.72 0.69 C7.97 0.84, 8.22 1.01, 8.45 1.2 C8.68 1.39, 8.89 1.61, 9.08 1.84 C9.28 2.07, 9.45 2.31, 9.6 2.57 C9.75 2.83, 9.88 3.1, 9.98 3.38 C10.08 3.66, 10.16 3.96, 10.21 4.25 C10.26 4.54, 10.27 4.99, 10.29 5.14 C10.3 5.29, 10.3 4.99, 10.29 5.14" stroke="#1e1e1e" stroke-width="2" fill="none"/></g><g stroke-linecap="round"><g transform="translate(496.17051308215656 513.080087462073) rotate(0 0.04029469460635937 -14.802242264086203)"><path d="M0 0 C0.02 -6.35, 0.03 -12.7, 0.08 -29.6 M0 0 C0.02 -6.13, 0.03 -12.26, 0.08 -29.6" stroke="#1e1e1e" stroke-width="2" fill="none"/></g></g><mask/><g stroke-linecap="round"><g transform="translate(423.72990494667164 517.9786893527945) rotate(0 -109.57678533215254 -47.27199696848726)"><path d="M0 0 C-68.26 0, -136.52 0, -219.15 0 M0 0 C-52.33 0, -104.66 0, -219.15 0 M-219.15 0 C-219.15 -33.05, -219.15 -66.1, -219.15 -94.54 M-219.15 0 C-219.15 -21.68, -219.15 -43.36, -219.15 -94.54" stroke="#1e1e1e" stroke-width="2" fill="none"/></g></g><mask/><g stroke-linecap="round"><g transform="translate(220.81686255149904 424.44407751570884) rotate(0 0 16.66298778306347)"><path d="M0 0 C0 10.13, 0 20.26, 0 33.33 M0 0 C0 9.78, 0 19.56, 0 33.33" stroke="#1e1e1e" stroke-width="2" fill="none"/></g></g><mask/><g stroke-linecap="round" transform="translate(215.61509346887948 450.6107898145249) rotate(0 5.143700563816992 5.143700563816992)"><path d="M10.29 5.14 C10.29 5.44, 10.26 5.74, 10.21 6.04 C10.16 6.33, 10.08 6.62, 9.98 6.9 C9.88 7.18, 9.75 7.46, 9.6 7.72 C9.45 7.97, 9.28 8.22, 9.08 8.45 C8.89 8.68, 8.68 8.89, 8.45 9.08 C8.22 9.28, 7.97 9.45, 7.72 9.6 C7.46 9.75, 7.18 9.88, 6.9 9.98 C6.62 10.08, 6.33 10.16, 6.04 10.21 C5.74 10.26, 5.44 10.29, 5.14 10.29 C4.85 10.29, 4.54 10.26, 4.25 10.21 C3.96 10.16, 3.66 10.08, 3.38 9.98 C3.1 9.88, 2.83 9.75, 2.57 9.6 C2.31 9.45, 2.07 9.28, 1.84 9.08 C1.61 8.89, 1.39 8.68, 1.2 8.45 C1.01 8.22, 0.84 7.97, 0.69 7.72 C0.54 7.46, 0.41 7.18, 0.31 6.9 C0.21 6.62, 0.13 6.33, 0.08 6.04 C0.03 5.74, 0 5.44, 0 5.14 C0 4.85, 0.03 4.54, 0.08 4.25 C0.13 3.96, 0.21 3.66, 0.31 3.38 C0.41 3.1, 0.54 2.83, 0.69 2.57 C0.84 2.31, 1.01 2.07, 1.2 1.84 C1.39 1.61, 1.61 1.39, 1.84 1.2 C2.07 1.01, 2.31 0.84, 2.57 0.69 C2.83 0.54, 3.1 0.41, 3.38 0.31 C3.66 0.21, 3.96 0.13, 4.25 0.08 C4.54 0.03, 4.85 0, 5.14 0 C5.44 0, 5.74 0.03, 6.04 0.08 C6.33 0.13, 6.62 0.21, 6.9 0.31 C7.18 0.41, 7.46 0.54, 7.72 0.69 C7.97 0.84, 8.22 1.01, 8.45 1.2 C8.68 1.39, 8.89 1.61, 9.08 1.84 C9.28 2.07, 9.45 2.31, 9.6 2.57 C9.75 2.83, 9.88 3.1, 9.98 3.38 C10.08 3.66, 10.16 3.96, 10.21 4.25 C10.26 4.54, 10.27 4.99, 10.29 5.14 C10.3 5.29, 10.3 4.99, 10.29 5.14" stroke="none" stroke-width="0" fill="#1e1e1e"/><path d="M10.29 5.14 C10.29 5.44, 10.26 5.74, 10.21 6.04 C10.16 6.33, 10.08 6.62, 9.98 6.9 C9.88 7.18, 9.75 7.46, 9.6 7.72 C9.45 7.97, 9.28 8.22, 9.08 8.45 C8.89 8.68, 8.68 8.89, 8.45 9.08 C8.22 9.28, 7.97 9.45, 7.72 9.6 C7.46 9.75, 7.18 9.88, 6.9 9.98 C6.62 10.08, 6.33 10.16, 6.04 10.21 C5.74 10.26, 5.44 10.29, 5.14 10.29 C4.85 10.29, 4.54 10.26, 4.25 10.21 C3.96 10.16, 3.66 10.08, 3.38 9.98 C3.1 9.88, 2.83 9.75, 2.57 9.6 C2.31 9.45, 2.07 9.28, 1.84 9.08 C1.61 8.89, 1.39 8.68, 1.2 8.45 C1.01 8.22, 0.84 7.97, 0.69 7.72 C0.54 7.46, 0.41 7.18, 0.31 6.9 C0.21 6.62, 0.13 6.33, 0.08 6.04 C0.03 5.74, 0 5.44, 0 5.14 C0 4.85, 0.03 4.54, 0.08 4.25 C0.13 3.96, 0.21 3.66, 0.31 3.38 C0.41 3.1, 0.54 2.83, 0.69 2.57 C0.84 2.31, 1.01 2.07, 1.2 1.84 C1.39 1.61, 1.61 1.39, 1.84 1.2 C2.07 1.01, 2.31 0.84, 2.57 0.69 C2.83 0.54, 3.1 0.41, 3.38 0.31 C3.66 0.21, 3.96 0.13, 4.25 0.08 C4.54 0.03, 4.85 0, 5.14 0 C5.44 0, 5.74 0.03, 6.04 0.08 C6.33 0.13, 6.62 0.21, 6.9 0.31 C7.18 0.41, 7.46 0.54, 7.72 0.69 C7.97 0.84, 8.22 1.01, 8.45 1.2 C8.68 1.39, 8.89 1.61, 9.08 1.84 C9.28 2.07, 9.45 2.31, 9.6 2.57 C9.75 2.83, 9.88 3.1, 9.98 3.38 C10.08 3.66, 10.16 3.96, 10.21 4.25 C10.26 4.54, 10.27 4.99, 10.29 5.14 C10.3 5.29, 10.3 4.99, 10.29 5.14" stroke="#1e1e1e" stroke-width="2" fill="none"/></g><g stroke-linecap="round"><g transform="translate(206.43386450550707 372.54277211907095) rotate(0 0 -32.93092196434941)"><path d="M0 0 C0 -25.13, 0 -50.26, 0 -65.86 M0 0 C0 -22.46, 0 -44.93, 0 -65.86" stroke="#1e1e1e" stroke-width="2" fill="none"/></g></g><mask/><g stroke-linecap="round"><g transform="translate(164.7554559909668 310.373410651604) rotate(0 203.68860486992105 19.73468547183188)"><path d="M0 0 C0 8.7, 0 17.4, 0 39.47 M0 0 C0 11.82, 0 23.65, 0 39.47 M0 39.47 C87.59 39.47, 175.18 39.47, 407.38 39.47 M0 39.47 C98.31 39.47, 196.62 39.47, 407.38 39.47" stroke="#1e1e1e" stroke-width="2" fill="none"/></g></g><mask/><g transform="translate(580.4740144671375 336.34980523051667) rotate(0 13.8916015625 11.5)"><text x="0" y="18.400390625" font-family="Helvetica, Segoe UI Emoji" font-size="20px" fill="#1e1e1e" text-anchor="start" style="white-space: pre;" direction="ltr" dominant-baseline="alphabetic">CP</text></g><g stroke-linecap="round"><g transform="translate(386.93394000456516 308.89642717066124) rotate(0 0 22.430690331607934)"><path d="M0 0 C0 12.12, 0 24.25, 0 44.86 M0 0 C0 12.4, 0 24.79, 0 44.86" stroke="#1e1e1e" stroke-width="2" fill="none"/></g></g><mask/><g stroke-linecap="round" transform="translate(380.46802147554234 345.1344395979554) rotate(0 5.143700563816992 5.143700563816992)"><path d="M10.29 5.14 C10.29 5.44, 10.26 5.74, 10.21 6.04 C10.16 6.33, 10.08 6.62, 9.98 6.9 C9.88 7.18, 9.75 7.46, 9.6 7.72 C9.45 7.97, 9.28 8.22, 9.08 8.45 C8.89 8.68, 8.68 8.89, 8.45 9.08 C8.22 9.28, 7.97 9.45, 7.72 9.6 C7.46 9.75, 7.18 9.88, 6.9 9.98 C6.62 10.08, 6.33 10.16, 6.04 10.21 C5.74 10.26, 5.44 10.29, 5.14 10.29 C4.85 10.29, 4.54 10.26, 4.25 10.21 C3.96 10.16, 3.66 10.08, 3.38 9.98 C3.1 9.88, 2.83 9.75, 2.57 9.6 C2.31 9.45, 2.07 9.28, 1.84 9.08 C1.61 8.89, 1.39 8.68, 1.2 8.45 C1.01 8.22, 0.84 7.97, 0.69 7.72 C0.54 7.46, 0.41 7.18, 0.31 6.9 C0.21 6.62, 0.13 6.33, 0.08 6.04 C0.03 5.74, 0 5.44, 0 5.14 C0 4.85, 0.03 4.54, 0.08 4.25 C0.13 3.96, 0.21 3.66, 0.31 3.38 C0.41 3.1, 0.54 2.83, 0.69 2.57 C0.84 2.31, 1.01 2.07, 1.2 1.84 C1.39 1.61, 1.61 1.39, 1.84 1.2 C2.07 1.01, 2.31 0.84, 2.57 0.69 C2.83 0.54, 3.1 0.41, 3.38 0.31 C3.66 0.21, 3.96 0.13, 4.25 0.08 C4.54 0.03, 4.85 0, 5.14 0 C5.44 0, 5.74 0.03, 6.04 0.08 C6.33 0.13, 6.62 0.21, 6.9 0.31 C7.18 0.41, 7.46 0.54, 7.72 0.69 C7.97 0.84, 8.22 1.01, 8.45 1.2 C8.68 1.39, 8.89 1.61, 9.08 1.84 C9.28 2.07, 9.45 2.31, 9.6 2.57 C9.75 2.83, 9.88 3.1, 9.98 3.38 C10.08 3.66, 10.16 3.96, 10.21 4.25 C10.26 4.54, 10.27 4.99, 10.29 5.14 C10.3 5.29, 10.3 4.99, 10.29 5.14" stroke="none" stroke-width="0" fill="#1e1e1e"/><path d="M10.29 5.14 C10.29 5.44, 10.26 5.74, 10.21 6.04 C10.16 6.33, 10.08 6.62, 9.98 6.9 C9.88 7.18, 9.75 7.46, 9.6 7.72 C9.45 7.97, 9.28 8.22, 9.08 8.45 C8.89 8.68, 8.68 8.89, 8.45 9.08 C8.22 9.28, 7.97 9.45, 7.72 9.6 C7.46 9.75, 7.18 9.88, 6.9 9.98 C6.62 10.08, 6.33 10.16, 6.04 10.21 C5.74 10.26, 5.44 10.29, 5.14 10.29 C4.85 10.29, 4.54 10.26, 4.25 10.21 C3.96 10.16, 3.66 10.08, 3.38 9.98 C3.1 9.88, 2.83 9.75, 2.57 9.6 C2.31 9.45, 2.07 9.28, 1.84 9.08 C1.61 8.89, 1.39 8.68, 1.2 8.45 C1.01 8.22, 0.84 7.97, 0.69 7.72 C0.54 7.46, 0.41 7.18, 0.31 6.9 C0.21 6.62, 0.13 6.33, 0.08 6.04 C0.03 5.74, 0 5.44, 0 5.14 C0 4.85, 0.03 4.54, 0.08 4.25 C0.13 3.96, 0.21 3.66, 0.31 3.38 C0.41 3.1, 0.54 2.83, 0.69 2.57 C0.84 2.31, 1.01 2.07, 1.2 1.84 C1.39 1.61, 1.61 1.39, 1.84 1.2 C2.07 1.01, 2.31 0.84, 2.57 0.69 C2.83 0.54, 3.1 0.41, 3.38 0.31 C3.66 0.21, 3.96 0.13, 4.25 0.08 C4.54 0.03, 4.85 0, 5.14 0 C5.44 0, 5.74 0.03, 6.04 0.08 C6.33 0.13, 6.62 0.21, 6.9 0.31 C7.18 0.41, 7.46 0.54, 7.72 0.69 C7.97 0.84, 8.22 1.01, 8.45 1.2 C8.68 1.39, 8.89 1.61, 9.08 1.84 C9.28 2.07, 9.45 2.31, 9.6 2.57 C9.75 2.83, 9.88 3.1, 9.98 3.38 C10.08 3.66, 10.16 3.96, 10.21 4.25 C10.26 4.54, 10.27 4.99, 10.29 5.14 C10.3 5.29, 10.3 4.99, 10.29 5.14" stroke="#1e1e1e" stroke-width="2" fill="none"/></g><g stroke-linecap="round"><g transform="translate(317.6995943788198 419.11952532506996) rotate(0 23.003253248742823 -23.536407970431327)"><path d="M0 0 C4.23 -1.07, 17.68 -6.13, 25.39 -6.45 C33.1 -6.77, 42.79 3.25, 46.27 -1.94 C49.74 -7.13, 50.41 -30.05, 46.24 -37.58 C42.07 -45.1, 28.97 -47.66, 21.22 -47.07 C13.47 -46.48, 3.28 -41.88, -0.26 -34.03 C-3.8 -26.19, -0.04 -5.67, 0 0 M0 0 C4.23 -1.07, 17.68 -6.13, 25.39 -6.45 C33.1 -6.77, 42.79 3.25, 46.27 -1.94 C49.74 -7.13, 50.41 -30.05, 46.24 -37.58 C42.07 -45.1, 28.97 -47.66, 21.22 -47.07 C13.47 -46.48, 3.28 -41.88, -0.26 -34.03 C-3.8 -26.19, -0.04 -5.67, 0 0" stroke="#1e1e1e" stroke-width="2" fill="none"/></g></g><mask/><g stroke-linecap="round"><g transform="translate(319.23146227555713 423.91794995286125) rotate(0 20.804312686582506 -1.85105167049457)"><path d="M0 0 C4.03 -0.91, 17.23 -5.76, 24.17 -5.46 C31.1 -5.17, 38.7 0.56, 41.61 1.76 M0 0 C4.03 -0.91, 17.23 -5.76, 24.17 -5.46 C31.1 -5.17, 38.7 0.56, 41.61 1.76" stroke="#1e1e1e" stroke-width="2" fill="none"/></g></g><mask/><g stroke-linecap="round" transform="translate(336.7955669587179 361.826659165796) rotate(0 4.640696431403725 4.640696431403725)"><path d="M9.28 4.64 C9.28 4.91, 9.26 5.18, 9.21 5.45 C9.16 5.71, 9.09 5.98, 9 6.23 C8.91 6.48, 8.79 6.73, 8.66 6.96 C8.53 7.19, 8.37 7.42, 8.2 7.62 C8.02 7.83, 7.83 8.02, 7.62 8.2 C7.42 8.37, 7.19 8.53, 6.96 8.66 C6.73 8.79, 6.48 8.91, 6.23 9 C5.98 9.09, 5.71 9.16, 5.45 9.21 C5.18 9.26, 4.91 9.28, 4.64 9.28 C4.37 9.28, 4.1 9.26, 3.83 9.21 C3.57 9.16, 3.31 9.09, 3.05 9 C2.8 8.91, 2.55 8.79, 2.32 8.66 C2.09 8.53, 1.86 8.37, 1.66 8.2 C1.45 8.02, 1.26 7.83, 1.09 7.62 C0.91 7.42, 0.76 7.19, 0.62 6.96 C0.49 6.73, 0.37 6.48, 0.28 6.23 C0.19 5.98, 0.12 5.71, 0.07 5.45 C0.02 5.18, 0 4.91, 0 4.64 C0 4.37, 0.02 4.1, 0.07 3.83 C0.12 3.57, 0.19 3.31, 0.28 3.05 C0.37 2.8, 0.49 2.55, 0.62 2.32 C0.76 2.09, 0.91 1.86, 1.09 1.66 C1.26 1.45, 1.45 1.26, 1.66 1.09 C1.86 0.91, 2.09 0.76, 2.32 0.62 C2.55 0.49, 2.8 0.37, 3.05 0.28 C3.31 0.19, 3.57 0.12, 3.83 0.07 C4.1 0.02, 4.37 0, 4.64 0 C4.91 0, 5.18 0.02, 5.45 0.07 C5.71 0.12, 5.98 0.19, 6.23 0.28 C6.48 0.37, 6.73 0.49, 6.96 0.62 C7.19 0.76, 7.42 0.91, 7.62 1.09 C7.83 1.26, 8.02 1.45, 8.2 1.66 C8.37 1.86, 8.53 2.09, 8.66 2.32 C8.79 2.55, 8.91 2.8, 9 3.05 C9.09 3.31, 9.16 3.57, 9.21 3.83 C9.26 4.1, 9.27 4.51, 9.28 4.64 C9.29 4.78, 9.29 4.51, 9.28 4.64" stroke="#1e1e1e" stroke-width="2" fill="none"/></g><g stroke-linecap="round"><g transform="translate(426.1252512376899 484.1369172917581) rotate(0 0 -87.10701915107774)"><path d="M0 0 C0 -29.04, 0 -145.18, 0 -174.21 M0 0 C0 -29.04, 0 -145.18, 0 -174.21" stroke="#1e1e1e" stroke-width="2" fill="none"/></g></g><mask/><g stroke-linecap="round" transform="translate(421.1342876072212 480.43245706509947) rotate(0 5.143700563816992 5.143700563816992)"><path d="M10.29 5.14 C10.29 5.44, 10.26 5.74, 10.21 6.04 C10.16 6.33, 10.08 6.62, 9.98 6.9 C9.88 7.18, 9.75 7.46, 9.6 7.72 C9.45 7.97, 9.28 8.22, 9.08 8.45 C8.89 8.68, 8.68 8.89, 8.45 9.08 C8.22 9.28, 7.97 9.45, 7.72 9.6 C7.46 9.75, 7.18 9.88, 6.9 9.98 C6.62 10.08, 6.33 10.16, 6.04 10.21 C5.74 10.26, 5.44 10.29, 5.14 10.29 C4.85 10.29, 4.54 10.26, 4.25 10.21 C3.96 10.16, 3.66 10.08, 3.38 9.98 C3.1 9.88, 2.83 9.75, 2.57 9.6 C2.31 9.45, 2.07 9.28, 1.84 9.08 C1.61 8.89, 1.39 8.68, 1.2 8.45 C1.01 8.22, 0.84 7.97, 0.69 7.72 C0.54 7.46, 0.41 7.18, 0.31 6.9 C0.21 6.62, 0.13 6.33, 0.08 6.04 C0.03 5.74, 0 5.44, 0 5.14 C0 4.85, 0.03 4.54, 0.08 4.25 C0.13 3.96, 0.21 3.66, 0.31 3.38 C0.41 3.1, 0.54 2.83, 0.69 2.57 C0.84 2.31, 1.01 2.07, 1.2 1.84 C1.39 1.61, 1.61 1.39, 1.84 1.2 C2.07 1.01, 2.31 0.84, 2.57 0.69 C2.83 0.54, 3.1 0.41, 3.38 0.31 C3.66 0.21, 3.96 0.13, 4.25 0.08 C4.54 0.03, 4.85 0, 5.14 0 C5.44 0, 5.74 0.03, 6.04 0.08 C6.33 0.13, 6.62 0.21, 6.9 0.31 C7.18 0.41, 7.46 0.54, 7.72 0.69 C7.97 0.84, 8.22 1.01, 8.45 1.2 C8.68 1.39, 8.89 1.61, 9.08 1.84 C9.28 2.07, 9.45 2.31, 9.6 2.57 C9.75 2.83, 9.88 3.1, 9.98 3.38 C10.08 3.66, 10.16 3.96, 10.21 4.25 C10.26 4.54, 10.27 4.99, 10.29 5.14 C10.3 5.29, 10.3 4.99, 10.29 5.14" stroke="none" stroke-width="0" fill="#1e1e1e"/><path d="M10.29 5.14 C10.29 5.44, 10.26 5.74, 10.21 6.04 C10.16 6.33, 10.08 6.62, 9.98 6.9 C9.88 7.18, 9.75 7.46, 9.6 7.72 C9.45 7.97, 9.28 8.22, 9.08 8.45 C8.89 8.68, 8.68 8.89, 8.45 9.08 C8.22 9.28, 7.97 9.45, 7.72 9.6 C7.46 9.75, 7.18 9.88, 6.9 9.98 C6.62 10.08, 6.33 10.16, 6.04 10.21 C5.74 10.26, 5.44 10.29, 5.14 10.29 C4.85 10.29, 4.54 10.26, 4.25 10.21 C3.96 10.16, 3.66 10.08, 3.38 9.98 C3.1 9.88, 2.83 9.75, 2.57 9.6 C2.31 9.45, 2.07 9.28, 1.84 9.08 C1.61 8.89, 1.39 8.68, 1.2 8.45 C1.01 8.22, 0.84 7.97, 0.69 7.72 C0.54 7.46, 0.41 7.18, 0.31 6.9 C0.21 6.62, 0.13 6.33, 0.08 6.04 C0.03 5.74, 0 5.44, 0 5.14 C0 4.85, 0.03 4.54, 0.08 4.25 C0.13 3.96, 0.21 3.66, 0.31 3.38 C0.41 3.1, 0.54 2.83, 0.69 2.57 C0.84 2.31, 1.01 2.07, 1.2 1.84 C1.39 1.61, 1.61 1.39, 1.84 1.2 C2.07 1.01, 2.31 0.84, 2.57 0.69 C2.83 0.54, 3.1 0.41, 3.38 0.31 C3.66 0.21, 3.96 0.13, 4.25 0.08 C4.54 0.03, 4.85 0, 5.14 0 C5.44 0, 5.74 0.03, 6.04 0.08 C6.33 0.13, 6.62 0.21, 6.9 0.31 C7.18 0.41, 7.46 0.54, 7.72 0.69 C7.97 0.84, 8.22 1.01, 8.45 1.2 C8.68 1.39, 8.89 1.61, 9.08 1.84 C9.28 2.07, 9.45 2.31, 9.6 2.57 C9.75 2.83, 9.88 3.1, 9.98 3.38 C10.08 3.66, 10.16 3.96, 10.21 4.25 C10.26 4.54, 10.27 4.99, 10.29 5.14 C10.3 5.29, 10.3 4.99, 10.29 5.14" stroke="#1e1e1e" stroke-width="2" fill="none"/></g><g stroke-linecap="round"><g transform="translate(354.51231790904 484.40472976464514) rotate(0 0 -31.30096027994381)"><path d="M0 0 C0 -10.43, 0 -52.17, 0 -62.6 M0 0 C0 -10.43, 0 -52.17, 0 -62.6" stroke="#1e1e1e" stroke-width="2" fill="none"/></g></g><mask/><g stroke-linecap="round" transform="translate(349.46372982545677 478.945658494972) rotate(0 5.143700563816992 5.143700563816992)"><path d="M10.29 5.14 C10.29 5.44, 10.26 5.74, 10.21 6.04 C10.16 6.33, 10.08 6.62, 9.98 6.9 C9.88 7.18, 9.75 7.46, 9.6 7.72 C9.45 7.97, 9.28 8.22, 9.08 8.45 C8.89 8.68, 8.68 8.89, 8.45 9.08 C8.22 9.28, 7.97 9.45, 7.72 9.6 C7.46 9.75, 7.18 9.88, 6.9 9.98 C6.62 10.08, 6.33 10.16, 6.04 10.21 C5.74 10.26, 5.44 10.29, 5.14 10.29 C4.85 10.29, 4.54 10.26, 4.25 10.21 C3.96 10.16, 3.66 10.08, 3.38 9.98 C3.1 9.88, 2.83 9.75, 2.57 9.6 C2.31 9.45, 2.07 9.28, 1.84 9.08 C1.61 8.89, 1.39 8.68, 1.2 8.45 C1.01 8.22, 0.84 7.97, 0.69 7.72 C0.54 7.46, 0.41 7.18, 0.31 6.9 C0.21 6.62, 0.13 6.33, 0.08 6.04 C0.03 5.74, 0 5.44, 0 5.14 C0 4.85, 0.03 4.54, 0.08 4.25 C0.13 3.96, 0.21 3.66, 0.31 3.38 C0.41 3.1, 0.54 2.83, 0.69 2.57 C0.84 2.31, 1.01 2.07, 1.2 1.84 C1.39 1.61, 1.61 1.39, 1.84 1.2 C2.07 1.01, 2.31 0.84, 2.57 0.69 C2.83 0.54, 3.1 0.41, 3.38 0.31 C3.66 0.21, 3.96 0.13, 4.25 0.08 C4.54 0.03, 4.85 0, 5.14 0 C5.44 0, 5.74 0.03, 6.04 0.08 C6.33 0.13, 6.62 0.21, 6.9 0.31 C7.18 0.41, 7.46 0.54, 7.72 0.69 C7.97 0.84, 8.22 1.01, 8.45 1.2 C8.68 1.39, 8.89 1.61, 9.08 1.84 C9.28 2.07, 9.45 2.31, 9.6 2.57 C9.75 2.83, 9.88 3.1, 9.98 3.38 C10.08 3.66, 10.16 3.96, 10.21 4.25 C10.26 4.54, 10.27 4.99, 10.29 5.14 C10.3 5.29, 10.3 4.99, 10.29 5.14" stroke="none" stroke-width="0" fill="#1e1e1e"/><path d="M10.29 5.14 C10.29 5.44, 10.26 5.74, 10.21 6.04 C10.16 6.33, 10.08 6.62, 9.98 6.9 C9.88 7.18, 9.75 7.46, 9.6 7.72 C9.45 7.97, 9.28 8.22, 9.08 8.45 C8.89 8.68, 8.68 8.89, 8.45 9.08 C8.22 9.28, 7.97 9.45, 7.72 9.6 C7.46 9.75, 7.18 9.88, 6.9 9.98 C6.62 10.08, 6.33 10.16, 6.04 10.21 C5.74 10.26, 5.44 10.29, 5.14 10.29 C4.85 10.29, 4.54 10.26, 4.25 10.21 C3.96 10.16, 3.66 10.08, 3.38 9.98 C3.1 9.88, 2.83 9.75, 2.57 9.6 C2.31 9.45, 2.07 9.28, 1.84 9.08 C1.61 8.89, 1.39 8.68, 1.2 8.45 C1.01 8.22, 0.84 7.97, 0.69 7.72 C0.54 7.46, 0.41 7.18, 0.31 6.9 C0.21 6.62, 0.13 6.33, 0.08 6.04 C0.03 5.74, 0 5.44, 0 5.14 C0 4.85, 0.03 4.54, 0.08 4.25 C0.13 3.96, 0.21 3.66, 0.31 3.38 C0.41 3.1, 0.54 2.83, 0.69 2.57 C0.84 2.31, 1.01 2.07, 1.2 1.84 C1.39 1.61, 1.61 1.39, 1.84 1.2 C2.07 1.01, 2.31 0.84, 2.57 0.69 C2.83 0.54, 3.1 0.41, 3.38 0.31 C3.66 0.21, 3.96 0.13, 4.25 0.08 C4.54 0.03, 4.85 0, 5.14 0 C5.44 0, 5.74 0.03, 6.04 0.08 C6.33 0.13, 6.62 0.21, 6.9 0.31 C7.18 0.41, 7.46 0.54, 7.72 0.69 C7.97 0.84, 8.22 1.01, 8.45 1.2 C8.68 1.39, 8.89 1.61, 9.08 1.84 C9.28 2.07, 9.45 2.31, 9.6 2.57 C9.75 2.83, 9.88 3.1, 9.98 3.38 C10.08 3.66, 10.16 3.96, 10.21 4.25 C10.26 4.54, 10.27 4.99, 10.29 5.14 C10.3 5.29, 10.3 4.99, 10.29 5.14" stroke="#1e1e1e" stroke-width="2" fill="none"/></g><g stroke-linecap="round"><g transform="translate(207.1437881135399 133.4711133469225) rotate(0 62.98986808624635 157.7162644841015)"><path d="M0 0 C28.46 0, 56.93 0, 81.81 0 M0 0 C25.54 0, 51.07 0, 81.81 0 M81.81 0 C81.81 85.57, 81.81 171.14, 81.81 315.43 M81.81 0 C81.81 101.71, 81.81 203.41, 81.81 315.43 M81.81 315.43 C95.76 315.43, 109.7 315.43, 125.98 315.43 M81.81 315.43 C93.84 315.43, 105.86 315.43, 125.98 315.43 M125.98 315.43 C125.98 308.29, 125.98 301.14, 125.98 286.67 M125.98 315.43 C125.98 307.42, 125.98 299.41, 125.98 286.67" stroke="#1e1e1e" stroke-width="2" fill="none"/></g></g><mask/><g stroke-linecap="round" transform="translate(200.7610546991106 130.03701677184708) rotate(0 5.143700563816992 5.143700563816992)"><path d="M10.29 5.14 C10.29 5.44, 10.26 5.74, 10.21 6.04 C10.16 6.33, 10.08 6.62, 9.98 6.9 C9.88 7.18, 9.75 7.46, 9.6 7.72 C9.45 7.97, 9.28 8.22, 9.08 8.45 C8.89 8.68, 8.68 8.89, 8.45 9.08 C8.22 9.28, 7.97 9.45, 7.72 9.6 C7.46 9.75, 7.18 9.88, 6.9 9.98 C6.62 10.08, 6.33 10.16, 6.04 10.21 C5.74 10.26, 5.44 10.29, 5.14 10.29 C4.85 10.29, 4.54 10.26, 4.25 10.21 C3.96 10.16, 3.66 10.08, 3.38 9.98 C3.1 9.88, 2.83 9.75, 2.57 9.6 C2.31 9.45, 2.07 9.28, 1.84 9.08 C1.61 8.89, 1.39 8.68, 1.2 8.45 C1.01 8.22, 0.84 7.97, 0.69 7.72 C0.54 7.46, 0.41 7.18, 0.31 6.9 C0.21 6.62, 0.13 6.33, 0.08 6.04 C0.03 5.74, 0 5.44, 0 5.14 C0 4.85, 0.03 4.54, 0.08 4.25 C0.13 3.96, 0.21 3.66, 0.31 3.38 C0.41 3.1, 0.54 2.83, 0.69 2.57 C0.84 2.31, 1.01 2.07, 1.2 1.84 C1.39 1.61, 1.61 1.39, 1.84 1.2 C2.07 1.01, 2.31 0.84, 2.57 0.69 C2.83 0.54, 3.1 0.41, 3.38 0.31 C3.66 0.21, 3.96 0.13, 4.25 0.08 C4.54 0.03, 4.85 0, 5.14 0 C5.44 0, 5.74 0.03, 6.04 0.08 C6.33 0.13, 6.62 0.21, 6.9 0.31 C7.18 0.41, 7.46 0.54, 7.72 0.69 C7.97 0.84, 8.22 1.01, 8.45 1.2 C8.68 1.39, 8.89 1.61, 9.08 1.84 C9.28 2.07, 9.45 2.31, 9.6 2.57 C9.75 2.83, 9.88 3.1, 9.98 3.38 C10.08 3.66, 10.16 3.96, 10.21 4.25 C10.26 4.54, 10.27 4.99, 10.29 5.14 C10.3 5.29, 10.3 4.99, 10.29 5.14" stroke="none" stroke-width="0" fill="#1e1e1e"/><path d="M10.29 5.14 C10.29 5.44, 10.26 5.74, 10.21 6.04 C10.16 6.33, 10.08 6.62, 9.98 6.9 C9.88 7.18, 9.75 7.46, 9.6 7.72 C9.45 7.97, 9.28 8.22, 9.08 8.45 C8.89 8.68, 8.68 8.89, 8.45 9.08 C8.22 9.28, 7.97 9.45, 7.72 9.6 C7.46 9.75, 7.18 9.88, 6.9 9.98 C6.62 10.08, 6.33 10.16, 6.04 10.21 C5.74 10.26, 5.44 10.29, 5.14 10.29 C4.85 10.29, 4.54 10.26, 4.25 10.21 C3.96 10.16, 3.66 10.08, 3.38 9.98 C3.1 9.88, 2.83 9.75, 2.57 9.6 C2.31 9.45, 2.07 9.28, 1.84 9.08 C1.61 8.89, 1.39 8.68, 1.2 8.45 C1.01 8.22, 0.84 7.97, 0.69 7.72 C0.54 7.46, 0.41 7.18, 0.31 6.9 C0.21 6.62, 0.13 6.33, 0.08 6.04 C0.03 5.74, 0 5.44, 0 5.14 C0 4.85, 0.03 4.54, 0.08 4.25 C0.13 3.96, 0.21 3.66, 0.31 3.38 C0.41 3.1, 0.54 2.83, 0.69 2.57 C0.84 2.31, 1.01 2.07, 1.2 1.84 C1.39 1.61, 1.61 1.39, 1.84 1.2 C2.07 1.01, 2.31 0.84, 2.57 0.69 C2.83 0.54, 3.1 0.41, 3.38 0.31 C3.66 0.21, 3.96 0.13, 4.25 0.08 C4.54 0.03, 4.85 0, 5.14 0 C5.44 0, 5.74 0.03, 6.04 0.08 C6.33 0.13, 6.62 0.21, 6.9 0.31 C7.18 0.41, 7.46 0.54, 7.72 0.69 C7.97 0.84, 8.22 1.01, 8.45 1.2 C8.68 1.39, 8.89 1.61, 9.08 1.84 C9.28 2.07, 9.45 2.31, 9.6 2.57 C9.75 2.83, 9.88 3.1, 9.98 3.38 C10.08 3.66, 10.16 3.96, 10.21 4.25 C10.26 4.54, 10.27 4.99, 10.29 5.14 C10.3 5.29, 10.3 4.99, 10.29 5.14" stroke="#1e1e1e" stroke-width="2" fill="none"/></g><g stroke-linecap="round"><g transform="translate(342.03439906788617 308.36153459714757) rotate(0 0 26.582478295033745)"><path d="M0 0 C0 8.86, 0 44.3, 0 53.16 M0 0 C0 8.86, 0 44.3, 0 53.16" stroke="#1e1e1e" stroke-width="2" fill="none"/></g></g><mask/><g stroke-linecap="round" transform="translate(111.95320021086332 220.75065816000662) rotate(0 4.7405990800466355 4.7405990800466355)"><path d="M9.48 4.74 C9.48 5.01, 9.46 5.29, 9.41 5.56 C9.36 5.83, 9.29 6.1, 9.2 6.36 C9.1 6.62, 8.98 6.87, 8.85 7.11 C8.71 7.35, 8.55 7.58, 8.37 7.79 C8.2 8, 8 8.2, 7.79 8.37 C7.58 8.55, 7.35 8.71, 7.11 8.85 C6.87 8.98, 6.62 9.1, 6.36 9.2 C6.1 9.29, 5.83 9.36, 5.56 9.41 C5.29 9.46, 5.01 9.48, 4.74 9.48 C4.47 9.48, 4.19 9.46, 3.92 9.41 C3.65 9.36, 3.38 9.29, 3.12 9.2 C2.86 9.1, 2.61 8.98, 2.37 8.85 C2.13 8.71, 1.9 8.55, 1.69 8.37 C1.48 8.2, 1.29 8, 1.11 7.79 C0.93 7.58, 0.77 7.35, 0.64 7.11 C0.5 6.87, 0.38 6.62, 0.29 6.36 C0.19 6.1, 0.12 5.83, 0.07 5.56 C0.02 5.29, 0 5.01, 0 4.74 C0 4.47, 0.02 4.19, 0.07 3.92 C0.12 3.65, 0.19 3.38, 0.29 3.12 C0.38 2.86, 0.5 2.61, 0.64 2.37 C0.77 2.13, 0.93 1.9, 1.11 1.69 C1.29 1.48, 1.48 1.29, 1.69 1.11 C1.9 0.93, 2.13 0.77, 2.37 0.64 C2.61 0.5, 2.86 0.38, 3.12 0.29 C3.38 0.19, 3.65 0.12, 3.92 0.07 C4.19 0.02, 4.47 0, 4.74 0 C5.01 0, 5.29 0.02, 5.56 0.07 C5.83 0.12, 6.1 0.19, 6.36 0.29 C6.62 0.38, 6.87 0.5, 7.11 0.64 C7.35 0.77, 7.58 0.93, 7.79 1.11 C8 1.29, 8.2 1.48, 8.37 1.69 C8.55 1.9, 8.71 2.13, 8.85 2.37 C8.98 2.61, 9.1 2.86, 9.2 3.12 C9.29 3.38, 9.36 3.65, 9.41 3.92 C9.46 4.19, 9.47 4.6, 9.48 4.74 C9.49 4.88, 9.49 4.6, 9.48 4.74" stroke="#1e1e1e" stroke-width="2" fill="none"/></g><g stroke-linecap="round" transform="translate(334.9117455809074 219.86342885698326) rotate(0 4.7405990800466355 4.7405990800466355)"><path d="M9.48 4.74 C9.48 5.01, 9.46 5.29, 9.41 5.56 C9.36 5.83, 9.29 6.1, 9.2 6.36 C9.1 6.62, 8.98 6.87, 8.85 7.11 C8.71 7.35, 8.55 7.58, 8.37 7.79 C8.2 8, 8 8.2, 7.79 8.37 C7.58 8.55, 7.35 8.71, 7.11 8.85 C6.87 8.98, 6.62 9.1, 6.36 9.2 C6.1 9.29, 5.83 9.36, 5.56 9.41 C5.29 9.46, 5.01 9.48, 4.74 9.48 C4.47 9.48, 4.19 9.46, 3.92 9.41 C3.65 9.36, 3.38 9.29, 3.12 9.2 C2.86 9.1, 2.61 8.98, 2.37 8.85 C2.13 8.71, 1.9 8.55, 1.69 8.37 C1.48 8.2, 1.29 8, 1.11 7.79 C0.93 7.58, 0.77 7.35, 0.64 7.11 C0.5 6.87, 0.38 6.62, 0.29 6.36 C0.19 6.1, 0.12 5.83, 0.07 5.56 C0.02 5.29, 0 5.01, 0 4.74 C0 4.47, 0.02 4.19, 0.07 3.92 C0.12 3.65, 0.19 3.38, 0.29 3.12 C0.38 2.86, 0.5 2.61, 0.64 2.37 C0.77 2.13, 0.93 1.9, 1.11 1.69 C1.29 1.48, 1.48 1.29, 1.69 1.11 C1.9 0.93, 2.13 0.77, 2.37 0.64 C2.61 0.5, 2.86 0.38, 3.12 0.29 C3.38 0.19, 3.65 0.12, 3.92 0.07 C4.19 0.02, 4.47 0, 4.74 0 C5.01 0, 5.29 0.02, 5.56 0.07 C5.83 0.12, 6.1 0.19, 6.36 0.29 C6.62 0.38, 6.87 0.5, 7.11 0.64 C7.35 0.77, 7.58 0.93, 7.79 1.11 C8 1.29, 8.2 1.48, 8.37 1.69 C8.55 1.9, 8.71 2.13, 8.85 2.37 C8.98 2.61, 9.1 2.86, 9.2 3.12 C9.29 3.38, 9.36 3.65, 9.41 3.92 C9.46 4.19, 9.47 4.6, 9.48 4.74 C9.49 4.88, 9.49 4.6, 9.48 4.74" stroke="#1e1e1e" stroke-width="2" fill="none"/></g></svg>