<svg version="1.1" xmlns="http://www.w3.org/2000/svg" viewBox="0 0 1022.9262162487232 241.89145967900333" width="1022.9262162487232" height="241.89145967900333" class="excalidraw-svg">
  <!-- svg-source:excalidraw -->
  
  <defs>
    <style class="style-fonts">
      @font-face {
        font-family: "Virgil";
        src: url("https://excalidraw.com/Virgil.woff2");
      }
      @font-face {
        font-family: "Cascadia";
        src: url("https://excalidraw.com/Cascadia.woff2");
      }
      @font-face {
        font-family: "Assistant";
        src: url("https://excalidraw.com/Assistant-Regular.woff2");
      }
    </style>
    
  </defs>
  <g stroke-linecap="round" transform="translate(659.8088680417744 10) rotate(0 176.5586741034744 110.94572983950167)"><path d="M32 0 C141.38 0, 250.76 0, 321.12 0 C342.45 0, 353.12 10.67, 353.12 32 C353.12 86.15, 353.12 140.3, 353.12 189.89 C353.12 211.22, 342.45 221.89, 321.12 221.89 C259.93 221.89, 198.75 221.89, 32 221.89 C10.67 221.89, 0 211.22, 0 189.89 C0 131.45, 0 73.01, 0 32 C0 10.67, 10.67 0, 32 0" stroke="none" stroke-width="0" fill="#a5d8ff"/><path d="M32 0 C145.73 0, 259.47 0, 321.12 0 M32 0 C143.96 0, 255.93 0, 321.12 0 M321.12 0 C342.45 0, 353.12 10.67, 353.12 32 M321.12 0 C342.45 0, 353.12 10.67, 353.12 32 M353.12 32 C353.12 81.61, 353.12 131.23, 353.12 189.89 M353.12 32 C353.12 87.93, 353.12 143.85, 353.12 189.89 M353.12 189.89 C353.12 211.22, 342.45 221.89, 321.12 221.89 M353.12 189.89 C353.12 211.22, 342.45 221.89, 321.12 221.89 M321.12 221.89 C236.25 221.89, 151.37 221.89, 32 221.89 M321.12 221.89 C208.47 221.89, 95.83 221.89, 32 221.89 M32 221.89 C10.67 221.89, 0 211.22, 0 189.89 M32 221.89 C10.67 221.89, 0 211.22, 0 189.89 M0 189.89 C0 136.2, 0 82.51, 0 32 M0 189.89 C0 135.7, 0 81.51, 0 32 M0 32 C0 10.67, 10.67 0, 32 0 M0 32 C0 10.67, 10.67 0, 32 0" stroke="transparent" stroke-width="2" fill="none"/></g><g stroke-linecap="round"><g transform="translate(325.31002913413454 29.125478121973515) rotate(0 25.67536163330078 18.3129654255697)"><path d="M0 0 C0 6.42, -5.99 32.22, 0 38.55 C5.99 44.87, 27.38 41.13, 35.94 37.95 C44.5 34.77, 50.89 26.1, 51.35 19.45 C51.81 12.81, 47.25 1.32, 38.69 -1.92 C30.13 -5.16, 6.45 -0.32, 0 0 M0 0 C0 6.42, -5.99 32.22, 0 38.55 C5.99 44.87, 27.38 41.13, 35.94 37.95 C44.5 34.77, 50.89 26.1, 51.35 19.45 C51.81 12.81, 47.25 1.32, 38.69 -1.92 C30.13 -5.16, 6.45 -0.32, 0 0" stroke="#1e1e1e" stroke-width="2" fill="none"/></g></g><mask/><g stroke-linecap="round" transform="translate(377.8789364589531 41.38147482607508) rotate(0 5.953277587890625 5.953277587890625)"><path d="M11.91 5.95 C11.91 6.3, 11.88 6.65, 11.82 6.99 C11.76 7.33, 11.67 7.67, 11.55 7.99 C11.43 8.31, 11.28 8.63, 11.11 8.93 C10.94 9.23, 10.74 9.52, 10.51 9.78 C10.29 10.04, 10.04 10.29, 9.78 10.51 C9.52 10.74, 9.23 10.94, 8.93 11.11 C8.63 11.28, 8.31 11.43, 7.99 11.55 C7.67 11.67, 7.33 11.76, 6.99 11.82 C6.65 11.88, 6.3 11.91, 5.95 11.91 C5.61 11.91, 5.26 11.88, 4.92 11.82 C4.58 11.76, 4.24 11.67, 3.92 11.55 C3.59 11.43, 3.28 11.28, 2.98 11.11 C2.68 10.94, 2.39 10.74, 2.13 10.51 C1.86 10.29, 1.61 10.04, 1.39 9.78 C1.17 9.52, 0.97 9.23, 0.8 8.93 C0.63 8.63, 0.48 8.31, 0.36 7.99 C0.24 7.67, 0.15 7.33, 0.09 6.99 C0.03 6.65, 0 6.3, 0 5.95 C0 5.61, 0.03 5.26, 0.09 4.92 C0.15 4.58, 0.24 4.24, 0.36 3.92 C0.48 3.59, 0.63 3.28, 0.8 2.98 C0.97 2.68, 1.17 2.39, 1.39 2.13 C1.61 1.86, 1.86 1.61, 2.13 1.39 C2.39 1.17, 2.68 0.97, 2.98 0.8 C3.28 0.63, 3.59 0.48, 3.92 0.36 C4.24 0.24, 4.58 0.15, 4.92 0.09 C5.26 0.03, 5.61 0, 5.95 0 C6.3 0, 6.65 0.03, 6.99 0.09 C7.33 0.15, 7.67 0.24, 7.99 0.36 C8.31 0.48, 8.63 0.63, 8.93 0.8 C9.23 0.97, 9.52 1.17, 9.78 1.39 C10.04 1.61, 10.29 1.86, 10.51 2.13 C10.74 2.39, 10.94 2.68, 11.11 2.98 C11.28 3.28, 11.43 3.59, 11.55 3.92 C11.67 4.24, 11.76 4.58, 11.82 4.92 C11.88 5.26, 11.89 5.78, 11.91 5.95 C11.92 6.13, 11.92 5.78, 11.91 5.95" stroke="#1e1e1e" stroke-width="2" fill="none"/></g><g stroke-linecap="round"><g transform="translate(321.882723646279 170.09992273335308) rotate(0 25.67536163330078 18.3129654255697)"><path d="M0 0 C0 6.42, -5.99 32.22, 0 38.55 C5.99 44.87, 27.38 41.13, 35.94 37.95 C44.5 34.77, 50.89 26.1, 51.35 19.45 C51.81 12.81, 47.25 1.32, 38.69 -1.92 C30.13 -5.16, 6.45 -0.32, 0 0 M0 0 C0 6.42, -5.99 32.22, 0 38.55 C5.99 44.87, 27.38 41.13, 35.94 37.95 C44.5 34.77, 50.89 26.1, 51.35 19.45 C51.81 12.81, 47.25 1.32, 38.69 -1.92 C30.13 -5.16, 6.45 -0.32, 0 0" stroke="#1e1e1e" stroke-width="2" fill="none"/></g></g><mask/><g stroke-linecap="round" transform="translate(372.65487528864537 180.53915066971766) rotate(0 5.953277587890625 5.953277587890625)"><path d="M11.91 5.95 C11.91 6.3, 11.88 6.65, 11.82 6.99 C11.76 7.33, 11.67 7.67, 11.55 7.99 C11.43 8.31, 11.28 8.63, 11.11 8.93 C10.94 9.23, 10.74 9.52, 10.51 9.78 C10.29 10.04, 10.04 10.29, 9.78 10.51 C9.52 10.74, 9.23 10.94, 8.93 11.11 C8.63 11.28, 8.31 11.43, 7.99 11.55 C7.67 11.67, 7.33 11.76, 6.99 11.82 C6.65 11.88, 6.3 11.91, 5.95 11.91 C5.61 11.91, 5.26 11.88, 4.92 11.82 C4.58 11.76, 4.24 11.67, 3.92 11.55 C3.59 11.43, 3.28 11.28, 2.98 11.11 C2.68 10.94, 2.39 10.74, 2.13 10.51 C1.86 10.29, 1.61 10.04, 1.39 9.78 C1.17 9.52, 0.97 9.23, 0.8 8.93 C0.63 8.63, 0.48 8.31, 0.36 7.99 C0.24 7.67, 0.15 7.33, 0.09 6.99 C0.03 6.65, 0 6.3, 0 5.95 C0 5.61, 0.03 5.26, 0.09 4.92 C0.15 4.58, 0.24 4.24, 0.36 3.92 C0.48 3.59, 0.63 3.28, 0.8 2.98 C0.97 2.68, 1.17 2.39, 1.39 2.13 C1.61 1.86, 1.86 1.61, 2.13 1.39 C2.39 1.17, 2.68 0.97, 2.98 0.8 C3.28 0.63, 3.59 0.48, 3.92 0.36 C4.24 0.24, 4.58 0.15, 4.92 0.09 C5.26 0.03, 5.61 0, 5.95 0 C6.3 0, 6.65 0.03, 6.99 0.09 C7.33 0.15, 7.67 0.24, 7.99 0.36 C8.31 0.48, 8.63 0.63, 8.93 0.8 C9.23 0.97, 9.52 1.17, 9.78 1.39 C10.04 1.61, 10.29 1.86, 10.51 2.13 C10.74 2.39, 10.94 2.68, 11.11 2.98 C11.28 3.28, 11.43 3.59, 11.55 3.92 C11.67 4.24, 11.76 4.58, 11.82 4.92 C11.88 5.26, 11.89 5.78, 11.91 5.95 C11.92 6.13, 11.92 5.78, 11.91 5.95" stroke="#1e1e1e" stroke-width="2" fill="none"/></g><g stroke-linecap="round"><g transform="translate(452.2243304460112 33.58083939333244) rotate(0 36.281280517578125 22.263702392578125)"><path d="M0 0 C2.88 4.1, 17.21 17.09, 17.27 24.58 C17.33 32.07, -6.86 41.51, 0.38 44.94 C7.63 48.37, 48.7 49.09, 60.73 45.18 C72.76 41.28, 73.42 29.15, 72.56 21.51 C71.7 13.87, 67.68 2.93, 55.58 -0.66 C43.49 -4.24, 9.26 -0.11, 0 0 M0 0 C2.88 4.1, 17.21 17.09, 17.27 24.58 C17.33 32.07, -6.86 41.51, 0.38 44.94 C7.63 48.37, 48.7 49.09, 60.73 45.18 C72.76 41.28, 73.42 29.15, 72.56 21.51 C71.7 13.87, 67.68 2.93, 55.58 -0.66 C43.49 -4.24, 9.26 -0.11, 0 0" stroke="#1e1e1e" stroke-width="2" fill="none"/></g></g><mask/><g stroke-linecap="round"><g transform="translate(449.9277465234082 153.6267423174921) rotate(0 36.28128051757813 22.263702392578125)"><path d="M0 0 C2.88 4.1, 17.21 17.09, 17.27 24.58 C17.33 32.07, -6.86 41.51, 0.38 44.94 C7.63 48.37, 48.7 49.09, 60.73 45.18 C72.76 41.28, 73.42 29.15, 72.56 21.51 C71.7 13.87, 67.68 2.93, 55.58 -0.66 C43.49 -4.24, 9.26 -0.11, 0 0 M0 0 C2.88 4.1, 17.21 17.09, 17.27 24.58 C17.33 32.07, -6.86 41.51, 0.38 44.94 C7.63 48.37, 48.7 49.09, 60.73 45.18 C72.76 41.28, 73.42 29.15, 72.56 21.51 C71.7 13.87, 67.68 2.93, 55.58 -0.66 C43.49 -4.24, 9.26 -0.11, 0 0" stroke="#1e1e1e" stroke-width="2" fill="none"/></g></g><mask/><g stroke-linecap="round" transform="translate(443.97632340189944 178.63011482757614) rotate(0 5.953277587890625 5.953277587890625)"><path d="M11.91 5.95 C11.91 6.3, 11.88 6.65, 11.82 6.99 C11.76 7.33, 11.67 7.67, 11.55 7.99 C11.43 8.31, 11.28 8.63, 11.11 8.93 C10.94 9.23, 10.74 9.52, 10.51 9.78 C10.29 10.04, 10.04 10.29, 9.78 10.51 C9.52 10.74, 9.23 10.94, 8.93 11.11 C8.63 11.28, 8.31 11.43, 7.99 11.55 C7.67 11.67, 7.33 11.76, 6.99 11.82 C6.65 11.88, 6.3 11.91, 5.95 11.91 C5.61 11.91, 5.26 11.88, 4.92 11.82 C4.58 11.76, 4.24 11.67, 3.92 11.55 C3.59 11.43, 3.28 11.28, 2.98 11.11 C2.68 10.94, 2.39 10.74, 2.13 10.51 C1.86 10.29, 1.61 10.04, 1.39 9.78 C1.17 9.52, 0.97 9.23, 0.8 8.93 C0.63 8.63, 0.48 8.31, 0.36 7.99 C0.24 7.67, 0.15 7.33, 0.09 6.99 C0.03 6.65, 0 6.3, 0 5.95 C0 5.61, 0.03 5.26, 0.09 4.92 C0.15 4.58, 0.24 4.24, 0.36 3.92 C0.48 3.59, 0.63 3.28, 0.8 2.98 C0.97 2.68, 1.17 2.39, 1.39 2.13 C1.61 1.86, 1.86 1.61, 2.13 1.39 C2.39 1.17, 2.68 0.97, 2.98 0.8 C3.28 0.63, 3.59 0.48, 3.92 0.36 C4.24 0.24, 4.58 0.15, 4.92 0.09 C5.26 0.03, 5.61 0, 5.95 0 C6.3 0, 6.65 0.03, 6.99 0.09 C7.33 0.15, 7.67 0.24, 7.99 0.36 C8.31 0.48, 8.63 0.63, 8.93 0.8 C9.23 0.97, 9.52 1.17, 9.78 1.39 C10.04 1.61, 10.29 1.86, 10.51 2.13 C10.74 2.39, 10.94 2.68, 11.11 2.98 C11.28 3.28, 11.43 3.59, 11.55 3.92 C11.67 4.24, 11.76 4.58, 11.82 4.92 C11.88 5.26, 11.89 5.78, 11.91 5.95 C11.92 6.13, 11.92 5.78, 11.91 5.95" stroke="#1e1e1e" stroke-width="2" fill="none"/></g><g stroke-linecap="round" transform="translate(445.47754410502444 159.52757576507614) rotate(0 5.953277587890625 5.953277587890625)"><path d="M11.91 5.95 C11.91 6.3, 11.88 6.65, 11.82 6.99 C11.76 7.33, 11.67 7.67, 11.55 7.99 C11.43 8.31, 11.28 8.63, 11.11 8.93 C10.94 9.23, 10.74 9.52, 10.51 9.78 C10.29 10.04, 10.04 10.29, 9.78 10.51 C9.52 10.74, 9.23 10.94, 8.93 11.11 C8.63 11.28, 8.31 11.43, 7.99 11.55 C7.67 11.67, 7.33 11.76, 6.99 11.82 C6.65 11.88, 6.3 11.91, 5.95 11.91 C5.61 11.91, 5.26 11.88, 4.92 11.82 C4.58 11.76, 4.24 11.67, 3.92 11.55 C3.59 11.43, 3.28 11.28, 2.98 11.11 C2.68 10.94, 2.39 10.74, 2.13 10.51 C1.86 10.29, 1.61 10.04, 1.39 9.78 C1.17 9.52, 0.97 9.23, 0.8 8.93 C0.63 8.63, 0.48 8.31, 0.36 7.99 C0.24 7.67, 0.15 7.33, 0.09 6.99 C0.03 6.65, 0 6.3, 0 5.95 C0 5.61, 0.03 5.26, 0.09 4.92 C0.15 4.58, 0.24 4.24, 0.36 3.92 C0.48 3.59, 0.63 3.28, 0.8 2.98 C0.97 2.68, 1.17 2.39, 1.39 2.13 C1.61 1.86, 1.86 1.61, 2.13 1.39 C2.39 1.17, 2.68 0.97, 2.98 0.8 C3.28 0.63, 3.59 0.48, 3.92 0.36 C4.24 0.24, 4.58 0.15, 4.92 0.09 C5.26 0.03, 5.61 0, 5.95 0 C6.3 0, 6.65 0.03, 6.99 0.09 C7.33 0.15, 7.67 0.24, 7.99 0.36 C8.31 0.48, 8.63 0.63, 8.93 0.8 C9.23 0.97, 9.52 1.17, 9.78 1.39 C10.04 1.61, 10.29 1.86, 10.51 2.13 C10.74 2.39, 10.94 2.68, 11.11 2.98 C11.28 3.28, 11.43 3.59, 11.55 3.92 C11.67 4.24, 11.76 4.58, 11.82 4.92 C11.88 5.26, 11.89 5.78, 11.91 5.95 C11.92 6.13, 11.92 5.78, 11.91 5.95" stroke="#1e1e1e" stroke-width="2" fill="none"/></g><g stroke-linecap="round" transform="translate(448.3749346940581 59.17507767458244) rotate(0 5.953277587890625 5.953277587890625)"><path d="M11.91 5.95 C11.91 6.3, 11.88 6.65, 11.82 6.99 C11.76 7.33, 11.67 7.67, 11.55 7.99 C11.43 8.31, 11.28 8.63, 11.11 8.93 C10.94 9.23, 10.74 9.52, 10.51 9.78 C10.29 10.04, 10.04 10.29, 9.78 10.51 C9.52 10.74, 9.23 10.94, 8.93 11.11 C8.63 11.28, 8.31 11.43, 7.99 11.55 C7.67 11.67, 7.33 11.76, 6.99 11.82 C6.65 11.88, 6.3 11.91, 5.95 11.91 C5.61 11.91, 5.26 11.88, 4.92 11.82 C4.58 11.76, 4.24 11.67, 3.92 11.55 C3.59 11.43, 3.28 11.28, 2.98 11.11 C2.68 10.94, 2.39 10.74, 2.13 10.51 C1.86 10.29, 1.61 10.04, 1.39 9.78 C1.17 9.52, 0.97 9.23, 0.8 8.93 C0.63 8.63, 0.48 8.31, 0.36 7.99 C0.24 7.67, 0.15 7.33, 0.09 6.99 C0.03 6.65, 0 6.3, 0 5.95 C0 5.61, 0.03 5.26, 0.09 4.92 C0.15 4.58, 0.24 4.24, 0.36 3.92 C0.48 3.59, 0.63 3.28, 0.8 2.98 C0.97 2.68, 1.17 2.39, 1.39 2.13 C1.61 1.86, 1.86 1.61, 2.13 1.39 C2.39 1.17, 2.68 0.97, 2.98 0.8 C3.28 0.63, 3.59 0.48, 3.92 0.36 C4.24 0.24, 4.58 0.15, 4.92 0.09 C5.26 0.03, 5.61 0, 5.95 0 C6.3 0, 6.65 0.03, 6.99 0.09 C7.33 0.15, 7.67 0.24, 7.99 0.36 C8.31 0.48, 8.63 0.63, 8.93 0.8 C9.23 0.97, 9.52 1.17, 9.78 1.39 C10.04 1.61, 10.29 1.86, 10.51 2.13 C10.74 2.39, 10.94 2.68, 11.11 2.98 C11.28 3.28, 11.43 3.59, 11.55 3.92 C11.67 4.24, 11.76 4.58, 11.82 4.92 C11.88 5.26, 11.89 5.78, 11.91 5.95 C11.92 6.13, 11.92 5.78, 11.91 5.95" stroke="#1e1e1e" stroke-width="2" fill="none"/></g><g stroke-linecap="round" transform="translate(448.01122619796433 39.790830848410565) rotate(0 5.953277587890625 5.953277587890625)"><path d="M11.91 5.95 C11.91 6.3, 11.88 6.65, 11.82 6.99 C11.76 7.33, 11.67 7.67, 11.55 7.99 C11.43 8.31, 11.28 8.63, 11.11 8.93 C10.94 9.23, 10.74 9.52, 10.51 9.78 C10.29 10.04, 10.04 10.29, 9.78 10.51 C9.52 10.74, 9.23 10.94, 8.93 11.11 C8.63 11.28, 8.31 11.43, 7.99 11.55 C7.67 11.67, 7.33 11.76, 6.99 11.82 C6.65 11.88, 6.3 11.91, 5.95 11.91 C5.61 11.91, 5.26 11.88, 4.92 11.82 C4.58 11.76, 4.24 11.67, 3.92 11.55 C3.59 11.43, 3.28 11.28, 2.98 11.11 C2.68 10.94, 2.39 10.74, 2.13 10.51 C1.86 10.29, 1.61 10.04, 1.39 9.78 C1.17 9.52, 0.97 9.23, 0.8 8.93 C0.63 8.63, 0.48 8.31, 0.36 7.99 C0.24 7.67, 0.15 7.33, 0.09 6.99 C0.03 6.65, 0 6.3, 0 5.95 C0 5.61, 0.03 5.26, 0.09 4.92 C0.15 4.58, 0.24 4.24, 0.36 3.92 C0.48 3.59, 0.63 3.28, 0.8 2.98 C0.97 2.68, 1.17 2.39, 1.39 2.13 C1.61 1.86, 1.86 1.61, 2.13 1.39 C2.39 1.17, 2.68 0.97, 2.98 0.8 C3.28 0.63, 3.59 0.48, 3.92 0.36 C4.24 0.24, 4.58 0.15, 4.92 0.09 C5.26 0.03, 5.61 0, 5.95 0 C6.3 0, 6.65 0.03, 6.99 0.09 C7.33 0.15, 7.67 0.24, 7.99 0.36 C8.31 0.48, 8.63 0.63, 8.93 0.8 C9.23 0.97, 9.52 1.17, 9.78 1.39 C10.04 1.61, 10.29 1.86, 10.51 2.13 C10.74 2.39, 10.94 2.68, 11.11 2.98 C11.28 3.28, 11.43 3.59, 11.55 3.92 C11.67 4.24, 11.76 4.58, 11.82 4.92 C11.88 5.26, 11.89 5.78, 11.91 5.95 C11.92 6.13, 11.92 5.78, 11.91 5.95" stroke="#1e1e1e" stroke-width="2" fill="none"/></g><g stroke-linecap="round" transform="translate(104.61663391280808 91.76205277223869) rotate(0 79.41085815429688 29.974761962890625)"><path d="M0 0 C43.51 0, 87.02 0, 158.82 0 M0 0 C35.18 0, 70.36 0, 158.82 0 M158.82 0 C158.82 14.31, 158.82 28.63, 158.82 59.95 M158.82 0 C158.82 22.79, 158.82 45.58, 158.82 59.95 M158.82 59.95 C109.32 59.95, 59.82 59.95, 0 59.95 M158.82 59.95 C120.31 59.95, 81.81 59.95, 0 59.95 M0 59.95 C0 45.63, 0 31.32, 0 0 M0 59.95 C0 42.93, 0 25.9, 0 0" stroke="#1e1e1e" stroke-width="2" fill="none"/></g><g transform="translate(129.33217956710496 103.33681473512931) rotate(0 54.6953125 18.4)"><text x="54.6953125" y="14.720312499999999" font-family="Helvetica, Segoe UI Emoji" font-size="16px" fill="#1e1e1e" text-anchor="middle" style="white-space: pre;" direction="ltr" dominant-baseline="alphabetic">Pulse transition</text><text x="54.6953125" y="33.1203125" font-family="Helvetica, Segoe UI Emoji" font-size="16px" fill="#1e1e1e" text-anchor="middle" style="white-space: pre;" direction="ltr" dominant-baseline="alphabetic">detector</text></g><g transform="translate(35.125 31.922122720767675) rotate(0 4 9.200000000000003)"><text x="0" y="14.720312499999999" font-family="Helvetica, Segoe UI Emoji" font-size="16px" fill="#1e1e1e" text-anchor="start" style="white-space: pre;" direction="ltr" dominant-baseline="alphabetic">J</text></g><g transform="translate(10 105.80102698398574) rotate(0 15.5625 9.200000000000003)"><text x="0" y="14.720312499999999" font-family="Helvetica, Segoe UI Emoji" font-size="16px" fill="#1e1e1e" text-anchor="start" style="white-space: pre;" direction="ltr" dominant-baseline="alphabetic">CLK</text></g><g transform="translate(30.221343994140625 193.56992346836074) rotate(0 5.3359375 9.2)"><text x="0" y="14.720312499999999" font-family="Helvetica, Segoe UI Emoji" font-size="16px" fill="#1e1e1e" text-anchor="start" style="white-space: pre;" direction="ltr" dominant-baseline="alphabetic">K</text></g><g stroke-linecap="round"><g transform="translate(62.495758056640625 38.57198645664198) rotate(0 130.21389393436067 0.04167015351987402)"><path d="M0 0 C52.37 0.02, 104.74 0.03, 260.43 0.08 M0 0 C63.3 0.02, 126.59 0.04, 260.43 0.08" stroke="#1e1e1e" stroke-width="2" fill="none"/></g></g><mask/><g stroke-linecap="round"><g transform="translate(61.982757568359375 200.85149695468886) rotate(0 128.34494411216608 0.12166187055917987)"><path d="M0 0 C100.81 0.1, 201.62 0.19, 256.69 0.24 M0 0 C86.77 0.08, 173.54 0.16, 256.69 0.24" stroke="#1e1e1e" stroke-width="2" fill="none"/></g></g><mask/><g stroke-linecap="round"><g transform="translate(51.834197998046875 119.19097449375136) rotate(0 26.353790283203125 0)"><path d="M0 0 C10.8 0, 21.6 0, 52.71 0 M0 0 C12.22 0, 24.43 0, 52.71 0" stroke="#1e1e1e" stroke-width="2" fill="none"/></g></g><mask/><g stroke-linecap="round"><g transform="translate(69.81437428026248 109.42744784016625) rotate(0 13.391536874123716 -7.098578187344785)"><path d="M0 0 C2.08 -0.03, 4.15 -0.06, 7.12 -0.1 M0 0 C2.82 -0.04, 5.65 -0.08, 7.12 -0.1 M7.12 -0.1 C7.04 -3.6, 6.96 -7.1, 6.8 -14.28 M7.12 -0.1 C7 -5.34, 6.88 -10.57, 6.8 -14.28 M6.8 -14.28 C10.96 -14.28, 15.12 -14.28, 18.06 -14.28 M6.8 -14.28 C11.22 -14.28, 15.65 -14.28, 18.06 -14.28 M18.06 -14.28 C18.12 -10.15, 18.18 -6.02, 18.26 -0.14 M18.06 -14.28 C18.12 -9.89, 18.18 -5.5, 18.26 -0.14 M18.26 -0.14 C20.33 -0.08, 22.4 -0.03, 26.78 0.09 M18.26 -0.14 C21.03 -0.06, 23.8 0.01, 26.78 0.09" stroke="#1e1e1e" stroke-width="2" fill="none"/></g></g><mask/><g stroke-linecap="round"><g transform="translate(321.5479107575031 51.04247672768372) rotate(0 -7.877153221017807 67.13999622541704)"><path d="M0 0 C-5.72 0, -11.44 0, -15.75 0 M0 0 C-5.68 0, -11.35 0, -15.75 0 M-15.75 0 C-15.75 47.56, -15.75 95.12, -15.75 134.28 M-15.75 0 C-15.75 50.83, -15.75 101.66, -15.75 134.28 M-15.75 134.28 C-12.36 134.28, -8.97 134.28, -1.08 134.28 M-15.75 134.28 C-11.55 134.28, -7.34 134.28, -1.08 134.28" stroke="#1e1e1e" stroke-width="2" fill="none"/></g></g><mask/><g stroke-linecap="round"><g transform="translate(262.84261333736276 119.58671611629987) rotate(0 20.052911752506873 -0.18001078385761105)"><path d="M0 0 C11.69 -0.1, 23.38 -0.21, 40.11 -0.36 M0 0 C11.64 -0.1, 23.28 -0.21, 40.11 -0.36" stroke="#1e1e1e" stroke-width="2" fill="none"/></g></g><mask/><g stroke-linecap="round" transform="translate(300.00159205502285 113.96472236156461) rotate(0 5.701190226226004 5.701190226226004)"><path d="M11.4 5.7 C11.4 6.03, 11.37 6.37, 11.32 6.69 C11.26 7.02, 11.17 7.34, 11.06 7.65 C10.95 7.96, 10.8 8.27, 10.64 8.55 C10.47 8.84, 10.28 9.11, 10.07 9.37 C9.86 9.62, 9.62 9.86, 9.37 10.07 C9.11 10.28, 8.84 10.47, 8.55 10.64 C8.27 10.8, 7.96 10.95, 7.65 11.06 C7.34 11.17, 7.02 11.26, 6.69 11.32 C6.37 11.37, 6.03 11.4, 5.7 11.4 C5.37 11.4, 5.04 11.37, 4.71 11.32 C4.39 11.26, 4.06 11.17, 3.75 11.06 C3.44 10.95, 3.14 10.8, 2.85 10.64 C2.56 10.47, 2.29 10.28, 2.04 10.07 C1.78 9.86, 1.55 9.62, 1.33 9.37 C1.12 9.11, 0.93 8.84, 0.76 8.55 C0.6 8.27, 0.46 7.96, 0.34 7.65 C0.23 7.34, 0.14 7.02, 0.09 6.69 C0.03 6.37, 0 6.03, 0 5.7 C0 5.37, 0.03 5.04, 0.09 4.71 C0.14 4.39, 0.23 4.06, 0.34 3.75 C0.46 3.44, 0.6 3.14, 0.76 2.85 C0.93 2.56, 1.12 2.29, 1.33 2.04 C1.55 1.78, 1.78 1.55, 2.04 1.33 C2.29 1.12, 2.56 0.93, 2.85 0.76 C3.14 0.6, 3.44 0.46, 3.75 0.34 C4.06 0.23, 4.39 0.14, 4.71 0.09 C5.04 0.03, 5.37 0, 5.7 0 C6.03 0, 6.37 0.03, 6.69 0.09 C7.02 0.14, 7.34 0.23, 7.65 0.34 C7.96 0.46, 8.27 0.6, 8.55 0.76 C8.84 0.93, 9.11 1.12, 9.37 1.33 C9.62 1.55, 9.86 1.78, 10.07 2.04 C10.28 2.29, 10.47 2.56, 10.64 2.85 C10.8 3.14, 10.95 3.44, 11.06 3.75 C11.17 4.06, 11.26 4.39, 11.32 4.71 C11.37 5.04, 11.39 5.54, 11.4 5.7 C11.42 5.87, 11.42 5.54, 11.4 5.7" stroke="none" stroke-width="0" fill="#1e1e1e"/><path d="M11.4 5.7 C11.4 6.03, 11.37 6.37, 11.32 6.69 C11.26 7.02, 11.17 7.34, 11.06 7.65 C10.95 7.96, 10.8 8.27, 10.64 8.55 C10.47 8.84, 10.28 9.11, 10.07 9.37 C9.86 9.62, 9.62 9.86, 9.37 10.07 C9.11 10.28, 8.84 10.47, 8.55 10.64 C8.27 10.8, 7.96 10.95, 7.65 11.06 C7.34 11.17, 7.02 11.26, 6.69 11.32 C6.37 11.37, 6.03 11.4, 5.7 11.4 C5.37 11.4, 5.04 11.37, 4.71 11.32 C4.39 11.26, 4.06 11.17, 3.75 11.06 C3.44 10.95, 3.14 10.8, 2.85 10.64 C2.56 10.47, 2.29 10.28, 2.04 10.07 C1.78 9.86, 1.55 9.62, 1.33 9.37 C1.12 9.11, 0.93 8.84, 0.76 8.55 C0.6 8.27, 0.46 7.96, 0.34 7.65 C0.23 7.34, 0.14 7.02, 0.09 6.69 C0.03 6.37, 0 6.03, 0 5.7 C0 5.37, 0.03 5.04, 0.09 4.71 C0.14 4.39, 0.23 4.06, 0.34 3.75 C0.46 3.44, 0.6 3.14, 0.76 2.85 C0.93 2.56, 1.12 2.29, 1.33 2.04 C1.55 1.78, 1.78 1.55, 2.04 1.33 C2.29 1.12, 2.56 0.93, 2.85 0.76 C3.14 0.6, 3.44 0.46, 3.75 0.34 C4.06 0.23, 4.39 0.14, 4.71 0.09 C5.04 0.03, 5.37 0, 5.7 0 C6.03 0, 6.37 0.03, 6.69 0.09 C7.02 0.14, 7.34 0.23, 7.65 0.34 C7.96 0.46, 8.27 0.6, 8.55 0.76 C8.84 0.93, 9.11 1.12, 9.37 1.33 C9.62 1.55, 9.86 1.78, 10.07 2.04 C10.28 2.29, 10.47 2.56, 10.64 2.85 C10.8 3.14, 10.95 3.44, 11.06 3.75 C11.17 4.06, 11.26 4.39, 11.32 4.71 C11.37 5.04, 11.39 5.54, 11.4 5.7 C11.42 5.87, 11.42 5.54, 11.4 5.7" stroke="#1e1e1e" stroke-width="2" fill="none"/></g><g stroke-linecap="round"><g transform="translate(390.67721550570656 47.00221567066512) rotate(0 28.631778233979333 0)"><path d="M0 0 C17.78 0, 35.55 0, 57.26 0 M0 0 C15.34 0, 30.68 0, 57.26 0" stroke="#1e1e1e" stroke-width="2" fill="none"/></g></g><mask/><g stroke-linecap="round"><g transform="translate(384.9418618160043 186.47421296474005) rotate(0 29.28848701540781 0)"><path d="M0 0 C21.22 0, 42.43 0, 58.58 0 M0 0 C22.15 0, 44.29 0, 58.58 0" stroke="#1e1e1e" stroke-width="2" fill="none"/></g></g><mask/><g stroke-linecap="round"><g transform="translate(525.2055708654495 52.82258143361244) rotate(0 28.692616301506007 0)"><path d="M0 0 C14.59 0, 29.18 0, 57.39 0 M0 0 C17.21 0, 34.42 0, 57.39 0" stroke="#1e1e1e" stroke-width="2" fill="none"/></g></g><mask/><g stroke-linecap="round"><g transform="translate(522.6020724521562 174.34179991909969) rotate(0 32.302845653547735 0)"><path d="M0 0 C21.05 0, 42.1 0, 64.61 0 M0 0 C25.05 0, 50.11 0, 64.61 0" stroke="#1e1e1e" stroke-width="2" fill="none"/></g></g><mask/><g transform="translate(591.6647049547279 42.803621549032044) rotate(0 6.22265625 9.200000000000003)"><text x="0" y="14.720312499999999" font-family="Helvetica, Segoe UI Emoji" font-size="16px" fill="#1e1e1e" text-anchor="start" style="white-space: pre;" direction="ltr" dominant-baseline="alphabetic">Q</text></g><g transform="translate(591.6647049547279 164.39842007124875) rotate(0 7.75 9.2)"><text x="0" y="14.720312499999999" font-family="Helvetica, Segoe UI Emoji" font-size="16px" fill="#1e1e1e" text-anchor="start" style="white-space: pre;" direction="ltr" dominant-baseline="alphabetic">Q'</text></g><g stroke-linecap="round"><g transform="translate(448.2522041650297 64.84332057498517) rotate(0 -24.705978346546715 69.60149635234033)"><path d="M0 0 C-4.06 0, -8.12 0, -19.8 0 M0 0 C-4.44 0, -8.88 0, -19.8 0 M-19.8 0 C-19.8 14.65, -19.8 29.29, -19.8 41.53 M-19.8 0 C-19.8 9.65, -19.8 19.3, -19.8 41.53 M-19.8 41.53 C10.16 49.56, 40.12 57.58, 105.41 75.08 M-19.8 41.53 C27.1 54.1, 74 66.66, 105.41 75.08 M105.41 75.08 C105.62 93.54, 105.82 112.01, 106.35 159.17 M105.41 75.08 C105.61 92.63, 105.8 110.18, 106.35 159.17 M106.35 159.17 C9.59 159.58, -87.16 159.99, -155.19 160.28 M106.35 159.17 C20.74 159.53, -64.87 159.89, -155.19 160.28 M-155.19 160.28 C-155.34 110.28, -155.5 60.28, -155.76 -21.07 M-155.19 160.28 C-155.4 93.12, -155.61 25.97, -155.76 -21.07 M-155.76 -21.07 C-149.07 -21.03, -142.38 -20.98, -125.17 -20.86 M-155.76 -21.07 C-148.5 -21.02, -141.25 -20.97, -125.17 -20.86" stroke="#1e1e1e" stroke-width="2" fill="none"/></g></g><mask/><g stroke-linecap="round"><g transform="translate(319.02531771740763 193.35309116233006) rotate(0 91.8113968086596 -86.42760356405532)"><path d="M0 0 C-17.89 0, -35.77 0, -44.91 0 M0 0 C-11.5 0, -23 0, -44.91 0 M-44.91 0 C-44.91 -65.14, -44.91 -130.28, -44.91 -172.86 M-44.91 0 C-44.91 -34.94, -44.91 -69.89, -44.91 -172.86 M-44.91 -172.86 C14.65 -172.86, 74.21 -172.86, 228.53 -172.86 M-44.91 -172.86 C23.82 -172.86, 92.55 -172.86, 228.53 -172.86 M228.53 -172.86 C228.53 -150.37, 228.53 -127.88, 228.53 -108.69 M228.53 -172.86 C228.53 -149.45, 228.53 -126.04, 228.53 -108.69 M228.53 -108.69 C202.25 -93.51, 175.96 -78.34, 112.43 -41.66 M228.53 -108.69 C202.41 -93.6, 176.29 -78.52, 112.43 -41.66 M112.43 -41.66 C112.43 -37.25, 112.43 -32.85, 112.43 -28.39 M112.43 -41.66 C112.43 -38.69, 112.43 -35.72, 112.43 -28.39 M112.43 -28.39 C115.32 -28.39, 118.21 -28.39, 126.82 -28.39 M112.43 -28.39 C116.01 -28.39, 119.59 -28.39, 126.82 -28.39" stroke="#1e1e1e" stroke-width="2" fill="none"/></g></g><mask/><g stroke-linecap="round" transform="translate(743.8134413043449 40.7257596292871) rotate(0 50.872550023351494 80.43778946142221)"><path d="M0 0 C27.73 0.24, 51.94 -2.12, 101.75 0 M0 0 C36.56 -0.1, 71.89 -0.88, 101.75 0 M101.75 0 C102.08 52.18, 102 100.74, 101.75 160.88 M101.75 0 C101.66 50.24, 101.28 99.44, 101.75 160.88 M101.75 160.88 C77.7 160.03, 54.62 158.45, 0 160.88 M101.75 160.88 C67.8 160.94, 31.81 161.02, 0 160.88 M0 160.88 C2.08 108.72, 1.81 59.37, 0 0 M0 160.88 C0.67 127.32, 0.35 93.69, 0 0" stroke="#1971c2" stroke-width="2" fill="none"/></g><g stroke-linecap="round"><g transform="translate(692.5727445272155 70.7306837816108) rotate(0 26.323837145967417 0)"><path d="M0 0 C16.78 -1.85, 37.34 0.75, 52.65 0 M0 0 C16.27 -0.78, 32.6 0.6, 52.65 0" stroke="#1971c2" stroke-width="2" fill="none"/></g></g><mask/><g transform="translate(761.9978190646303 54.439882255175235) rotate(0 5.735003404775881 13.190507830984515)"><text x="0" y="21.105260576716212" font-family="Helvetica, Segoe UI Emoji" font-size="22.940013619103496px" fill="#1971c2" text-anchor="start" style="white-space: pre;" direction="ltr" dominant-baseline="alphabetic">J</text></g><g transform="translate(761.3649524779705 109.94637057606853) rotate(0 8.283271519202657 13.190507830984508)"><text x="0" y="21.105260576716212" font-family="Helvetica, Segoe UI Emoji" font-size="22.940013619103496px" fill="#1971c2" text-anchor="start" style="white-space: pre;" direction="ltr" dominant-baseline="alphabetic">C</text></g><g stroke-linecap="round"><g transform="translate(847.2518489918974 88.48168144166408) rotate(0 37.22800942159461 0)"><path d="M0 0 C25.75 -0.35, 50 -0.12, 74.46 0 M0 0 C27.27 -0.12, 52.73 0.32, 74.46 0" stroke="#1971c2" stroke-width="2" fill="none"/></g></g><mask/><g stroke-linecap="round" transform="translate(845.9839105865557 154.01314379325564) rotate(0 6.767051991118706 6.76705199111872)"><path d="M6.92 0.27 C8.22 0.12, 10.07 0.47, 11.17 1.4 C12.27 2.32, 13.31 4.3, 13.52 5.82 C13.74 7.33, 13.21 9.27, 12.46 10.49 C11.72 11.7, 10.44 12.75, 9.05 13.11 C7.67 13.47, 5.49 13.25, 4.17 12.66 C2.84 12.07, 1.79 10.81, 1.09 9.57 C0.39 8.33, -0.26 6.68, -0.02 5.24 C0.22 3.81, 1.28 1.76, 2.53 0.95 C3.77 0.14, 6.58 0.42, 7.43 0.36 C8.29 0.31, 7.74 0.59, 7.65 0.63 M6.66 0.46 C7.96 0.34, 9.1 0.82, 10.31 1.44 C11.52 2.05, 13.51 2.79, 13.92 4.17 C14.34 5.55, 13.46 8.23, 12.8 9.7 C12.15 11.17, 11.29 12.34, 10.02 13 C8.75 13.66, 6.75 13.95, 5.18 13.66 C3.61 13.37, 1.53 12.5, 0.6 11.24 C-0.32 9.97, -0.62 7.55, -0.36 6.07 C-0.1 4.59, 0.99 3.31, 2.16 2.36 C3.33 1.4, 6.11 0.8, 6.65 0.34 C7.19 -0.13, 5.5 -0.58, 5.41 -0.42" stroke="#1971c2" stroke-width="2" fill="none"/></g><g stroke-linecap="round"><g transform="translate(861.939359329059 161.32621823378292) rotate(0 31.14604951200829 0)"><path d="M0 0 C20.26 1.21, 37.53 0.93, 62.29 0 M0 0 C16.36 -0.07, 33.17 0.46, 62.29 0" stroke="#1971c2" stroke-width="2" fill="none"/></g></g><mask/><g transform="translate(934.7430097831583 74.16635346850694) rotate(0 8.921738695124986 13.190507830984508)"><text x="0" y="21.105260576716212" font-family="Helvetica, Segoe UI Emoji" font-size="22.940013619103496px" fill="#1971c2" text-anchor="start" style="white-space: pre;" direction="ltr" dominant-baseline="alphabetic">Q</text></g><g transform="translate(938.5046455613007 148.93327502312934) rotate(0 11.111569096753271 13.190507830984508)"><text x="0" y="21.105260576716212" font-family="Helvetica, Segoe UI Emoji" font-size="22.940013619103496px" fill="#1971c2" text-anchor="start" style="white-space: pre;" direction="ltr" dominant-baseline="alphabetic">Q'</text></g><g stroke-linecap="round"><g transform="translate(692.4531808425339 122.79276427654462) rotate(0 25.111245817503004 0)"><path d="M0 0 C17.86 0.08, 35.33 0.7, 50.22 0 M0 0 C16.97 0.66, 34.72 -0.36, 50.22 0" stroke="#1971c2" stroke-width="2" fill="none"/></g></g><mask/><g stroke-linecap="round"><g transform="translate(743.8563780992927 111.41526939549976) rotate(0 5.8440915378544105 12.355186449523217)"><path d="M0 0 C2.86 2.78, 6.2 5.08, 12.87 11.81 M0 0 C3.53 3.33, 7.61 6.91, 12.87 11.81 M12.87 11.81 C10.49 15.47, 6.46 17.14, -1.19 24.71 M12.87 11.81 C9.73 15.32, 5.61 18.53, -1.19 24.71" stroke="#1971c2" stroke-width="2" fill="none"/></g></g><mask/><g stroke-linecap="round"><g transform="translate(694.512037686214 171.5950371312029) rotate(0 24.962501065502096 0)"><path d="M0.09 0.29 C8.4 0.29, 41.56 -0.02, 49.8 -0.01 M-0.53 -0.04 C7.71 0.05, 40.78 0.77, 49.31 0.69" stroke="#1971c2" stroke-width="2" fill="none"/></g></g><mask/><g transform="translate(761.8754449814762 158.0896508174964) rotate(0 7.650404932542813 13.190507830984508)"><text x="0" y="21.105260576716212" font-family="Helvetica, Segoe UI Emoji" font-size="22.940013619103496px" fill="#1971c2" text-anchor="start" style="white-space: pre;" direction="ltr" dominant-baseline="alphabetic">K</text></g></svg>