<svg version="1.1" xmlns="http://www.w3.org/2000/svg" viewBox="0 0 283.93833601269114 71.85245256023964" width="283.93833601269114" height="71.85245256023964" class="excalidraw-svg">
  <!-- svg-source:excalidraw -->
  
  <defs>
    <style class="style-fonts">
      @font-face {
        font-family: "Virgil";
        src: url("https://excalidraw.com/Virgil.woff2");
      }
      @font-face {
        font-family: "Cascadia";
        src: url("https://excalidraw.com/Cascadia.woff2");
      }
      @font-face {
        font-family: "Assistant";
        src: url("https://excalidraw.com/Assistant-Regular.woff2");
      }
    </style>
    
  </defs>
  <g stroke-linecap="round"><g transform="translate(62.38670743340418 11.032029168307787) rotate(0 21.694194178071548 18.999122619628906)" fill-rule="evenodd"><path d="M-0.8 -0.23 C-0.69 6.77, -3.09 33.49, 0.61 40.19 C4.31 46.88, 14.35 43.95, 21.4 39.93 C28.46 35.91, 42.9 22.3, 42.92 16.06 C42.93 9.83, 28.48 5.14, 21.51 2.53 C14.55 -0.08, 4.67 1.18, 1.12 0.41" stroke="none" stroke-width="0" fill="#868e96" fill-rule="evenodd"/><path d="M-1.12 0.88 C-1.13 7.3, -2.73 32.74, 1.05 39 C4.82 45.25, 14.45 41.97, 21.54 38.38 C28.62 34.8, 43.43 23.7, 43.53 17.49 C43.64 11.28, 29.27 4.23, 22.16 1.14 C15.05 -1.95, 4.6 -0.73, 0.86 -1.03 M0.5 0.29 C0.29 6.36, -3 31.37, 0.44 37.4 C3.89 43.43, 13.91 39.64, 21.15 36.48 C28.38 33.32, 43.87 24.28, 43.85 18.46 C43.83 12.64, 28.49 4.47, 21.03 1.57 C13.57 -1.34, 2.54 1.09, -0.93 1.05" stroke="#1e1e1e" stroke-width="2" fill="none"/></g></g><mask/><g stroke-linecap="round"><g transform="translate(62.4259033203125 23.006318108737474) rotate(0 -16.6866455078125 0)"><path d="M-0.5 0.02 C-6 -0.06, -27.84 -0.41, -33.28 -0.42 M0.24 -0.45 C-5.29 -0.48, -28.06 -0.1, -33.66 0.06" stroke="#1e1e1e" stroke-width="2" fill="none"/></g></g><mask/><g stroke-linecap="round"><g transform="translate(61.044097900390625 39.19017125815154) rotate(0 -16.592132568359375 0)"><path d="M-0.11 0.55 C-5.58 0.41, -27.74 -0.2, -33.29 -0.26 M-0.83 0.35 C-6.34 0.52, -28.27 0.5, -33.78 0.31" stroke="#1e1e1e" stroke-width="2" fill="none"/></g></g><mask/><g stroke-linecap="round"><g transform="translate(107.26531982421875 28.40509130209685) rotate(0 15.010665893554688 0)"><path d="M-0.17 -0.09 C4.95 -0.03, 25.24 0.47, 30.23 0.43 M0.75 -0.61 C5.85 -0.7, 25.15 -0.44, 29.9 -0.31" stroke="#1e1e1e" stroke-width="2" fill="none"/></g></g><mask/><g transform="translate(10 11.474198357760912) rotate(0 3.8124414954496473 7.8832855224609375)"><text x="0" y="12.613524610581607" font-family="Helvetica, Segoe UI Emoji" font-size="13.710061778192937px" fill="#1e1e1e" text-anchor="start" style="white-space: pre;" direction="ltr" dominant-baseline="alphabetic">a</text></g><g transform="translate(10.186734529940964 29.115632073581224) rotate(0 3.8124237060546875 7.8832855224609375)"><text x="0" y="12.613524610581607" font-family="Helvetica, Segoe UI Emoji" font-size="13.710061778192937px" fill="#1e1e1e" text-anchor="start" style="white-space: pre;" direction="ltr" dominant-baseline="alphabetic">b</text></g><g transform="translate(144.48568472525346 18.82110692709685) rotate(0 15.437126159667969 7.8832855224609375)"><text x="0" y="12.613524610581607" font-family="Helvetica, Segoe UI Emoji" font-size="13.710061778192937px" fill="#1e1e1e" text-anchor="start" style="white-space: pre;" direction="ltr" dominant-baseline="alphabetic">a + b</text></g><g stroke-linecap="round"><g transform="translate(160.96510640150592 19.483831617385135) rotate(0 21.694194178071548 18.999122619628906)" fill-rule="evenodd"><path d="M-1.03 -0.91 C-0.21 5.95, -1.29 33.08, 2.74 39.76 C6.76 46.44, 16.7 43.06, 23.13 39.18 C29.56 35.31, 41.5 22.81, 41.33 16.51 C41.15 10.2, 28.57 4.4, 22.09 1.33 C15.6 -1.74, 6.31 -1.77, 2.42 -1.92" stroke="none" stroke-width="0" fill="#868e96" fill-rule="evenodd"/><path d="M0.64 -0.1 C0.44 6.42, -3.84 31.64, -0.57 38.05 C2.7 44.47, 13.04 41.75, 20.25 38.4 C27.46 35.04, 42.32 24.05, 42.68 17.93 C43.05 11.81, 29.41 4.52, 22.44 1.67 C15.47 -1.18, 4.49 1.24, 0.86 0.82 M-0.49 -1.2 C-0.38 5.62, -1.64 33.34, 1.63 39.62 C4.91 45.9, 12.36 39.92, 19.18 36.5 C26 33.09, 42.18 24.82, 42.56 19.13 C42.94 13.44, 28.71 5.53, 21.46 2.37 C14.21 -0.78, 2.36 0.43, -0.94 0.2" stroke="#1e1e1e" stroke-width="2" fill="none"/></g></g><mask/><g stroke-linecap="round"><g transform="translate(161.00430228841424 31.458120557814823) rotate(0 -16.6866455078125 0)"><path d="M-0.44 0.02 C-6.1 0.1, -28.09 0.38, -33.64 0.39 M0.33 -0.44 C-5.44 -0.51, -28.72 -0.57, -34.2 -0.37" stroke="#1e1e1e" stroke-width="2" fill="none"/></g></g><mask/><g stroke-linecap="round"><g transform="translate(159.62249686849236 47.641973707228885) rotate(0 -16.592132568359375 0)"><path d="M-0.26 0.39 C-5.77 0.4, -28.09 0.1, -33.51 0.08 M0.6 0.12 C-4.69 0.23, -26.86 0.95, -32.44 0.83" stroke="#1e1e1e" stroke-width="2" fill="none"/></g></g><mask/><g stroke-linecap="round"><g transform="translate(205.8437187923205 36.8568937511742) rotate(0 15.010665893554688 0)"><path d="M-0.32 0.08 C4.79 0.06, 25.33 0.23, 30.45 0.27 M0.51 -0.35 C5.62 -0.56, 25.28 -0.53, 30.24 -0.55" stroke="#1e1e1e" stroke-width="2" fill="none"/></g></g><mask/><g transform="translate(108.57839896810174 19.92600080683826) rotate(0 3.8124414954496473 7.8832855224609375)"><text x="0" y="12.613524610581607" font-family="Helvetica, Segoe UI Emoji" font-size="13.710061778192937px" fill="#1e1e1e" text-anchor="start" style="white-space: pre;" direction="ltr" dominant-baseline="alphabetic">a</text></g><g transform="translate(108.7651334980427 37.56743452265857) rotate(0 3.8124237060546875 7.8832855224609375)"><text x="0" y="12.613524610581607" font-family="Helvetica, Segoe UI Emoji" font-size="13.710061778192937px" fill="#1e1e1e" text-anchor="start" style="white-space: pre;" direction="ltr" dominant-baseline="alphabetic">b</text></g><g transform="translate(243.0640836933552 27.272909376174198) rotate(0 15.437126159667969 7.8832855224609375)"><text x="0" y="12.613524610581607" font-family="Helvetica, Segoe UI Emoji" font-size="13.710061778192937px" fill="#1e1e1e" text-anchor="start" style="white-space: pre;" direction="ltr" dominant-baseline="alphabetic">a + b</text></g></svg>