<svg version="1.1" xmlns="http://www.w3.org/2000/svg" viewBox="0 0 613.5817676326722 219.6708988675647" width="613.5817676326722" height="219.6708988675647" class="excalidraw-svg">
  <!-- svg-source:excalidraw -->
  
  <defs>
    <style class="style-fonts">
      @font-face {
        font-family: "Virgil";
        src: url("https://excalidraw.com/Virgil.woff2");
      }
      @font-face {
        font-family: "Cascadia";
        src: url("https://excalidraw.com/Cascadia.woff2");
      }
      @font-face {
        font-family: "Assistant";
        src: url("https://excalidraw.com/Assistant-Regular.woff2");
      }
    </style>
    
  </defs>
  <g stroke-linecap="round" transform="translate(11.690087127160893 10.197595058214489) rotate(0 22.750457763671875 20.067108154296875)"><path d="M0 0 L45.5 0 L45.5 40.13 L0 40.13" stroke="none" stroke-width="0" fill="#e9ecef"/><path d="M0 0 C16.52 0, 33.04 0, 45.5 0 M0 0 C17.18 0, 34.35 0, 45.5 0 M45.5 0 C45.5 8.19, 45.5 16.37, 45.5 40.13 M45.5 0 C45.5 11.87, 45.5 23.75, 45.5 40.13 M45.5 40.13 C34.7 40.13, 23.91 40.13, 0 40.13 M45.5 40.13 C35.86 40.13, 26.23 40.13, 0 40.13 M0 40.13 C0 27.75, 0 15.37, 0 0 M0 40.13 C0 26.38, 0 12.63, 0 0" stroke="#1e1e1e" stroke-width="2" fill="none"/></g><g transform="translate(27.77062301583277 18.764703212511364) rotate(0 6.669921875 11.5)"><text x="6.669921875" y="18.400390625" font-family="Helvetica, Segoe UI Emoji" font-size="20px" fill="#1e1e1e" text-anchor="middle" style="white-space: pre;" direction="ltr" dominant-baseline="alphabetic">S</text></g><g stroke-linecap="round" transform="translate(56.586770173535086 10) rotate(0 22.750457763671875 20.067108154296875)"><path d="M0 0 L45.5 0 L45.5 40.13 L0 40.13" stroke="none" stroke-width="0" fill="#e9ecef"/><path d="M0 0 C15.36 0, 30.73 0, 45.5 0 M0 0 C15.54 0, 31.09 0, 45.5 0 M45.5 0 C45.5 9.04, 45.5 18.08, 45.5 40.13 M45.5 0 C45.5 10.99, 45.5 21.98, 45.5 40.13 M45.5 40.13 C29.3 40.13, 13.09 40.13, 0 40.13 M45.5 40.13 C36.15 40.13, 26.81 40.13, 0 40.13 M0 40.13 C0 27.02, 0 13.9, 0 0 M0 40.13 C0 24.47, 0 8.8, 0 0" stroke="#1e1e1e" stroke-width="2" fill="none"/></g><g transform="translate(72.11554824970696 18.567108154296875) rotate(0 7.2216796875 11.5)"><text x="7.2216796875" y="18.400390625" font-family="Helvetica, Segoe UI Emoji" font-size="20px" fill="#1e1e1e" text-anchor="middle" style="white-space: pre;" direction="ltr" dominant-baseline="alphabetic">R</text></g><g stroke-linecap="round" transform="translate(103.22519861359041 10) rotate(0 22.75045776367188 20.067108154296875)"><path d="M0 0 L45.5 0 L45.5 40.13 L0 40.13" stroke="none" stroke-width="0" fill="#e9ecef"/><path d="M0 0 C14.4 0, 28.8 0, 45.5 0 M0 0 C12.81 0, 25.62 0, 45.5 0 M45.5 0 C45.5 9.38, 45.5 18.77, 45.5 40.13 M45.5 0 C45.5 13.45, 45.5 26.9, 45.5 40.13 M45.5 40.13 C33.71 40.13, 21.92 40.13, 0 40.13 M45.5 40.13 C30.15 40.13, 14.8 40.13, 0 40.13 M0 40.13 C0 30.9, 0 21.67, 0 0 M0 40.13 C0 31.71, 0 23.29, 0 0" stroke="#1e1e1e" stroke-width="2" fill="none"/></g><g transform="translate(118.19733606476228 18.567108154296875) rotate(0 7.7783203125 11.5)"><text x="7.7783203125" y="18.400390625" font-family="Helvetica, Segoe UI Emoji" font-size="20px" fill="#1e1e1e" text-anchor="middle" style="white-space: pre;" direction="ltr" dominant-baseline="alphabetic">Q</text></g><g stroke-linecap="round" transform="translate(148.21051198700673 10) rotate(0 22.75045776367188 20.067108154296875)"><path d="M0 0 L45.5 0 L45.5 40.13 L0 40.13" stroke="none" stroke-width="0" fill="#e9ecef"/><path d="M0 0 C12.46 0, 24.92 0, 45.5 0 M0 0 C13.4 0, 26.81 0, 45.5 0 M45.5 0 C45.5 11.1, 45.5 22.19, 45.5 40.13 M45.5 0 C45.5 15.07, 45.5 30.14, 45.5 40.13 M45.5 40.13 C33.32 40.13, 21.13 40.13, 0 40.13 M45.5 40.13 C33.42 40.13, 21.34 40.13, 0 40.13 M0 40.13 C0 30.22, 0 20.31, 0 0 M0 40.13 C0 26.61, 0 13.09, 0 0" stroke="#1e1e1e" stroke-width="2" fill="none"/></g><g transform="translate(161.2734697506786 18.567108154296875) rotate(0 9.6875 11.5)"><text x="9.6875" y="18.400390625" font-family="Helvetica, Segoe UI Emoji" font-size="20px" fill="#1e1e1e" text-anchor="middle" style="white-space: pre;" direction="ltr" dominant-baseline="alphabetic">Q'</text></g><g stroke-linecap="round" transform="translate(193.34778275253055 10) rotate(0 86.99552917480469 20.067108154296875)"><path d="M0 0 L173.99 0 L173.99 40.13 L0 40.13" stroke="none" stroke-width="0" fill="#e9ecef"/><path d="M0 0 C48.41 0, 96.83 0, 173.99 0 M0 0 C68.92 0, 137.84 0, 173.99 0 M173.99 0 C173.99 11.18, 173.99 22.36, 173.99 40.13 M173.99 0 C173.99 9.92, 173.99 19.85, 173.99 40.13 M173.99 40.13 C138.57 40.13, 103.14 40.13, 0 40.13 M173.99 40.13 C111.09 40.13, 48.18 40.13, 0 40.13 M0 40.13 C0 26.45, 0 12.77, 0 0 M0 40.13 C0 30.54, 0 20.95, 0 0" stroke="#1e1e1e" stroke-width="2" fill="none"/></g><g stroke-linecap="round" transform="translate(11.326760222528094 50.02845605036984) rotate(0 22.750457763671875 20.067108154296875)"><path d="M0 0 C12 0, 24.01 0, 45.5 0 M0 0 C10.71 0, 21.42 0, 45.5 0 M45.5 0 C45.5 12, 45.5 24, 45.5 40.13 M45.5 0 C45.5 14.31, 45.5 28.62, 45.5 40.13 M45.5 40.13 C28.95 40.13, 12.39 40.13, 0 40.13 M45.5 40.13 C32.06 40.13, 18.62 40.13, 0 40.13 M0 40.13 C0 31.15, 0 22.17, 0 0 M0 40.13 C0 26.88, 0 13.62, 0 0" stroke="#1e1e1e" stroke-width="2" fill="none"/></g><g transform="translate(28.51569454869997 58.595564204666715) rotate(0 5.5615234375 11.5)"><text x="5.5615234375" y="18.400390625" font-family="Helvetica, Segoe UI Emoji" font-size="20px" fill="#1e1e1e" text-anchor="middle" style="white-space: pre;" direction="ltr" dominant-baseline="alphabetic">0</text></g><g stroke-linecap="round" transform="translate(56.7949469744714 49.83390491866109) rotate(0 22.750457763671875 20.067108154296875)"><path d="M0 0 C13.4 0, 26.79 0, 45.5 0 M0 0 C10.85 0, 21.69 0, 45.5 0 M45.5 0 C45.5 8.2, 45.5 16.39, 45.5 40.13 M45.5 0 C45.5 8.91, 45.5 17.82, 45.5 40.13 M45.5 40.13 C35.64 40.13, 25.79 40.13, 0 40.13 M45.5 40.13 C33.98 40.13, 22.47 40.13, 0 40.13 M0 40.13 C0 26.18, 0 12.22, 0 0 M0 40.13 C0 26.21, 0 12.28, 0 0" stroke="#1e1e1e" stroke-width="2" fill="none"/></g><g transform="translate(73.98388130064328 58.401013072957966) rotate(0 5.5615234375 11.5)"><text x="5.5615234375" y="18.400390625" font-family="Helvetica, Segoe UI Emoji" font-size="20px" fill="#1e1e1e" text-anchor="middle" style="white-space: pre;" direction="ltr" dominant-baseline="alphabetic">0</text></g><g stroke-linecap="round" transform="translate(103.23578035631226 49.83390491866109) rotate(0 22.75045776367188 20.067108154296875)"><path d="M0 0 C15.13 0, 30.26 0, 45.5 0 M0 0 C10.14 0, 20.28 0, 45.5 0 M45.5 0 C45.5 11.46, 45.5 22.93, 45.5 40.13 M45.5 0 C45.5 14.59, 45.5 29.18, 45.5 40.13 M45.5 40.13 C32.98 40.13, 20.45 40.13, 0 40.13 M45.5 40.13 C29.78 40.13, 14.06 40.13, 0 40.13 M0 40.13 C0 27.36, 0 14.6, 0 0 M0 40.13 C0 25.25, 0 10.36, 0 0" stroke="#1e1e1e" stroke-width="2" fill="none"/></g><g transform="translate(111.54287874498414 58.401013072957966) rotate(0 14.443359375 11.5)"><text x="14.443359375" y="18.400390625" font-family="Helvetica, Segoe UI Emoji" font-size="20px" fill="#1e1e1e" text-anchor="middle" style="white-space: pre;" direction="ltr" dominant-baseline="alphabetic">NC</text></g><g stroke-linecap="round" transform="translate(148.0234986715141 49.65150347650945) rotate(0 22.75045776367188 20.067108154296875)"><path d="M0 0 C14.47 0, 28.93 0, 45.5 0 M0 0 C12.96 0, 25.91 0, 45.5 0 M45.5 0 C45.5 9.48, 45.5 18.97, 45.5 40.13 M45.5 0 C45.5 10.99, 45.5 21.98, 45.5 40.13 M45.5 40.13 C32.5 40.13, 19.49 40.13, 0 40.13 M45.5 40.13 C29.01 40.13, 12.53 40.13, 0 40.13 M0 40.13 C0 30.73, 0 21.33, 0 0 M0 40.13 C0 24.53, 0 8.92, 0 0" stroke="#1e1e1e" stroke-width="2" fill="none"/></g><g transform="translate(156.33059706018597 58.21861163080632) rotate(0 14.443359375 11.5)"><text x="14.443359375" y="18.400390625" font-family="Helvetica, Segoe UI Emoji" font-size="20px" fill="#1e1e1e" text-anchor="middle" style="white-space: pre;" direction="ltr" dominant-baseline="alphabetic">NC</text></g><g stroke-linecap="round" transform="translate(193.35836449525237 49.83390491866109) rotate(0 86.99552917480469 20.067108154296875)"><path d="M0 0 C58.19 0, 116.39 0, 173.99 0 M0 0 C48.08 0, 96.16 0, 173.99 0 M173.99 0 C173.99 11.76, 173.99 23.52, 173.99 40.13 M173.99 0 C173.99 8.12, 173.99 16.23, 173.99 40.13 M173.99 40.13 C115.12 40.13, 56.25 40.13, 0 40.13 M173.99 40.13 C130.57 40.13, 87.16 40.13, 0 40.13 M0 40.13 C0 26.53, 0 12.92, 0 0 M0 40.13 C0 26.34, 0 12.55, 0 0" stroke="#1e1e1e" stroke-width="2" fill="none"/></g><g transform="translate(229.00195590101788 58.07858827037248) rotate(0 51.1474609375 11.5)"><text x="0" y="18.400390625" font-family="Helvetica, Segoe UI Emoji" font-size="20px" fill="#1e1e1e" text-anchor="start" style="white-space: pre;" direction="ltr" dominant-baseline="alphabetic">No change.</text></g><g stroke-linecap="round" transform="translate(10.534838060696643 89.87927232107214) rotate(0 22.750457763671875 20.067108154296875)"><path d="M0 0 C14.33 0, 28.66 0, 45.5 0 M0 0 C9.32 0, 18.64 0, 45.5 0 M45.5 0 C45.5 11.81, 45.5 23.61, 45.5 40.13 M45.5 0 C45.5 11.77, 45.5 23.55, 45.5 40.13 M45.5 40.13 C27.73 40.13, 9.96 40.13, 0 40.13 M45.5 40.13 C27.67 40.13, 9.83 40.13, 0 40.13 M0 40.13 C0 27.19, 0 14.25, 0 0 M0 40.13 C0 26.18, 0 12.22, 0 0" stroke="#1e1e1e" stroke-width="2" fill="none"/></g><g transform="translate(27.723772386868518 98.44638047536901) rotate(0 5.5615234375 11.5)"><text x="5.5615234375" y="18.400390625" font-family="Helvetica, Segoe UI Emoji" font-size="20px" fill="#1e1e1e" text-anchor="middle" style="white-space: pre;" direction="ltr" dominant-baseline="alphabetic">1</text></g><g stroke-linecap="round" transform="translate(56.20366379736015 89.68472118936339) rotate(0 22.750457763671875 20.067108154296875)"><path d="M0 0 C15.04 0, 30.08 0, 45.5 0 M0 0 C10.86 0, 21.72 0, 45.5 0 M45.5 0 C45.5 9.45, 45.5 18.9, 45.5 40.13 M45.5 0 C45.5 11.6, 45.5 23.2, 45.5 40.13 M45.5 40.13 C32.08 40.13, 18.65 40.13, 0 40.13 M45.5 40.13 C30.02 40.13, 14.54 40.13, 0 40.13 M0 40.13 C0 31.52, 0 22.91, 0 0 M0 40.13 C0 29.49, 0 18.84, 0 0" stroke="#1e1e1e" stroke-width="2" fill="none"/></g><g transform="translate(73.39259812353203 98.25182934366026) rotate(0 5.5615234375 11.5)"><text x="5.5615234375" y="18.400390625" font-family="Helvetica, Segoe UI Emoji" font-size="20px" fill="#1e1e1e" text-anchor="middle" style="white-space: pre;" direction="ltr" dominant-baseline="alphabetic">0</text></g><g stroke-linecap="round" transform="translate(102.44385819448081 89.68472118936339) rotate(0 22.75045776367188 20.067108154296875)"><path d="M0 0 C13.47 0, 26.93 0, 45.5 0 M0 0 C9.71 0, 19.42 0, 45.5 0 M45.5 0 C45.5 9.24, 45.5 18.48, 45.5 40.13 M45.5 0 C45.5 11.87, 45.5 23.73, 45.5 40.13 M45.5 40.13 C35.44 40.13, 25.37 40.13, 0 40.13 M45.5 40.13 C32.73 40.13, 19.96 40.13, 0 40.13 M0 40.13 C0 31.69, 0 23.25, 0 0 M0 40.13 C0 31.42, 0 22.71, 0 0" stroke="#1e1e1e" stroke-width="2" fill="none"/></g><g transform="translate(119.63279252065269 98.25182934366026) rotate(0 5.5615234375 11.5)"><text x="5.5615234375" y="18.400390625" font-family="Helvetica, Segoe UI Emoji" font-size="20px" fill="#1e1e1e" text-anchor="middle" style="white-space: pre;" direction="ltr" dominant-baseline="alphabetic">1</text></g><g stroke-linecap="round" transform="translate(147.23157650968264 89.50231974721177) rotate(0 22.75045776367188 20.067108154296875)"><path d="M0 0 C10.84 0, 21.68 0, 45.5 0 M0 0 C17.77 0, 35.54 0, 45.5 0 M45.5 0 C45.5 12.16, 45.5 24.32, 45.5 40.13 M45.5 0 C45.5 9.16, 45.5 18.32, 45.5 40.13 M45.5 40.13 C32.31 40.13, 19.11 40.13, 0 40.13 M45.5 40.13 C32.7 40.13, 19.89 40.13, 0 40.13 M0 40.13 C0 30.99, 0 21.85, 0 0 M0 40.13 C0 27.12, 0 14.1, 0 0" stroke="#1e1e1e" stroke-width="2" fill="none"/></g><g transform="translate(164.42051083585451 98.06942790150865) rotate(0 5.5615234375 11.5)"><text x="5.5615234375" y="18.400390625" font-family="Helvetica, Segoe UI Emoji" font-size="20px" fill="#1e1e1e" text-anchor="middle" style="white-space: pre;" direction="ltr" dominant-baseline="alphabetic">0</text></g><g stroke-linecap="round" transform="translate(192.76708131814115 89.68472118936339) rotate(0 86.99552917480469 20.067108154296875)"><path d="M0 0 C59.33 0, 118.66 0, 173.99 0 M0 0 C65.38 0, 130.76 0, 173.99 0 M173.99 0 C173.99 9.38, 173.99 18.76, 173.99 40.13 M173.99 0 C173.99 13.86, 173.99 27.73, 173.99 40.13 M173.99 40.13 C108.11 40.13, 42.22 40.13, 0 40.13 M173.99 40.13 C112.37 40.13, 50.75 40.13, 0 40.13 M0 40.13 C0 26.45, 0 12.76, 0 0 M0 40.13 C0 30.01, 0 19.89, 0 0" stroke="#1e1e1e" stroke-width="2" fill="none"/></g><g transform="translate(228.41067272390666 97.92940454107477) rotate(0 46.689453125 11.5)"><text x="0" y="18.400390625" font-family="Helvetica, Segoe UI Emoji" font-size="20px" fill="#1e1e1e" text-anchor="start" style="white-space: pre;" direction="ltr" dominant-baseline="alphabetic">Latch SET</text></g><g stroke-linecap="round" transform="translate(10.791922161831451 129.4123402545332) rotate(0 22.750457763671875 20.067108154296875)"><path d="M0 0 C12.23 0, 24.47 0, 45.5 0 M0 0 C13.45 0, 26.89 0, 45.5 0 M45.5 0 C45.5 11.11, 45.5 22.21, 45.5 40.13 M45.5 0 C45.5 11.64, 45.5 23.29, 45.5 40.13 M45.5 40.13 C30.8 40.13, 16.09 40.13, 0 40.13 M45.5 40.13 C35.7 40.13, 25.9 40.13, 0 40.13 M0 40.13 C0 31.28, 0 22.43, 0 0 M0 40.13 C0 31.39, 0 22.64, 0 0" stroke="#1e1e1e" stroke-width="2" fill="none"/></g><g transform="translate(27.980856488003326 137.97944840883008) rotate(0 5.5615234375 11.5)"><text x="5.5615234375" y="18.400390625" font-family="Helvetica, Segoe UI Emoji" font-size="20px" fill="#1e1e1e" text-anchor="middle" style="white-space: pre;" direction="ltr" dominant-baseline="alphabetic">0</text></g><g stroke-linecap="round" transform="translate(56.260108913774786 129.21778912282446) rotate(0 22.750457763671875 20.067108154296875)"><path d="M0 0 C17.46 0, 34.92 0, 45.5 0 M0 0 C16.79 0, 33.58 0, 45.5 0 M45.5 0 C45.5 14.19, 45.5 28.37, 45.5 40.13 M45.5 0 C45.5 11.62, 45.5 23.24, 45.5 40.13 M45.5 40.13 C32.2 40.13, 18.89 40.13, 0 40.13 M45.5 40.13 C29.53 40.13, 13.56 40.13, 0 40.13 M0 40.13 C0 25.1, 0 10.06, 0 0 M0 40.13 C0 26.05, 0 11.96, 0 0" stroke="#1e1e1e" stroke-width="2" fill="none"/></g><g transform="translate(73.44904323994666 137.78489727712133) rotate(0 5.5615234375 11.5)"><text x="5.5615234375" y="18.400390625" font-family="Helvetica, Segoe UI Emoji" font-size="20px" fill="#1e1e1e" text-anchor="middle" style="white-space: pre;" direction="ltr" dominant-baseline="alphabetic">1</text></g><g stroke-linecap="round" transform="translate(102.41889485983972 129.21778912282446) rotate(0 22.75045776367188 20.067108154296875)"><path d="M0 0 C14.59 0, 29.18 0, 45.5 0 M0 0 C13.26 0, 26.52 0, 45.5 0 M45.5 0 C45.5 12.35, 45.5 24.7, 45.5 40.13 M45.5 0 C45.5 9.29, 45.5 18.57, 45.5 40.13 M45.5 40.13 C31.45 40.13, 17.4 40.13, 0 40.13 M45.5 40.13 C28.04 40.13, 10.58 40.13, 0 40.13 M0 40.13 C0 27.71, 0 15.29, 0 0 M0 40.13 C0 26.22, 0 12.31, 0 0" stroke="#1e1e1e" stroke-width="2" fill="none"/></g><g transform="translate(119.6078291860116 137.78489727712133) rotate(0 5.5615234375 11.5)"><text x="5.5615234375" y="18.400390625" font-family="Helvetica, Segoe UI Emoji" font-size="20px" fill="#1e1e1e" text-anchor="middle" style="white-space: pre;" direction="ltr" dominant-baseline="alphabetic">0</text></g><g stroke-linecap="round" transform="translate(147.48866061081745 129.03538768067278) rotate(0 22.75045776367188 20.067108154296875)"><path d="M0 0 C14.95 0, 29.91 0, 45.5 0 M0 0 C16.04 0, 32.08 0, 45.5 0 M45.5 0 C45.5 11.46, 45.5 22.92, 45.5 40.13 M45.5 0 C45.5 14.41, 45.5 28.81, 45.5 40.13 M45.5 40.13 C31.16 40.13, 16.83 40.13, 0 40.13 M45.5 40.13 C35.95 40.13, 26.4 40.13, 0 40.13 M0 40.13 C0 29.5, 0 18.87, 0 0 M0 40.13 C0 29.92, 0 19.71, 0 0" stroke="#1e1e1e" stroke-width="2" fill="none"/></g><g transform="translate(164.67759493698932 137.60249583496966) rotate(0 5.5615234375 11.5)"><text x="5.5615234375" y="18.400390625" font-family="Helvetica, Segoe UI Emoji" font-size="20px" fill="#1e1e1e" text-anchor="middle" style="white-space: pre;" direction="ltr" dominant-baseline="alphabetic">1</text></g><g stroke-linecap="round" transform="translate(192.82352643455573 129.21778912282446) rotate(0 86.99552917480469 20.067108154296875)"><path d="M0 0 C37.08 0, 74.17 0, 173.99 0 M0 0 C67.2 0, 134.41 0, 173.99 0 M173.99 0 C173.99 15.62, 173.99 31.23, 173.99 40.13 M173.99 0 C173.99 10.39, 173.99 20.78, 173.99 40.13 M173.99 40.13 C137.37 40.13, 100.74 40.13, 0 40.13 M173.99 40.13 C127.12 40.13, 80.24 40.13, 0 40.13 M0 40.13 C0 30.63, 0 21.13, 0 0 M0 40.13 C0 29.4, 0 18.67, 0 0" stroke="#1e1e1e" stroke-width="2" fill="none"/></g><g transform="translate(219.4075142873313 137.46247247453584) rotate(0 60.5810546875 11.5)"><text x="0" y="18.400390625" font-family="Helvetica, Segoe UI Emoji" font-size="20px" fill="#1e1e1e" text-anchor="start" style="white-space: pre;" direction="ltr" dominant-baseline="alphabetic">Latch RESET</text></g><g stroke-linecap="round" transform="translate(10 169.53668255897094) rotate(0 22.750457763671875 20.067108154296875)"><path d="M0 0 L45.5 0 L45.5 40.13 L0 40.13" stroke="none" stroke-width="0" fill="#ffc9c9"/><path d="M0 0 C15.28 0, 30.56 0, 45.5 0 M0 0 C16.83 0, 33.66 0, 45.5 0 M45.5 0 C45.5 11.11, 45.5 22.23, 45.5 40.13 M45.5 0 C45.5 10.51, 45.5 21.02, 45.5 40.13 M45.5 40.13 C34.11 40.13, 22.71 40.13, 0 40.13 M45.5 40.13 C29.76 40.13, 14.02 40.13, 0 40.13 M0 40.13 C0 24.99, 0 9.85, 0 0 M0 40.13 C0 27.19, 0 14.25, 0 0" stroke="#1e1e1e" stroke-width="2" fill="none"/></g><g transform="translate(27.188934326171875 178.1037907132678) rotate(0 5.5615234375 11.5)"><text x="5.5615234375" y="18.400390625" font-family="Helvetica, Segoe UI Emoji" font-size="20px" fill="#1e1e1e" text-anchor="middle" style="white-space: pre;" direction="ltr" dominant-baseline="alphabetic">1</text></g><g stroke-linecap="round" transform="translate(55.933793795817564 169.3421314272622) rotate(0 22.750457763671875 20.067108154296875)"><path d="M0 0 L45.5 0 L45.5 40.13 L0 40.13" stroke="none" stroke-width="0" fill="#ffc9c9"/><path d="M0 0 C9.76 0, 19.51 0, 45.5 0 M0 0 C10.22 0, 20.44 0, 45.5 0 M45.5 0 C45.5 14.6, 45.5 29.2, 45.5 40.13 M45.5 0 C45.5 9.72, 45.5 19.45, 45.5 40.13 M45.5 40.13 C34.29 40.13, 23.08 40.13, 0 40.13 M45.5 40.13 C28.81 40.13, 12.11 40.13, 0 40.13 M0 40.13 C0 24.28, 0 8.42, 0 0 M0 40.13 C0 28.1, 0 16.06, 0 0" stroke="#1e1e1e" stroke-width="2" fill="none"/></g><g transform="translate(73.12272812198944 177.90923958155906) rotate(0 5.5615234375 11.5)"><text x="5.5615234375" y="18.400390625" font-family="Helvetica, Segoe UI Emoji" font-size="20px" fill="#1e1e1e" text-anchor="middle" style="white-space: pre;" direction="ltr" dominant-baseline="alphabetic">1</text></g><g stroke-linecap="round" transform="translate(101.90902013378417 169.3421314272622) rotate(0 22.75045776367188 20.067108154296875)"><path d="M0 0 L45.5 0 L45.5 40.13 L0 40.13" stroke="none" stroke-width="0" fill="#ffc9c9"/><path d="M0 0 C14.7 0, 29.41 0, 45.5 0 M0 0 C9.8 0, 19.6 0, 45.5 0 M45.5 0 C45.5 8.85, 45.5 17.71, 45.5 40.13 M45.5 0 C45.5 8.75, 45.5 17.5, 45.5 40.13 M45.5 40.13 C28.83 40.13, 12.16 40.13, 0 40.13 M45.5 40.13 C36.24 40.13, 26.97 40.13, 0 40.13 M0 40.13 C0 25.89, 0 11.64, 0 0 M0 40.13 C0 31.13, 0 22.13, 0 0" stroke="#1e1e1e" stroke-width="2" fill="none"/></g><g transform="translate(119.09795445995604 177.90923958155906) rotate(0 5.5615234375 11.5)"><text x="5.5615234375" y="18.400390625" font-family="Helvetica, Segoe UI Emoji" font-size="20px" fill="#1e1e1e" text-anchor="middle" style="white-space: pre;" direction="ltr" dominant-baseline="alphabetic">0</text></g><g stroke-linecap="round" transform="translate(146.696738448986 169.15972998511057) rotate(0 22.75045776367188 20.067108154296875)"><path d="M0 0 L45.5 0 L45.5 40.13 L0 40.13" stroke="none" stroke-width="0" fill="#ffc9c9"/><path d="M0 0 C13.3 0, 26.61 0, 45.5 0 M0 0 C15.97 0, 31.94 0, 45.5 0 M45.5 0 C45.5 15.04, 45.5 30.08, 45.5 40.13 M45.5 0 C45.5 14.08, 45.5 28.17, 45.5 40.13 M45.5 40.13 C30.29 40.13, 15.07 40.13, 0 40.13 M45.5 40.13 C33.18 40.13, 20.85 40.13, 0 40.13 M0 40.13 C0 28.99, 0 17.84, 0 0 M0 40.13 C0 29.56, 0 18.98, 0 0" stroke="#1e1e1e" stroke-width="2" fill="none"/></g><g transform="translate(163.88567277515787 177.72683813940745) rotate(0 5.5615234375 11.5)"><text x="5.5615234375" y="18.400390625" font-family="Helvetica, Segoe UI Emoji" font-size="20px" fill="#1e1e1e" text-anchor="middle" style="white-space: pre;" direction="ltr" dominant-baseline="alphabetic">0</text></g><g stroke-linecap="round" transform="translate(192.2322432574445 169.3421314272622) rotate(0 86.99552917480469 20.067108154296875)"><path d="M0 0 L173.99 0 L173.99 40.13 L0 40.13" stroke="none" stroke-width="0" fill="#ffc9c9"/><path d="M0 0 C53.72 0, 107.44 0, 173.99 0 M0 0 C66.77 0, 133.53 0, 173.99 0 M173.99 0 C173.99 12.42, 173.99 24.85, 173.99 40.13 M173.99 0 C173.99 13.91, 173.99 27.83, 173.99 40.13 M173.99 40.13 C133.82 40.13, 93.65 40.13, 0 40.13 M173.99 40.13 C117.03 40.13, 60.06 40.13, 0 40.13 M0 40.13 C0 26.46, 0 12.78, 0 0 M0 40.13 C0 26.9, 0 13.68, 0 0" stroke="#1e1e1e" stroke-width="2" fill="none"/></g><g transform="translate(245.39254572964472 177.58681477897358) rotate(0 28.90625 11.5)"><text x="0" y="18.400390625" font-family="Helvetica, Segoe UI Emoji" font-size="20px" fill="#1e1e1e" text-anchor="start" style="white-space: pre;" direction="ltr" dominant-baseline="alphabetic">Invalid</text></g><g stroke-linecap="round" transform="translate(467.3326681103192 23.523048872264866) rotate(0 68.12454976117644 86.34423992340552)"><path d="M0 0 C44.61 0, 89.22 0, 136.25 0 M0 0 C52.3 0, 104.61 0, 136.25 0 M136.25 0 C136.25 59.02, 136.25 118.04, 136.25 172.69 M136.25 0 C136.25 36.46, 136.25 72.92, 136.25 172.69 M136.25 172.69 C96.82 172.69, 57.39 172.69, 0 172.69 M136.25 172.69 C83.63 172.69, 31.01 172.69, 0 172.69 M0 172.69 C0 117.71, 0 62.73, 0 0 M0 172.69 C0 129.27, 0 85.85, 0 0" stroke="#1e1e1e" stroke-width="2" fill="none"/></g><g stroke-linecap="round"><g transform="translate(415.99191485665614 93.0385637844042) rotate(0 25.311398431994334 0)"><path d="M0 0 C16.93 0, 33.86 0, 50.62 0 M0 0 C18 0, 36 0, 50.62 0" stroke="#1e1e1e" stroke-width="2" fill="none"/></g></g><mask/><g stroke-linecap="round"><g transform="translate(417.49614346576686 132.56334995323434) rotate(0 25.384049784583638 0)"><path d="M0 0 C17.84 0, 35.67 0, 50.77 0 M0 0 C18.44 0, 36.89 0, 50.77 0" stroke="#1e1e1e" stroke-width="2" fill="none"/></g></g><mask/><g transform="translate(485.10147286313224 78.45341616885199) rotate(0 6.669921875 11.5)"><text x="0" y="18.400390625" font-family="Helvetica, Segoe UI Emoji" font-size="20px" fill="#1e1e1e" text-anchor="start" style="white-space: pre;" direction="ltr" dominant-baseline="alphabetic">S</text></g><g transform="translate(485.32883963022834 120.0719049407281) rotate(0 7.2216796875 11.5)"><text x="0" y="18.400390625" font-family="Helvetica, Segoe UI Emoji" font-size="20px" fill="#1e1e1e" text-anchor="start" style="white-space: pre;" direction="ltr" dominant-baseline="alphabetic">R</text></g><g transform="translate(484.7873427754464 89.86969829107693) rotate(0 6.669921875 11.5)"><text x="0" y="18.400390625" font-family="Helvetica, Segoe UI Emoji" font-size="20px" fill="#1e1e1e" text-anchor="start" style="white-space: pre;" direction="ltr" dominant-baseline="alphabetic">S</text></g><g transform="translate(485.0147095425425 131.48818706295305) rotate(0 7.2216796875 11.5)"><text x="0" y="18.400390625" font-family="Helvetica, Segoe UI Emoji" font-size="20px" fill="#1e1e1e" text-anchor="start" style="white-space: pre;" direction="ltr" dominant-baseline="alphabetic">R</text></g></svg>