<svg version="1.1" xmlns="http://www.w3.org/2000/svg" viewBox="0 0 1022.9262162487232 241.89145967900333" width="1022.9262162487232" height="241.89145967900333" class="excalidraw-svg">
  <!-- svg-source:excalidraw -->
  
  <defs>
    <style class="style-fonts">
      @font-face {
        font-family: "Virgil";
        src: url("https://excalidraw.com/Virgil.woff2");
      }
      @font-face {
        font-family: "Cascadia";
        src: url("https://excalidraw.com/Cascadia.woff2");
      }
      @font-face {
        font-family: "Assistant";
        src: url("https://excalidraw.com/Assistant-Regular.woff2");
      }
    </style>
    
  </defs>
  <g stroke-linecap="round" transform="translate(659.8088680417744 10) rotate(0 176.5586741034744 110.94572983950167)"><path d="M32 0 C105.99 0, 179.98 0, 321.12 0 C342.45 0, 353.12 10.67, 353.12 32 C353.12 75.36, 353.12 118.71, 353.12 189.89 C353.12 211.22, 342.45 221.89, 321.12 221.89 C244.6 221.89, 168.08 221.89, 32 221.89 C10.67 221.89, 0 211.22, 0 189.89 C0 130.02, 0 70.15, 0 32 C0 10.67, 10.67 0, 32 0" stroke="none" stroke-width="0" fill="#a5d8ff"/><path d="M32 0 C91.08 0, 150.16 0, 321.12 0 M32 0 C126.78 0, 221.57 0, 321.12 0 M321.12 0 C342.45 0, 353.12 10.67, 353.12 32 M321.12 0 C342.45 0, 353.12 10.67, 353.12 32 M353.12 32 C353.12 71.15, 353.12 110.3, 353.12 189.89 M353.12 32 C353.12 80.6, 353.12 129.21, 353.12 189.89 M353.12 189.89 C353.12 211.22, 342.45 221.89, 321.12 221.89 M353.12 189.89 C353.12 211.22, 342.45 221.89, 321.12 221.89 M321.12 221.89 C215.79 221.89, 110.46 221.89, 32 221.89 M321.12 221.89 C254.32 221.89, 187.53 221.89, 32 221.89 M32 221.89 C10.67 221.89, 0 211.22, 0 189.89 M32 221.89 C10.67 221.89, 0 211.22, 0 189.89 M0 189.89 C0 132.1, 0 74.31, 0 32 M0 189.89 C0 152.67, 0 115.44, 0 32 M0 32 C0 10.67, 10.67 0, 32 0 M0 32 C0 10.67, 10.67 0, 32 0" stroke="transparent" stroke-width="2" fill="none"/></g><g stroke-linecap="round"><g transform="translate(325.31002913413454 29.125478121973515) rotate(0 25.67536163330078 18.3129654255697)"><path d="M0 0 C0 6.42, -5.99 32.22, 0 38.55 C5.99 44.87, 27.38 41.13, 35.94 37.95 C44.5 34.77, 50.89 26.1, 51.35 19.45 C51.81 12.81, 47.25 1.32, 38.69 -1.92 C30.13 -5.16, 6.45 -0.32, 0 0 M0 0 C0 6.42, -5.99 32.22, 0 38.55 C5.99 44.87, 27.38 41.13, 35.94 37.95 C44.5 34.77, 50.89 26.1, 51.35 19.45 C51.81 12.81, 47.25 1.32, 38.69 -1.92 C30.13 -5.16, 6.45 -0.32, 0 0" stroke="#1e1e1e" stroke-width="2" fill="none"/></g></g><mask/><g stroke-linecap="round" transform="translate(377.87893645895304 41.38147482607508) rotate(0 5.953277587890625 5.953277587890625)"><path d="M11.91 5.95 C11.91 6.3, 11.88 6.65, 11.82 6.99 C11.76 7.33, 11.67 7.67, 11.55 7.99 C11.43 8.31, 11.28 8.63, 11.11 8.93 C10.94 9.23, 10.74 9.52, 10.51 9.78 C10.29 10.04, 10.04 10.29, 9.78 10.51 C9.52 10.74, 9.23 10.94, 8.93 11.11 C8.63 11.28, 8.31 11.43, 7.99 11.55 C7.67 11.67, 7.33 11.76, 6.99 11.82 C6.65 11.88, 6.3 11.91, 5.95 11.91 C5.61 11.91, 5.26 11.88, 4.92 11.82 C4.58 11.76, 4.24 11.67, 3.92 11.55 C3.59 11.43, 3.28 11.28, 2.98 11.11 C2.68 10.94, 2.39 10.74, 2.13 10.51 C1.86 10.29, 1.61 10.04, 1.39 9.78 C1.17 9.52, 0.97 9.23, 0.8 8.93 C0.63 8.63, 0.48 8.31, 0.36 7.99 C0.24 7.67, 0.15 7.33, 0.09 6.99 C0.03 6.65, 0 6.3, 0 5.95 C0 5.61, 0.03 5.26, 0.09 4.92 C0.15 4.58, 0.24 4.24, 0.36 3.92 C0.48 3.59, 0.63 3.28, 0.8 2.98 C0.97 2.68, 1.17 2.39, 1.39 2.13 C1.61 1.86, 1.86 1.61, 2.13 1.39 C2.39 1.17, 2.68 0.97, 2.98 0.8 C3.28 0.63, 3.59 0.48, 3.92 0.36 C4.24 0.24, 4.58 0.15, 4.92 0.09 C5.26 0.03, 5.61 0, 5.95 0 C6.3 0, 6.65 0.03, 6.99 0.09 C7.33 0.15, 7.67 0.24, 7.99 0.36 C8.31 0.48, 8.63 0.63, 8.93 0.8 C9.23 0.97, 9.52 1.17, 9.78 1.39 C10.04 1.61, 10.29 1.86, 10.51 2.13 C10.74 2.39, 10.94 2.68, 11.11 2.98 C11.28 3.28, 11.43 3.59, 11.55 3.92 C11.67 4.24, 11.76 4.58, 11.82 4.92 C11.88 5.26, 11.89 5.78, 11.91 5.95 C11.92 6.13, 11.92 5.78, 11.91 5.95" stroke="#1e1e1e" stroke-width="2" fill="none"/></g><g stroke-linecap="round"><g transform="translate(321.88272364627903 170.09992273335308) rotate(0 25.67536163330078 18.3129654255697)"><path d="M0 0 C0 6.42, -5.99 32.22, 0 38.55 C5.99 44.87, 27.38 41.13, 35.94 37.95 C44.5 34.77, 50.89 26.1, 51.35 19.45 C51.81 12.81, 47.25 1.32, 38.69 -1.92 C30.13 -5.16, 6.45 -0.32, 0 0 M0 0 C0 6.42, -5.99 32.22, 0 38.55 C5.99 44.87, 27.38 41.13, 35.94 37.95 C44.5 34.77, 50.89 26.1, 51.35 19.45 C51.81 12.81, 47.25 1.32, 38.69 -1.92 C30.13 -5.16, 6.45 -0.32, 0 0" stroke="#1e1e1e" stroke-width="2" fill="none"/></g></g><mask/><g stroke-linecap="round" transform="translate(372.65487528864537 180.53915066971769) rotate(0 5.953277587890625 5.953277587890625)"><path d="M11.91 5.95 C11.91 6.3, 11.88 6.65, 11.82 6.99 C11.76 7.33, 11.67 7.67, 11.55 7.99 C11.43 8.31, 11.28 8.63, 11.11 8.93 C10.94 9.23, 10.74 9.52, 10.51 9.78 C10.29 10.04, 10.04 10.29, 9.78 10.51 C9.52 10.74, 9.23 10.94, 8.93 11.11 C8.63 11.28, 8.31 11.43, 7.99 11.55 C7.67 11.67, 7.33 11.76, 6.99 11.82 C6.65 11.88, 6.3 11.91, 5.95 11.91 C5.61 11.91, 5.26 11.88, 4.92 11.82 C4.58 11.76, 4.24 11.67, 3.92 11.55 C3.59 11.43, 3.28 11.28, 2.98 11.11 C2.68 10.94, 2.39 10.74, 2.13 10.51 C1.86 10.29, 1.61 10.04, 1.39 9.78 C1.17 9.52, 0.97 9.23, 0.8 8.93 C0.63 8.63, 0.48 8.31, 0.36 7.99 C0.24 7.67, 0.15 7.33, 0.09 6.99 C0.03 6.65, 0 6.3, 0 5.95 C0 5.61, 0.03 5.26, 0.09 4.92 C0.15 4.58, 0.24 4.24, 0.36 3.92 C0.48 3.59, 0.63 3.28, 0.8 2.98 C0.97 2.68, 1.17 2.39, 1.39 2.13 C1.61 1.86, 1.86 1.61, 2.13 1.39 C2.39 1.17, 2.68 0.97, 2.98 0.8 C3.28 0.63, 3.59 0.48, 3.92 0.36 C4.24 0.24, 4.58 0.15, 4.92 0.09 C5.26 0.03, 5.61 0, 5.95 0 C6.3 0, 6.65 0.03, 6.99 0.09 C7.33 0.15, 7.67 0.24, 7.99 0.36 C8.31 0.48, 8.63 0.63, 8.93 0.8 C9.23 0.97, 9.52 1.17, 9.78 1.39 C10.04 1.61, 10.29 1.86, 10.51 2.13 C10.74 2.39, 10.94 2.68, 11.11 2.98 C11.28 3.28, 11.43 3.59, 11.55 3.92 C11.67 4.24, 11.76 4.58, 11.82 4.92 C11.88 5.26, 11.89 5.78, 11.91 5.95 C11.92 6.13, 11.92 5.78, 11.91 5.95" stroke="#1e1e1e" stroke-width="2" fill="none"/></g><g stroke-linecap="round"><g transform="translate(452.2243304460112 33.58083939333244) rotate(0 36.281280517578125 22.263702392578125)"><path d="M0 0 C2.88 4.1, 17.21 17.09, 17.27 24.58 C17.33 32.07, -6.86 41.51, 0.38 44.94 C7.63 48.37, 48.7 49.09, 60.73 45.18 C72.76 41.28, 73.42 29.15, 72.56 21.51 C71.7 13.87, 67.68 2.93, 55.58 -0.66 C43.49 -4.24, 9.26 -0.11, 0 0 M0 0 C2.88 4.1, 17.21 17.09, 17.27 24.58 C17.33 32.07, -6.86 41.51, 0.38 44.94 C7.63 48.37, 48.7 49.09, 60.73 45.18 C72.76 41.28, 73.42 29.15, 72.56 21.51 C71.7 13.87, 67.68 2.93, 55.58 -0.66 C43.49 -4.24, 9.26 -0.11, 0 0" stroke="#1e1e1e" stroke-width="2" fill="none"/></g></g><mask/><g stroke-linecap="round"><g transform="translate(449.92774652340813 153.62674231749207) rotate(0 36.281280517578125 22.263702392578125)"><path d="M0 0 C2.88 4.1, 17.21 17.09, 17.27 24.58 C17.33 32.07, -6.86 41.51, 0.38 44.94 C7.63 48.37, 48.7 49.09, 60.73 45.18 C72.76 41.28, 73.42 29.15, 72.56 21.51 C71.7 13.87, 67.68 2.93, 55.58 -0.66 C43.49 -4.24, 9.26 -0.11, 0 0 M0 0 C2.88 4.1, 17.21 17.09, 17.27 24.58 C17.33 32.07, -6.86 41.51, 0.38 44.94 C7.63 48.37, 48.7 49.09, 60.73 45.18 C72.76 41.28, 73.42 29.15, 72.56 21.51 C71.7 13.87, 67.68 2.93, 55.58 -0.66 C43.49 -4.24, 9.26 -0.11, 0 0" stroke="#1e1e1e" stroke-width="2" fill="none"/></g></g><mask/><g stroke-linecap="round" transform="translate(443.97632340189944 178.63011482757616) rotate(0 5.953277587890625 5.953277587890625)"><path d="M11.91 5.95 C11.91 6.3, 11.88 6.65, 11.82 6.99 C11.76 7.33, 11.67 7.67, 11.55 7.99 C11.43 8.31, 11.28 8.63, 11.11 8.93 C10.94 9.23, 10.74 9.52, 10.51 9.78 C10.29 10.04, 10.04 10.29, 9.78 10.51 C9.52 10.74, 9.23 10.94, 8.93 11.11 C8.63 11.28, 8.31 11.43, 7.99 11.55 C7.67 11.67, 7.33 11.76, 6.99 11.82 C6.65 11.88, 6.3 11.91, 5.95 11.91 C5.61 11.91, 5.26 11.88, 4.92 11.82 C4.58 11.76, 4.24 11.67, 3.92 11.55 C3.59 11.43, 3.28 11.28, 2.98 11.11 C2.68 10.94, 2.39 10.74, 2.13 10.51 C1.86 10.29, 1.61 10.04, 1.39 9.78 C1.17 9.52, 0.97 9.23, 0.8 8.93 C0.63 8.63, 0.48 8.31, 0.36 7.99 C0.24 7.67, 0.15 7.33, 0.09 6.99 C0.03 6.65, 0 6.3, 0 5.95 C0 5.61, 0.03 5.26, 0.09 4.92 C0.15 4.58, 0.24 4.24, 0.36 3.92 C0.48 3.59, 0.63 3.28, 0.8 2.98 C0.97 2.68, 1.17 2.39, 1.39 2.13 C1.61 1.86, 1.86 1.61, 2.13 1.39 C2.39 1.17, 2.68 0.97, 2.98 0.8 C3.28 0.63, 3.59 0.48, 3.92 0.36 C4.24 0.24, 4.58 0.15, 4.92 0.09 C5.26 0.03, 5.61 0, 5.95 0 C6.3 0, 6.65 0.03, 6.99 0.09 C7.33 0.15, 7.67 0.24, 7.99 0.36 C8.31 0.48, 8.63 0.63, 8.93 0.8 C9.23 0.97, 9.52 1.17, 9.78 1.39 C10.04 1.61, 10.29 1.86, 10.51 2.13 C10.74 2.39, 10.94 2.68, 11.11 2.98 C11.28 3.28, 11.43 3.59, 11.55 3.92 C11.67 4.24, 11.76 4.58, 11.82 4.92 C11.88 5.26, 11.89 5.78, 11.91 5.95 C11.92 6.13, 11.92 5.78, 11.91 5.95" stroke="#1e1e1e" stroke-width="2" fill="none"/></g><g stroke-linecap="round" transform="translate(445.47754410502444 159.52757576507616) rotate(0 5.953277587890625 5.953277587890625)"><path d="M11.91 5.95 C11.91 6.3, 11.88 6.65, 11.82 6.99 C11.76 7.33, 11.67 7.67, 11.55 7.99 C11.43 8.31, 11.28 8.63, 11.11 8.93 C10.94 9.23, 10.74 9.52, 10.51 9.78 C10.29 10.04, 10.04 10.29, 9.78 10.51 C9.52 10.74, 9.23 10.94, 8.93 11.11 C8.63 11.28, 8.31 11.43, 7.99 11.55 C7.67 11.67, 7.33 11.76, 6.99 11.82 C6.65 11.88, 6.3 11.91, 5.95 11.91 C5.61 11.91, 5.26 11.88, 4.92 11.82 C4.58 11.76, 4.24 11.67, 3.92 11.55 C3.59 11.43, 3.28 11.28, 2.98 11.11 C2.68 10.94, 2.39 10.74, 2.13 10.51 C1.86 10.29, 1.61 10.04, 1.39 9.78 C1.17 9.52, 0.97 9.23, 0.8 8.93 C0.63 8.63, 0.48 8.31, 0.36 7.99 C0.24 7.67, 0.15 7.33, 0.09 6.99 C0.03 6.65, 0 6.3, 0 5.95 C0 5.61, 0.03 5.26, 0.09 4.92 C0.15 4.58, 0.24 4.24, 0.36 3.92 C0.48 3.59, 0.63 3.28, 0.8 2.98 C0.97 2.68, 1.17 2.39, 1.39 2.13 C1.61 1.86, 1.86 1.61, 2.13 1.39 C2.39 1.17, 2.68 0.97, 2.98 0.8 C3.28 0.63, 3.59 0.48, 3.92 0.36 C4.24 0.24, 4.58 0.15, 4.92 0.09 C5.26 0.03, 5.61 0, 5.95 0 C6.3 0, 6.65 0.03, 6.99 0.09 C7.33 0.15, 7.67 0.24, 7.99 0.36 C8.31 0.48, 8.63 0.63, 8.93 0.8 C9.23 0.97, 9.52 1.17, 9.78 1.39 C10.04 1.61, 10.29 1.86, 10.51 2.13 C10.74 2.39, 10.94 2.68, 11.11 2.98 C11.28 3.28, 11.43 3.59, 11.55 3.92 C11.67 4.24, 11.76 4.58, 11.82 4.92 C11.88 5.26, 11.89 5.78, 11.91 5.95 C11.92 6.13, 11.92 5.78, 11.91 5.95" stroke="#1e1e1e" stroke-width="2" fill="none"/></g><g stroke-linecap="round" transform="translate(448.3749346940581 59.17507767458244) rotate(0 5.953277587890625 5.953277587890625)"><path d="M11.91 5.95 C11.91 6.3, 11.88 6.65, 11.82 6.99 C11.76 7.33, 11.67 7.67, 11.55 7.99 C11.43 8.31, 11.28 8.63, 11.11 8.93 C10.94 9.23, 10.74 9.52, 10.51 9.78 C10.29 10.04, 10.04 10.29, 9.78 10.51 C9.52 10.74, 9.23 10.94, 8.93 11.11 C8.63 11.28, 8.31 11.43, 7.99 11.55 C7.67 11.67, 7.33 11.76, 6.99 11.82 C6.65 11.88, 6.3 11.91, 5.95 11.91 C5.61 11.91, 5.26 11.88, 4.92 11.82 C4.58 11.76, 4.24 11.67, 3.92 11.55 C3.59 11.43, 3.28 11.28, 2.98 11.11 C2.68 10.94, 2.39 10.74, 2.13 10.51 C1.86 10.29, 1.61 10.04, 1.39 9.78 C1.17 9.52, 0.97 9.23, 0.8 8.93 C0.63 8.63, 0.48 8.31, 0.36 7.99 C0.24 7.67, 0.15 7.33, 0.09 6.99 C0.03 6.65, 0 6.3, 0 5.95 C0 5.61, 0.03 5.26, 0.09 4.92 C0.15 4.58, 0.24 4.24, 0.36 3.92 C0.48 3.59, 0.63 3.28, 0.8 2.98 C0.97 2.68, 1.17 2.39, 1.39 2.13 C1.61 1.86, 1.86 1.61, 2.13 1.39 C2.39 1.17, 2.68 0.97, 2.98 0.8 C3.28 0.63, 3.59 0.48, 3.92 0.36 C4.24 0.24, 4.58 0.15, 4.92 0.09 C5.26 0.03, 5.61 0, 5.95 0 C6.3 0, 6.65 0.03, 6.99 0.09 C7.33 0.15, 7.67 0.24, 7.99 0.36 C8.31 0.48, 8.63 0.63, 8.93 0.8 C9.23 0.97, 9.52 1.17, 9.78 1.39 C10.04 1.61, 10.29 1.86, 10.51 2.13 C10.74 2.39, 10.94 2.68, 11.11 2.98 C11.28 3.28, 11.43 3.59, 11.55 3.92 C11.67 4.24, 11.76 4.58, 11.82 4.92 C11.88 5.26, 11.89 5.78, 11.91 5.95 C11.92 6.13, 11.92 5.78, 11.91 5.95" stroke="#1e1e1e" stroke-width="2" fill="none"/></g><g stroke-linecap="round" transform="translate(448.01122619796433 39.790830848410565) rotate(0 5.953277587890625 5.953277587890625)"><path d="M11.91 5.95 C11.91 6.3, 11.88 6.65, 11.82 6.99 C11.76 7.33, 11.67 7.67, 11.55 7.99 C11.43 8.31, 11.28 8.63, 11.11 8.93 C10.94 9.23, 10.74 9.52, 10.51 9.78 C10.29 10.04, 10.04 10.29, 9.78 10.51 C9.52 10.74, 9.23 10.94, 8.93 11.11 C8.63 11.28, 8.31 11.43, 7.99 11.55 C7.67 11.67, 7.33 11.76, 6.99 11.82 C6.65 11.88, 6.3 11.91, 5.95 11.91 C5.61 11.91, 5.26 11.88, 4.92 11.82 C4.58 11.76, 4.24 11.67, 3.92 11.55 C3.59 11.43, 3.28 11.28, 2.98 11.11 C2.68 10.94, 2.39 10.74, 2.13 10.51 C1.86 10.29, 1.61 10.04, 1.39 9.78 C1.17 9.52, 0.97 9.23, 0.8 8.93 C0.63 8.63, 0.48 8.31, 0.36 7.99 C0.24 7.67, 0.15 7.33, 0.09 6.99 C0.03 6.65, 0 6.3, 0 5.95 C0 5.61, 0.03 5.26, 0.09 4.92 C0.15 4.58, 0.24 4.24, 0.36 3.92 C0.48 3.59, 0.63 3.28, 0.8 2.98 C0.97 2.68, 1.17 2.39, 1.39 2.13 C1.61 1.86, 1.86 1.61, 2.13 1.39 C2.39 1.17, 2.68 0.97, 2.98 0.8 C3.28 0.63, 3.59 0.48, 3.92 0.36 C4.24 0.24, 4.58 0.15, 4.92 0.09 C5.26 0.03, 5.61 0, 5.95 0 C6.3 0, 6.65 0.03, 6.99 0.09 C7.33 0.15, 7.67 0.24, 7.99 0.36 C8.31 0.48, 8.63 0.63, 8.93 0.8 C9.23 0.97, 9.52 1.17, 9.78 1.39 C10.04 1.61, 10.29 1.86, 10.51 2.13 C10.74 2.39, 10.94 2.68, 11.11 2.98 C11.28 3.28, 11.43 3.59, 11.55 3.92 C11.67 4.24, 11.76 4.58, 11.82 4.92 C11.88 5.26, 11.89 5.78, 11.91 5.95 C11.92 6.13, 11.92 5.78, 11.91 5.95" stroke="#1e1e1e" stroke-width="2" fill="none"/></g><g stroke-linecap="round" transform="translate(104.61663391280808 91.76205277223869) rotate(0 79.41085815429688 29.974761962890625)"><path d="M0 0 C39.38 0, 78.76 0, 158.82 0 M0 0 C48.89 0, 97.78 0, 158.82 0 M158.82 0 C158.82 18.19, 158.82 36.37, 158.82 59.95 M158.82 0 C158.82 22.03, 158.82 44.06, 158.82 59.95 M158.82 59.95 C125.94 59.95, 93.06 59.95, 0 59.95 M158.82 59.95 C98.58 59.95, 38.34 59.95, 0 59.95 M0 59.95 C0 37.88, 0 15.82, 0 0 M0 59.95 C0 43.28, 0 26.61, 0 0" stroke="#1e1e1e" stroke-width="2" fill="none"/></g><g transform="translate(129.33217956710496 103.33681473512931) rotate(0 54.6953125 18.39999999999999)"><text x="54.6953125" y="14.720312499999999" font-family="Helvetica, Segoe UI Emoji" font-size="16px" fill="#1e1e1e" text-anchor="middle" style="white-space: pre;" direction="ltr" dominant-baseline="alphabetic">Pulse transition</text><text x="54.6953125" y="33.1203125" font-family="Helvetica, Segoe UI Emoji" font-size="16px" fill="#1e1e1e" text-anchor="middle" style="white-space: pre;" direction="ltr" dominant-baseline="alphabetic">detector</text></g><g transform="translate(35.125 31.922122720767675) rotate(0 4 9.200000000000003)"><text x="0" y="14.720312499999999" font-family="Helvetica, Segoe UI Emoji" font-size="16px" fill="#1e1e1e" text-anchor="start" style="white-space: pre;" direction="ltr" dominant-baseline="alphabetic">J</text></g><g transform="translate(10 105.80102698398576) rotate(0 15.5625 9.200000000000003)"><text x="0" y="14.720312499999999" font-family="Helvetica, Segoe UI Emoji" font-size="16px" fill="#1e1e1e" text-anchor="start" style="white-space: pre;" direction="ltr" dominant-baseline="alphabetic">CLK</text></g><g stroke-linecap="round"><g transform="translate(49.855966342203146 38.57198645664198) rotate(0 136.56265714107104 0.04167015351987402)"><path d="M0 0 C76.58 0.02, 153.17 0.05, 273.13 0.08 M0 0 C92.66 0.03, 185.31 0.06, 273.13 0.08" stroke="#1e1e1e" stroke-width="2" fill="none"/></g></g><mask/><g stroke-linecap="round"><g transform="translate(51.834197998046875 119.19097449375136) rotate(0 26.353790283203125 0)"><path d="M0 0 C15.99 0, 31.98 0, 52.71 0 M0 0 C19.37 0, 38.74 0, 52.71 0" stroke="#1e1e1e" stroke-width="2" fill="none"/></g></g><mask/><g stroke-linecap="round"><g transform="translate(72.91954228650991 109.9943841539098) rotate(0 13.391536874123744 -7.098578187344785)"><path d="M0 0 C2.67 -0.04, 5.34 -0.08, 7.12 -0.1 M0 0 C1.63 -0.02, 3.27 -0.05, 7.12 -0.1 M7.12 -0.1 C7.03 -4.26, 6.93 -8.41, 6.8 -14.28 M7.12 -0.1 C7.02 -4.78, 6.91 -9.45, 6.8 -14.28 M6.8 -14.28 C10.92 -14.28, 15.05 -14.28, 18.06 -14.28 M6.8 -14.28 C9.46 -14.28, 12.11 -14.28, 18.06 -14.28 M18.06 -14.28 C18.12 -9.94, 18.18 -5.6, 18.26 -0.14 M18.06 -14.28 C18.13 -9.62, 18.19 -4.96, 18.26 -0.14 M18.26 -0.14 C20.7 -0.07, 23.15 -0.01, 26.78 0.09 M18.26 -0.14 C20.73 -0.07, 23.21 -0.01, 26.78 0.09" stroke="#1e1e1e" stroke-width="2" fill="none"/></g></g><mask/><g stroke-linecap="round"><g transform="translate(321.547910757503 51.04247672768372) rotate(0 -7.877153221017807 67.13999622541704)"><path d="M0 0 C-4.17 0, -8.35 0, -15.75 0 M0 0 C-3.72 0, -7.43 0, -15.75 0 M-15.75 0 C-15.75 40.4, -15.75 80.8, -15.75 134.28 M-15.75 0 C-15.75 40.14, -15.75 80.28, -15.75 134.28 M-15.75 134.28 C-10.91 134.28, -6.06 134.28, -1.08 134.28 M-15.75 134.28 C-12.77 134.28, -9.79 134.28, -1.08 134.28" stroke="#1e1e1e" stroke-width="2" fill="none"/></g></g><mask/><g stroke-linecap="round"><g transform="translate(262.84261333736276 119.5867161162999) rotate(0 20.052911752506873 -0.18001078385761105)"><path d="M0 0 C15.27 -0.14, 30.55 -0.27, 40.11 -0.36 M0 0 C15.78 -0.14, 31.57 -0.28, 40.11 -0.36" stroke="#1e1e1e" stroke-width="2" fill="none"/></g></g><mask/><g stroke-linecap="round" transform="translate(300.0015920550228 113.96472236156461) rotate(0 5.701190226226004 5.701190226226004)"><path d="M11.4 5.7 C11.4 6.03, 11.37 6.37, 11.32 6.69 C11.26 7.02, 11.17 7.34, 11.06 7.65 C10.95 7.96, 10.8 8.27, 10.64 8.55 C10.47 8.84, 10.28 9.11, 10.07 9.37 C9.86 9.62, 9.62 9.86, 9.37 10.07 C9.11 10.28, 8.84 10.47, 8.55 10.64 C8.27 10.8, 7.96 10.95, 7.65 11.06 C7.34 11.17, 7.02 11.26, 6.69 11.32 C6.37 11.37, 6.03 11.4, 5.7 11.4 C5.37 11.4, 5.04 11.37, 4.71 11.32 C4.39 11.26, 4.06 11.17, 3.75 11.06 C3.44 10.95, 3.14 10.8, 2.85 10.64 C2.56 10.47, 2.29 10.28, 2.04 10.07 C1.78 9.86, 1.55 9.62, 1.33 9.37 C1.12 9.11, 0.93 8.84, 0.76 8.55 C0.6 8.27, 0.46 7.96, 0.34 7.65 C0.23 7.34, 0.14 7.02, 0.09 6.69 C0.03 6.37, 0 6.03, 0 5.7 C0 5.37, 0.03 5.04, 0.09 4.71 C0.14 4.39, 0.23 4.06, 0.34 3.75 C0.46 3.44, 0.6 3.14, 0.76 2.85 C0.93 2.56, 1.12 2.29, 1.33 2.04 C1.55 1.78, 1.78 1.55, 2.04 1.33 C2.29 1.12, 2.56 0.93, 2.85 0.76 C3.14 0.6, 3.44 0.46, 3.75 0.34 C4.06 0.23, 4.39 0.14, 4.71 0.09 C5.04 0.03, 5.37 0, 5.7 0 C6.03 0, 6.37 0.03, 6.69 0.09 C7.02 0.14, 7.34 0.23, 7.65 0.34 C7.96 0.46, 8.27 0.6, 8.55 0.76 C8.84 0.93, 9.11 1.12, 9.37 1.33 C9.62 1.55, 9.86 1.78, 10.07 2.04 C10.28 2.29, 10.47 2.56, 10.64 2.85 C10.8 3.14, 10.95 3.44, 11.06 3.75 C11.17 4.06, 11.26 4.39, 11.32 4.71 C11.37 5.04, 11.39 5.54, 11.4 5.7 C11.42 5.87, 11.42 5.54, 11.4 5.7" stroke="none" stroke-width="0" fill="#1e1e1e"/><path d="M11.4 5.7 C11.4 6.03, 11.37 6.37, 11.32 6.69 C11.26 7.02, 11.17 7.34, 11.06 7.65 C10.95 7.96, 10.8 8.27, 10.64 8.55 C10.47 8.84, 10.28 9.11, 10.07 9.37 C9.86 9.62, 9.62 9.86, 9.37 10.07 C9.11 10.28, 8.84 10.47, 8.55 10.64 C8.27 10.8, 7.96 10.95, 7.65 11.06 C7.34 11.17, 7.02 11.26, 6.69 11.32 C6.37 11.37, 6.03 11.4, 5.7 11.4 C5.37 11.4, 5.04 11.37, 4.71 11.32 C4.39 11.26, 4.06 11.17, 3.75 11.06 C3.44 10.95, 3.14 10.8, 2.85 10.64 C2.56 10.47, 2.29 10.28, 2.04 10.07 C1.78 9.86, 1.55 9.62, 1.33 9.37 C1.12 9.11, 0.93 8.84, 0.76 8.55 C0.6 8.27, 0.46 7.96, 0.34 7.65 C0.23 7.34, 0.14 7.02, 0.09 6.69 C0.03 6.37, 0 6.03, 0 5.7 C0 5.37, 0.03 5.04, 0.09 4.71 C0.14 4.39, 0.23 4.06, 0.34 3.75 C0.46 3.44, 0.6 3.14, 0.76 2.85 C0.93 2.56, 1.12 2.29, 1.33 2.04 C1.55 1.78, 1.78 1.55, 2.04 1.33 C2.29 1.12, 2.56 0.93, 2.85 0.76 C3.14 0.6, 3.44 0.46, 3.75 0.34 C4.06 0.23, 4.39 0.14, 4.71 0.09 C5.04 0.03, 5.37 0, 5.7 0 C6.03 0, 6.37 0.03, 6.69 0.09 C7.02 0.14, 7.34 0.23, 7.65 0.34 C7.96 0.46, 8.27 0.6, 8.55 0.76 C8.84 0.93, 9.11 1.12, 9.37 1.33 C9.62 1.55, 9.86 1.78, 10.07 2.04 C10.28 2.29, 10.47 2.56, 10.64 2.85 C10.8 3.14, 10.95 3.44, 11.06 3.75 C11.17 4.06, 11.26 4.39, 11.32 4.71 C11.37 5.04, 11.39 5.54, 11.4 5.7 C11.42 5.87, 11.42 5.54, 11.4 5.7" stroke="#1e1e1e" stroke-width="2" fill="none"/></g><g stroke-linecap="round"><g transform="translate(390.6772155057066 47.00221567066512) rotate(0 28.631778233979333 0)"><path d="M0 0 C11.64 0, 23.28 0, 57.26 0 M0 0 C16.41 0, 32.82 0, 57.26 0" stroke="#1e1e1e" stroke-width="2" fill="none"/></g></g><mask/><g stroke-linecap="round"><g transform="translate(384.94186181600423 186.47421296474005) rotate(0 29.28848701540781 0)"><path d="M0 0 C20.19 0, 40.38 0, 58.58 0 M0 0 C23.19 0, 46.38 0, 58.58 0" stroke="#1e1e1e" stroke-width="2" fill="none"/></g></g><mask/><g stroke-linecap="round"><g transform="translate(525.2055708654495 52.82258143361247) rotate(0 28.692616301506007 0)"><path d="M0 0 C11.88 0, 23.76 0, 57.39 0 M0 0 C21.77 0, 43.53 0, 57.39 0" stroke="#1e1e1e" stroke-width="2" fill="none"/></g></g><mask/><g stroke-linecap="round"><g transform="translate(522.6020724521562 174.34179991909969) rotate(0 32.302845653547735 0)"><path d="M0 0 C18.91 0, 37.83 0, 64.61 0 M0 0 C21.29 0, 42.58 0, 64.61 0" stroke="#1e1e1e" stroke-width="2" fill="none"/></g></g><mask/><g transform="translate(591.6647049547279 42.803621549032016) rotate(0 6.22265625 9.200000000000003)"><text x="0" y="14.720312499999999" font-family="Helvetica, Segoe UI Emoji" font-size="16px" fill="#1e1e1e" text-anchor="start" style="white-space: pre;" direction="ltr" dominant-baseline="alphabetic">Q</text></g><g transform="translate(591.6647049547279 164.39842007124872) rotate(0 7.75 9.200000000000003)"><text x="0" y="14.720312499999999" font-family="Helvetica, Segoe UI Emoji" font-size="16px" fill="#1e1e1e" text-anchor="start" style="white-space: pre;" direction="ltr" dominant-baseline="alphabetic">Q'</text></g><g stroke-linecap="round"><g transform="translate(448.25220416502964 64.84332057498517) rotate(0 -24.705978346546715 69.60149635234033)"><path d="M0 0 C-6.68 0, -13.36 0, -19.8 0 M0 0 C-4.54 0, -9.07 0, -19.8 0 M-19.8 0 C-19.8 10.42, -19.8 20.83, -19.8 41.53 M-19.8 0 C-19.8 9.81, -19.8 19.62, -19.8 41.53 M-19.8 41.53 C27.12 54.1, 74.05 66.67, 105.41 75.08 M-19.8 41.53 C12.52 50.19, 44.84 58.85, 105.41 75.08 M105.41 75.08 C105.76 106.64, 106.11 138.19, 106.35 159.17 M105.41 75.08 C105.65 96.94, 105.9 118.79, 106.35 159.17 M106.35 159.17 C27.21 159.5, -51.93 159.84, -155.19 160.28 M106.35 159.17 C7.18 159.59, -91.99 160.01, -155.19 160.28 M-155.19 160.28 C-155.4 91.67, -155.62 23.06, -155.76 -21.07 M-155.19 160.28 C-155.38 98.96, -155.57 37.64, -155.76 -21.07 M-155.76 -21.07 C-144.04 -20.99, -132.32 -20.91, -125.17 -20.86 M-155.76 -21.07 C-147.92 -21.02, -140.08 -20.96, -125.17 -20.86" stroke="#1e1e1e" stroke-width="2" fill="none"/></g></g><mask/><g stroke-linecap="round"><g transform="translate(319.0253177174076 193.35309116233003) rotate(0 91.8113968086596 -86.42760356405532)"><path d="M0 0 C-16.09 0, -32.18 0, -44.91 0 M0 0 C-12.61 0, -25.23 0, -44.91 0 M-44.91 0 C-44.91 -67.05, -44.91 -134.1, -44.91 -172.86 M-44.91 0 C-44.91 -67.84, -44.91 -135.68, -44.91 -172.86 M-44.91 -172.86 C25.07 -172.86, 95.05 -172.86, 228.53 -172.86 M-44.91 -172.86 C44.35 -172.86, 133.61 -172.86, 228.53 -172.86 M228.53 -172.86 C228.53 -157.76, 228.53 -142.67, 228.53 -108.69 M228.53 -172.86 C228.53 -157.77, 228.53 -142.68, 228.53 -108.69 M228.53 -108.69 C194.28 -88.91, 160.02 -69.13, 112.43 -41.66 M228.53 -108.69 C190.14 -86.52, 151.75 -64.36, 112.43 -41.66 M112.43 -41.66 C112.43 -37.83, 112.43 -33.99, 112.43 -28.39 M112.43 -41.66 C112.43 -37.71, 112.43 -33.77, 112.43 -28.39 M112.43 -28.39 C117.34 -28.39, 122.25 -28.39, 126.82 -28.39 M112.43 -28.39 C116.82 -28.39, 121.2 -28.39, 126.82 -28.39" stroke="#1e1e1e" stroke-width="2" fill="none"/></g></g><mask/><g stroke-linecap="round" transform="translate(743.8134413043449 40.7257596292871) rotate(0 50.872550023351494 80.43778946142221)"><path d="M0 0 C30.35 0.63, 63.17 -0.08, 101.75 0 M0 0 C30.98 -0.42, 63.82 -0.75, 101.75 0 M101.75 0 C99.84 44.96, 102.96 91.59, 101.75 160.88 M101.75 0 C103.66 50.84, 102.47 102, 101.75 160.88 M101.75 160.88 C71.49 160.42, 43.44 161.04, 0 160.88 M101.75 160.88 C79.34 160.52, 54.79 160.56, 0 160.88 M0 160.88 C-2.28 127.43, -2.78 92.34, 0 0 M0 160.88 C-0.87 128.51, -0.95 96.37, 0 0" stroke="#1971c2" stroke-width="2" fill="none"/></g><g stroke-linecap="round"><g transform="translate(692.5727445272155 70.73068378161082) rotate(0 26.323837145967417 0)"><path d="M0 0 C19 0.26, 38.94 1.29, 52.65 0 M0 0 C15.52 -0.63, 29.07 -0.06, 52.65 0" stroke="#1971c2" stroke-width="2" fill="none"/></g></g><mask/><g transform="translate(761.9978190646303 54.439882255175235) rotate(0 5.734992980957031 13.190507830984515)"><text x="0" y="21.105260576716212" font-family="Helvetica, Segoe UI Emoji" font-size="22.940013619103496px" fill="#1971c2" text-anchor="start" style="white-space: pre;" direction="ltr" dominant-baseline="alphabetic">J</text></g><g transform="translate(761.3649524779705 109.94637057606855) rotate(0 8.28326416015625 13.190507830984515)"><text x="0" y="21.105260576716212" font-family="Helvetica, Segoe UI Emoji" font-size="22.940013619103496px" fill="#1971c2" text-anchor="start" style="white-space: pre;" direction="ltr" dominant-baseline="alphabetic">C</text></g><g stroke-linecap="round"><g transform="translate(847.2518489918974 88.48168144166408) rotate(0 37.22800942159461 0)"><path d="M0 0 C27.16 2.12, 54.96 -0.06, 74.46 0 M0 0 C19.48 1.4, 39.79 0.62, 74.46 0" stroke="#1971c2" stroke-width="2" fill="none"/></g></g><mask/><g stroke-linecap="round" transform="translate(845.9839105865557 154.01314379325567) rotate(0 6.76705199111872 6.76705199111872)"><path d="M6.09 0.04 C7.57 -0.08, 10.07 0.92, 11.3 1.85 C12.52 2.77, 13.1 4.21, 13.43 5.6 C13.76 6.99, 13.92 9.01, 13.28 10.21 C12.64 11.4, 10.9 12.28, 9.57 12.77 C8.23 13.27, 6.64 13.59, 5.26 13.19 C3.87 12.79, 2.16 11.58, 1.26 10.37 C0.35 9.15, -0.33 7.29, -0.16 5.88 C0.01 4.47, 1.22 2.93, 2.28 1.91 C3.33 0.89, 5.46 0.02, 6.17 -0.21 C6.88 -0.44, 6.47 0.42, 6.53 0.51 M7.4 -0.3 C8.92 -0.6, 10.26 0.19, 11.22 1.04 C12.18 1.88, 12.84 3.28, 13.15 4.76 C13.46 6.24, 13.75 8.51, 13.09 9.9 C12.43 11.3, 10.62 12.55, 9.19 13.14 C7.76 13.72, 5.85 13.89, 4.5 13.43 C3.16 12.96, 1.87 11.54, 1.1 10.35 C0.33 9.16, -0.29 7.69, -0.12 6.28 C0.04 4.87, 0.9 2.88, 2.11 1.87 C3.32 0.87, 6.43 0.67, 7.12 0.27 C7.82 -0.14, 6.24 -0.63, 6.26 -0.57" stroke="#1971c2" stroke-width="2" fill="none"/></g><g stroke-linecap="round"><g transform="translate(861.939359329059 161.32621823378292) rotate(0 31.146049512008318 0)"><path d="M0 0 C23.38 1.23, 47.05 0.27, 62.29 0 M0 0 C25.17 0.87, 49.64 0.21, 62.29 0" stroke="#1971c2" stroke-width="2" fill="none"/></g></g><mask/><g transform="translate(934.7430097831583 74.16635346850694) rotate(0 8.921730041503906 13.190507830984515)"><text x="0" y="21.105260576716212" font-family="Helvetica, Segoe UI Emoji" font-size="22.940013619103496px" fill="#1971c2" text-anchor="start" style="white-space: pre;" direction="ltr" dominant-baseline="alphabetic">Q</text></g><g transform="translate(938.5046455613007 148.93327502312934) rotate(0 11.111557006835938 13.190507830984508)"><text x="0" y="21.105260576716212" font-family="Helvetica, Segoe UI Emoji" font-size="22.940013619103496px" fill="#1971c2" text-anchor="start" style="white-space: pre;" direction="ltr" dominant-baseline="alphabetic">Q'</text></g><g stroke-linecap="round"><g transform="translate(692.4531808425339 122.79276427654463) rotate(0 25.11124581750302 0)"><path d="M0 0 C15.7 0.96, 32.75 1.01, 50.22 0 M0 0 C16.45 -0.14, 32.93 -0.88, 50.22 0" stroke="#1971c2" stroke-width="2" fill="none"/></g></g><mask/><g stroke-linecap="round"><g transform="translate(743.8563780992927 111.41526939549976) rotate(0 5.844091537854425 12.355186449523217)"><path d="M0 0 C5.96 5.3, 10.5 8.96, 12.87 11.81 M0 0 C4.96 4.43, 10.03 9.36, 12.87 11.81 M12.87 11.81 C8.12 16.59, 3.81 19.35, -1.19 24.71 M12.87 11.81 C9.14 15.48, 4.65 19.16, -1.19 24.71" stroke="#1971c2" stroke-width="2" fill="none"/></g></g><mask/><g stroke-linecap="round"><g transform="translate(694.512037686214 171.5950371312029) rotate(0 24.962501065502103 0)"><path d="M0.41 0.16 C8.63 0.16, 41.44 0.5, 49.68 0.51 M-0.04 -0.23 C8.05 -0.14, 40.87 -0.1, 49.13 -0.2" stroke="#1971c2" stroke-width="2" fill="none"/></g></g><mask/><g transform="translate(761.8754449814762 158.08965081749642) rotate(0 7.650398254394531 13.190507830984508)"><text x="0" y="21.105260576716212" font-family="Helvetica, Segoe UI Emoji" font-size="22.940013619103496px" fill="#1971c2" text-anchor="start" style="white-space: pre;" direction="ltr" dominant-baseline="alphabetic">K</text></g><g transform="translate(668.5339089056116 58.93825303286104) rotate(0 6.1083984375 11.5)"><text x="0" y="18.400390625" font-family="Helvetica, Segoe UI Emoji" font-size="20px" fill="#1971c2" text-anchor="start" style="white-space: pre;" direction="ltr" dominant-baseline="alphabetic">T</text></g><g transform="translate(640.2420998235804 111.83131943911104) rotate(0 19.453125 11.5)"><text x="0" y="18.400390625" font-family="Helvetica, Segoe UI Emoji" font-size="20px" fill="#1971c2" text-anchor="start" style="white-space: pre;" direction="ltr" dominant-baseline="alphabetic">CLK</text></g><g stroke-linecap="round"><g transform="translate(69.08801804008192 38.39510686361734) rotate(0 125.02407836914062 82.04962158203125)"><path d="M0 0 C0 61.45, 0 122.89, 0 164.1 M0 0 C0 53.54, 0 107.09, 0 164.1 M0 164.1 C99.34 164.1, 198.67 164.1, 250.05 164.1 M0 164.1 C80.64 164.1, 161.28 164.1, 250.05 164.1" stroke="#1e1e1e" stroke-width="2" fill="none"/></g></g><mask/><g stroke-linecap="round" transform="translate(63.80936991897795 32.51011445939366) rotate(0 5.655923657089431 5.655923657089431)"><path d="M11.31 5.66 C11.31 5.98, 11.28 6.32, 11.23 6.64 C11.17 6.96, 11.08 7.28, 10.97 7.59 C10.86 7.9, 10.72 8.2, 10.55 8.48 C10.39 8.77, 10.2 9.04, 9.99 9.29 C9.78 9.54, 9.54 9.78, 9.29 9.99 C9.04 10.2, 8.77 10.39, 8.48 10.55 C8.2 10.72, 7.9 10.86, 7.59 10.97 C7.28 11.08, 6.96 11.17, 6.64 11.23 C6.32 11.28, 5.98 11.31, 5.66 11.31 C5.33 11.31, 5 11.28, 4.67 11.23 C4.35 11.17, 4.03 11.08, 3.72 10.97 C3.41 10.86, 3.11 10.72, 2.83 10.55 C2.54 10.39, 2.27 10.2, 2.02 9.99 C1.77 9.78, 1.53 9.54, 1.32 9.29 C1.11 9.04, 0.92 8.77, 0.76 8.48 C0.59 8.2, 0.45 7.9, 0.34 7.59 C0.23 7.28, 0.14 6.96, 0.09 6.64 C0.03 6.32, 0 5.98, 0 5.66 C0 5.33, 0.03 5, 0.09 4.67 C0.14 4.35, 0.23 4.03, 0.34 3.72 C0.45 3.41, 0.59 3.11, 0.76 2.83 C0.92 2.54, 1.11 2.27, 1.32 2.02 C1.53 1.77, 1.77 1.53, 2.02 1.32 C2.27 1.11, 2.54 0.92, 2.83 0.76 C3.11 0.59, 3.41 0.45, 3.72 0.34 C4.03 0.23, 4.35 0.14, 4.67 0.09 C5 0.03, 5.33 0, 5.66 0 C5.98 0, 6.32 0.03, 6.64 0.09 C6.96 0.14, 7.28 0.23, 7.59 0.34 C7.9 0.45, 8.2 0.59, 8.48 0.76 C8.77 0.92, 9.04 1.11, 9.29 1.32 C9.54 1.53, 9.78 1.77, 9.99 2.02 C10.2 2.27, 10.39 2.54, 10.55 2.83 C10.72 3.11, 10.86 3.41, 10.97 3.72 C11.08 4.03, 11.17 4.35, 11.23 4.67 C11.28 5, 11.3 5.49, 11.31 5.66 C11.33 5.82, 11.33 5.49, 11.31 5.66" stroke="none" stroke-width="0" fill="#1e1e1e"/><path d="M11.31 5.66 C11.31 5.98, 11.28 6.32, 11.23 6.64 C11.17 6.96, 11.08 7.28, 10.97 7.59 C10.86 7.9, 10.72 8.2, 10.55 8.48 C10.39 8.77, 10.2 9.04, 9.99 9.29 C9.78 9.54, 9.54 9.78, 9.29 9.99 C9.04 10.2, 8.77 10.39, 8.48 10.55 C8.2 10.72, 7.9 10.86, 7.59 10.97 C7.28 11.08, 6.96 11.17, 6.64 11.23 C6.32 11.28, 5.98 11.31, 5.66 11.31 C5.33 11.31, 5 11.28, 4.67 11.23 C4.35 11.17, 4.03 11.08, 3.72 10.97 C3.41 10.86, 3.11 10.72, 2.83 10.55 C2.54 10.39, 2.27 10.2, 2.02 9.99 C1.77 9.78, 1.53 9.54, 1.32 9.29 C1.11 9.04, 0.92 8.77, 0.76 8.48 C0.59 8.2, 0.45 7.9, 0.34 7.59 C0.23 7.28, 0.14 6.96, 0.09 6.64 C0.03 6.32, 0 5.98, 0 5.66 C0 5.33, 0.03 5, 0.09 4.67 C0.14 4.35, 0.23 4.03, 0.34 3.72 C0.45 3.41, 0.59 3.11, 0.76 2.83 C0.92 2.54, 1.11 2.27, 1.32 2.02 C1.53 1.77, 1.77 1.53, 2.02 1.32 C2.27 1.11, 2.54 0.92, 2.83 0.76 C3.11 0.59, 3.41 0.45, 3.72 0.34 C4.03 0.23, 4.35 0.14, 4.67 0.09 C5 0.03, 5.33 0, 5.66 0 C5.98 0, 6.32 0.03, 6.64 0.09 C6.96 0.14, 7.28 0.23, 7.59 0.34 C7.9 0.45, 8.2 0.59, 8.48 0.76 C8.77 0.92, 9.04 1.11, 9.29 1.32 C9.54 1.53, 9.78 1.77, 9.99 2.02 C10.2 2.27, 10.39 2.54, 10.55 2.83 C10.72 3.11, 10.86 3.41, 10.97 3.72 C11.08 4.03, 11.17 4.35, 11.23 4.67 C11.28 5, 11.3 5.49, 11.31 5.66 C11.33 5.82, 11.33 5.49, 11.31 5.66" stroke="#1e1e1e" stroke-width="2" fill="none"/></g></svg>