<svg version="1.1" xmlns="http://www.w3.org/2000/svg" viewBox="0 0 2213.399045280769 1023.506541319351" width="2213.399045280769" height="1023.506541319351" class="excalidraw-svg">
  <!-- svg-source:excalidraw -->
  
  <defs>
    <style class="style-fonts">
      @font-face {
        font-family: "Virgil";
        src: url("https://excalidraw.com/Virgil.woff2");
      }
      @font-face {
        font-family: "Cascadia";
        src: url("https://excalidraw.com/Cascadia.woff2");
      }
      @font-face {
        font-family: "Assistant";
        src: url("https://excalidraw.com/Assistant-Regular.woff2");
      }
    </style>
    
  </defs>
  <g stroke-linecap="round" transform="translate(10 10) rotate(0 1096.6995226403844 501.7532706596755)"><path d="M32 0 C526.5 0, 1021.01 0, 2161.4 0 C2182.73 0, 2193.4 10.67, 2193.4 32 C2193.4 246.5, 2193.4 460.99, 2193.4 971.51 C2193.4 992.84, 2182.73 1003.51, 2161.4 1003.51 C1472.29 1003.51, 783.19 1003.51, 32 1003.51 C10.67 1003.51, 0 992.84, 0 971.51 C0 612.22, 0 252.93, 0 32 C0 10.67, 10.67 0, 32 0" stroke="none" stroke-width="0" fill="#ffffff"/><path d="M32 0 C749.88 0, 1467.76 0, 2161.4 0 M32 0 C642.87 0, 1253.73 0, 2161.4 0 M2161.4 0 C2182.73 0, 2193.4 10.67, 2193.4 32 M2161.4 0 C2182.73 0, 2193.4 10.67, 2193.4 32 M2193.4 32 C2193.4 294.24, 2193.4 556.47, 2193.4 971.51 M2193.4 32 C2193.4 374.63, 2193.4 717.25, 2193.4 971.51 M2193.4 971.51 C2193.4 992.84, 2182.73 1003.51, 2161.4 1003.51 M2193.4 971.51 C2193.4 992.84, 2182.73 1003.51, 2161.4 1003.51 M2161.4 1003.51 C1714.44 1003.51, 1267.48 1003.51, 32 1003.51 M2161.4 1003.51 C1589.57 1003.51, 1017.75 1003.51, 32 1003.51 M32 1003.51 C10.67 1003.51, 0 992.84, 0 971.51 M32 1003.51 C10.67 1003.51, 0 992.84, 0 971.51 M0 971.51 C0 638.28, 0 305.06, 0 32 M0 971.51 C0 634.36, 0 297.21, 0 32 M0 32 C0 10.67, 10.67 0, 32 0 M0 32 C0 10.67, 10.67 0, 32 0" stroke="transparent" stroke-width="2" fill="none"/></g><g stroke-linecap="round" transform="translate(723.453650583116 384.58435172192435) rotate(0 90.39999389648438 116.40000915527344)"><path d="M0 0 C48.06 0, 96.12 0, 180.8 0 M0 0 C49.53 0, 99.05 0, 180.8 0 M180.8 0 C180.8 89.86, 180.8 179.72, 180.8 232.8 M180.8 0 C180.8 82.68, 180.8 165.37, 180.8 232.8 M180.8 232.8 C128.8 232.8, 76.8 232.8, 0 232.8 M180.8 232.8 C138.5 232.8, 96.21 232.8, 0 232.8 M0 232.8 C0 156.74, 0 80.67, 0 0 M0 232.8 C0 171.25, 0 109.7, 0 0" stroke="#1e1e1e" stroke-width="2" fill="none"/></g><g stroke-linecap="round"><g transform="translate(521.8536749971785 526.18435782544) rotate(0 28.400039672851562 24.200027465820312)"><path d="M0 0 C0 8.27, -7.47 41.33, 0 49.6 C7.47 57.87, 35.33 54, 44.8 49.6 C54.27 45.2, 57.8 31.67, 56.8 23.2 C55.8 14.73, 48.27 2.67, 38.8 -1.2 C29.33 -5.07, 6.47 -0.2, 0 0 M0 0 C0 8.27, -7.47 41.33, 0 49.6 C7.47 57.87, 35.33 54, 44.8 49.6 C54.27 45.2, 57.8 31.67, 56.8 23.2 C55.8 14.73, 48.27 2.67, 38.8 -1.2 C29.33 -5.07, 6.47 -0.2, 0 0" stroke="#1e1e1e" stroke-width="2" fill="none"/></g></g><mask/><g stroke-linecap="round"><g transform="translate(525.4311158386126 425.9005023567385) rotate(0 28.400039672851562 24.200027465820312)"><path d="M0 0 C0 8.27, -7.47 41.33, 0 49.6 C7.47 57.87, 35.33 54, 44.8 49.6 C54.27 45.2, 57.8 31.67, 56.8 23.2 C55.8 14.73, 48.27 2.67, 38.8 -1.2 C29.33 -5.07, 6.47 -0.2, 0 0 M0 0 C0 8.27, -7.47 41.33, 0 49.6 C7.47 57.87, 35.33 54, 44.8 49.6 C54.27 45.2, 57.8 31.67, 56.8 23.2 C55.8 14.73, 48.27 2.67, 38.8 -1.2 C29.33 -5.07, 6.47 -0.2, 0 0" stroke="#1e1e1e" stroke-width="2" fill="none"/></g></g><mask/><g stroke-linecap="round"><g transform="translate(519.4537116182722 548.5844432746587) rotate(0 -150 0)"><path d="M0 0 C-50 0, -250 0, -300 0 M0 0 C-50 0, -250 0, -300 0" stroke="#1e1e1e" stroke-width="2" fill="none"/></g></g><mask/><g stroke-linecap="round"><g transform="translate(277.8537360323347 547.7843944465337) rotate(0 40 -46.79998779296876)"><path d="M0 0 C0 -22.11, 0 -44.23, 0 -93.6 M0 0 C0 -18.88, 0 -37.75, 0 -93.6 M0 -93.6 C31.18 -93.6, 62.36 -93.6, 80 -93.6 M0 -93.6 C16.96 -93.6, 33.93 -93.6, 80 -93.6" stroke="#1e1e1e" stroke-width="2" fill="none"/></g></g><mask/><g stroke-linecap="round"><g transform="translate(358.2537299288191 470.58438223950253) rotate(89.99999999999994 21.199981689453125 -19.199996948242188)"><path d="M0 0 C14.45 0, 28.9 0, 42.4 0 M0 0 C8.62 0, 17.24 0, 42.4 0 M42.4 0 C34.53 -14.52, 26.67 -29.04, 21.6 -38.4 M42.4 0 C35.04 -13.6, 27.67 -27.19, 21.6 -38.4 M21.6 -38.4 C15.37 -27.32, 9.14 -16.24, 0 0 M21.6 -38.4 C15.27 -27.14, 8.93 -15.88, 0 0" stroke="#1e1e1e" stroke-width="2" fill="none"/></g></g><mask/><g stroke-linecap="round" transform="translate(400.25371467003004 445.3843547736821) rotate(89.99999999999994 6.8000030517578125 6.8000030517578125)"><path d="M13.6 6.8 C13.6 7.19, 13.57 7.59, 13.5 7.98 C13.43 8.37, 13.32 8.76, 13.19 9.13 C13.06 9.5, 12.89 9.86, 12.69 10.2 C12.49 10.54, 12.26 10.87, 12.01 11.17 C11.76 11.47, 11.47 11.76, 11.17 12.01 C10.87 12.26, 10.54 12.49, 10.2 12.69 C9.86 12.89, 9.5 13.06, 9.13 13.19 C8.76 13.32, 8.37 13.43, 7.98 13.5 C7.59 13.57, 7.19 13.6, 6.8 13.6 C6.41 13.6, 6.01 13.57, 5.62 13.5 C5.23 13.43, 4.84 13.32, 4.47 13.19 C4.1 13.06, 3.74 12.89, 3.4 12.69 C3.06 12.49, 2.73 12.26, 2.43 12.01 C2.13 11.76, 1.84 11.47, 1.59 11.17 C1.34 10.87, 1.11 10.54, 0.91 10.2 C0.71 9.86, 0.54 9.5, 0.41 9.13 C0.28 8.76, 0.17 8.37, 0.1 7.98 C0.03 7.59, 0 7.19, 0 6.8 C0 6.41, 0.03 6.01, 0.1 5.62 C0.17 5.23, 0.28 4.84, 0.41 4.47 C0.54 4.1, 0.71 3.74, 0.91 3.4 C1.11 3.06, 1.34 2.73, 1.59 2.43 C1.84 2.13, 2.13 1.84, 2.43 1.59 C2.73 1.34, 3.06 1.11, 3.4 0.91 C3.74 0.71, 4.1 0.54, 4.47 0.41 C4.84 0.28, 5.23 0.17, 5.62 0.1 C6.01 0.03, 6.41 0, 6.8 0 C7.19 0, 7.59 0.03, 7.98 0.1 C8.37 0.17, 8.76 0.28, 9.13 0.41 C9.5 0.54, 9.86 0.71, 10.2 0.91 C10.54 1.11, 10.87 1.34, 11.17 1.59 C11.47 1.84, 11.76 2.13, 12.01 2.43 C12.26 2.73, 12.49 3.06, 12.69 3.4 C12.89 3.74, 13.06 4.1, 13.19 4.47 C13.32 4.84, 13.43 5.23, 13.5 5.62 C13.57 6.01, 13.58 6.6, 13.6 6.8 C13.62 7, 13.62 6.6, 13.6 6.8" stroke="#1e1e1e" stroke-width="2" fill="none"/></g><g stroke-linecap="round"><g transform="translate(413.5730624214708 452.3037696637948) rotate(0 53.20001220703125 0)"><path d="M0 0 C32.56 0, 65.12 0, 106.4 0 M0 0 C38.85 0, 77.71 0, 106.4 0" stroke="#1e1e1e" stroke-width="2" fill="none"/></g></g><mask/><g stroke-linecap="round"><g transform="translate(795.01170976813 870.9737051970325) rotate(0 -61.8065622472153 -46.22510760043801)"><path d="M0 0 C0 -35.76, 0 -71.52, 0 -92.45 M0 0 C0 -31.68, 0 -63.37, 0 -92.45 M0 -92.45 C-30.24 -92.45, -60.47 -92.45, -123.61 -92.45 M0 -92.45 C-28.38 -92.45, -56.76 -92.45, -123.61 -92.45" stroke="#1e1e1e" stroke-width="2" fill="none"/></g></g><mask/><g stroke-linecap="round"><g transform="translate(630.7906625065068 796.6847266034293) rotate(269.9999999999999 21.199981689453125 -19.199996948242188)"><path d="M0 0 C13.58 0, 27.15 0, 42.4 0 M0 0 C12.02 0, 24.04 0, 42.4 0 M42.4 0 C36.01 -11.8, 29.62 -23.59, 21.6 -38.4 M42.4 0 C34.35 -14.86, 26.31 -29.71, 21.6 -38.4 M21.6 -38.4 C17.09 -30.38, 12.58 -22.36, 0 0 M21.6 -38.4 C15.54 -27.62, 9.48 -16.85, 0 0" stroke="#1e1e1e" stroke-width="2" fill="none"/></g></g><mask/><g stroke-linecap="round" transform="translate(617.5906350406865 769.8847540692499) rotate(269.9999999999999 6.8000030517578125 6.8000030517578125)"><path d="M13.6 6.8 C13.6 7.19, 13.57 7.59, 13.5 7.98 C13.43 8.37, 13.32 8.76, 13.19 9.13 C13.06 9.5, 12.89 9.86, 12.69 10.2 C12.49 10.54, 12.26 10.87, 12.01 11.17 C11.76 11.47, 11.47 11.76, 11.17 12.01 C10.87 12.26, 10.54 12.49, 10.2 12.69 C9.86 12.89, 9.5 13.06, 9.13 13.19 C8.76 13.32, 8.37 13.43, 7.98 13.5 C7.59 13.57, 7.19 13.6, 6.8 13.6 C6.41 13.6, 6.01 13.57, 5.62 13.5 C5.23 13.43, 4.84 13.32, 4.47 13.19 C4.1 13.06, 3.74 12.89, 3.4 12.69 C3.06 12.49, 2.73 12.26, 2.43 12.01 C2.13 11.76, 1.84 11.47, 1.59 11.17 C1.34 10.87, 1.11 10.54, 0.91 10.2 C0.71 9.86, 0.54 9.5, 0.41 9.13 C0.28 8.76, 0.17 8.37, 0.1 7.98 C0.03 7.59, 0 7.19, 0 6.8 C0 6.41, 0.03 6.01, 0.1 5.62 C0.17 5.23, 0.28 4.84, 0.41 4.47 C0.54 4.1, 0.71 3.74, 0.91 3.4 C1.11 3.06, 1.34 2.73, 1.59 2.43 C1.84 2.13, 2.13 1.84, 2.43 1.59 C2.73 1.34, 3.06 1.11, 3.4 0.91 C3.74 0.71, 4.1 0.54, 4.47 0.41 C4.84 0.28, 5.23 0.17, 5.62 0.1 C6.01 0.03, 6.41 0, 6.8 0 C7.19 0, 7.59 0.03, 7.98 0.1 C8.37 0.17, 8.76 0.28, 9.13 0.41 C9.5 0.54, 9.86 0.71, 10.2 0.91 C10.54 1.11, 10.87 1.34, 11.17 1.59 C11.47 1.84, 11.76 2.13, 12.01 2.43 C12.26 2.73, 12.49 3.06, 12.69 3.4 C12.89 3.74, 13.06 4.1, 13.19 4.47 C13.32 4.84, 13.43 5.23, 13.5 5.62 C13.57 6.01, 13.58 6.6, 13.6 6.8 C13.62 7, 13.62 6.6, 13.6 6.8" stroke="#1e1e1e" stroke-width="2" fill="none"/></g><g stroke-linecap="round"><g transform="translate(618.4214413457114 776.4459891271122) rotate(0 -81.02376229218729 -155.81495263211082)"><path d="M0 0 C-53.45 0, -106.89 0, -162.05 0 M0 0 C-57.71 0, -115.42 0, -162.05 0 M-162.05 0 C-162.05 -100.25, -162.05 -200.5, -162.05 -311.63 M-162.05 0 C-162.05 -87.35, -162.05 -174.71, -162.05 -311.63 M-162.05 -311.63 C-142.84 -311.63, -123.63 -311.63, -98.16 -311.63 M-162.05 -311.63 C-145.84 -311.63, -129.64 -311.63, -98.16 -311.63" stroke="#1e1e1e" stroke-width="2" fill="none"/></g></g><mask/><g stroke-linecap="round" transform="translate(448.58316962505376 558.8244247155498) rotate(0 9.089204992330338 9.089204992330338)"><path d="M18.18 9.09 C18.18 9.62, 18.13 10.15, 18.04 10.67 C17.95 11.19, 17.81 11.7, 17.63 12.2 C17.45 12.69, 17.22 13.18, 16.96 13.63 C16.7 14.09, 16.39 14.53, 16.05 14.93 C15.71 15.33, 15.33 15.71, 14.93 16.05 C14.53 16.39, 14.09 16.7, 13.63 16.96 C13.18 17.22, 12.69 17.45, 12.2 17.63 C11.7 17.81, 11.19 17.95, 10.67 18.04 C10.15 18.13, 9.62 18.18, 9.09 18.18 C8.56 18.18, 8.03 18.13, 7.51 18.04 C6.99 17.95, 6.47 17.81, 5.98 17.63 C5.49 17.45, 5 17.22, 4.54 16.96 C4.09 16.7, 3.65 16.39, 3.25 16.05 C2.84 15.71, 2.46 15.33, 2.13 14.93 C1.79 14.53, 1.48 14.09, 1.22 13.63 C0.95 13.18, 0.73 12.69, 0.55 12.2 C0.37 11.7, 0.23 11.19, 0.14 10.67 C0.05 10.15, 0 9.62, 0 9.09 C0 8.56, 0.05 8.03, 0.14 7.51 C0.23 6.99, 0.37 6.47, 0.55 5.98 C0.73 5.49, 0.95 5, 1.22 4.54 C1.48 4.09, 1.79 3.65, 2.13 3.25 C2.46 2.84, 2.84 2.46, 3.25 2.13 C3.65 1.79, 4.09 1.48, 4.54 1.22 C5 0.95, 5.49 0.73, 5.98 0.55 C6.47 0.37, 6.99 0.23, 7.51 0.14 C8.03 0.05, 8.56 0, 9.09 0 C9.62 0, 10.15 0.05, 10.67 0.14 C11.19 0.23, 11.7 0.37, 12.2 0.55 C12.69 0.73, 13.18 0.95, 13.63 1.22 C14.09 1.48, 14.53 1.79, 14.93 2.13 C15.33 2.46, 15.71 2.84, 16.05 3.25 C16.39 3.65, 16.7 4.09, 16.96 4.54 C17.22 5, 17.45 5.49, 17.63 5.98 C17.81 6.47, 17.95 6.99, 18.04 7.51 C18.13 8.03, 18.16 8.83, 18.18 9.09 C18.2 9.35, 18.2 8.83, 18.18 9.09" stroke="none" stroke-width="0" fill="#1e1e1e"/><path d="M18.18 9.09 C18.18 9.62, 18.13 10.15, 18.04 10.67 C17.95 11.19, 17.81 11.7, 17.63 12.2 C17.45 12.69, 17.22 13.18, 16.96 13.63 C16.7 14.09, 16.39 14.53, 16.05 14.93 C15.71 15.33, 15.33 15.71, 14.93 16.05 C14.53 16.39, 14.09 16.7, 13.63 16.96 C13.18 17.22, 12.69 17.45, 12.2 17.63 C11.7 17.81, 11.19 17.95, 10.67 18.04 C10.15 18.13, 9.62 18.18, 9.09 18.18 C8.56 18.18, 8.03 18.13, 7.51 18.04 C6.99 17.95, 6.47 17.81, 5.98 17.63 C5.49 17.45, 5 17.22, 4.54 16.96 C4.09 16.7, 3.65 16.39, 3.25 16.05 C2.84 15.71, 2.46 15.33, 2.13 14.93 C1.79 14.53, 1.48 14.09, 1.22 13.63 C0.95 13.18, 0.73 12.69, 0.55 12.2 C0.37 11.7, 0.23 11.19, 0.14 10.67 C0.05 10.15, 0 9.62, 0 9.09 C0 8.56, 0.05 8.03, 0.14 7.51 C0.23 6.99, 0.37 6.47, 0.55 5.98 C0.73 5.49, 0.95 5, 1.22 4.54 C1.48 4.09, 1.79 3.65, 2.13 3.25 C2.46 2.84, 2.84 2.46, 3.25 2.13 C3.65 1.79, 4.09 1.48, 4.54 1.22 C5 0.95, 5.49 0.73, 5.98 0.55 C6.47 0.37, 6.99 0.23, 7.51 0.14 C8.03 0.05, 8.56 0, 9.09 0 C9.62 0, 10.15 0.05, 10.67 0.14 C11.19 0.23, 11.7 0.37, 12.2 0.55 C12.69 0.73, 13.18 0.95, 13.63 1.22 C14.09 1.48, 14.53 1.79, 14.93 2.13 C15.33 2.46, 15.71 2.84, 16.05 3.25 C16.39 3.65, 16.7 4.09, 16.96 4.54 C17.22 5, 17.45 5.49, 17.63 5.98 C17.81 6.47, 17.95 6.99, 18.04 7.51 C18.13 8.03, 18.16 8.83, 18.18 9.09 C18.2 9.35, 18.2 8.83, 18.18 9.09" stroke="#1e1e1e" stroke-width="2" fill="none"/></g><g stroke-linecap="round"><g transform="translate(458.9708324734312 568.1733371294052) rotate(0 30.383925719241148 0)"><path d="M0 0 C15.75 0, 31.51 0, 60.77 0 M0 0 C22.47 0, 44.94 0, 60.77 0" stroke="#1e1e1e" stroke-width="2" fill="none"/></g></g><mask/><g transform="translate(742.5540599347701 883.9508782999712) rotate(0 49.833984375 11.5)"><text x="0" y="18.400390625" font-family="Helvetica, Segoe UI Emoji" font-size="20px" fill="#1e1e1e" text-anchor="start" style="white-space: pre;" direction="ltr" dominant-baseline="alphabetic">Read/Write</text></g><g transform="translate(151.66787125639053 535.7871623107283) rotate(0 22.2412109375 11.5)"><text x="0" y="18.400390625" font-family="Helvetica, Segoe UI Emoji" font-size="20px" fill="#1e1e1e" text-anchor="start" style="white-space: pre;" direction="ltr" dominant-baseline="alphabetic">Input</text></g><g transform="translate(715.3633578252783 144.22430890995145) rotate(0 27.79296875 11.5)"><text x="0" y="18.400390625" font-family="Helvetica, Segoe UI Emoji" font-size="20px" fill="#1e1e1e" text-anchor="start" style="white-space: pre;" direction="ltr" dominant-baseline="alphabetic">Select</text></g><g stroke-linecap="round"><g transform="translate(737.2839054543084 223.95706226825905) rotate(0 -122.50878834363027 154.29901078617962)"><path d="M0 0 C-74.55 0, -149.1 0, -245.02 0 M0 0 C-70.18 0, -140.35 0, -245.02 0 M-245.02 0 C-245.02 106.33, -245.02 212.65, -245.02 308.6 M-245.02 0 C-245.02 70.39, -245.02 140.77, -245.02 308.6 M-245.02 308.6 C-235.46 308.6, -225.89 308.6, -217.88 308.6 M-245.02 308.6 C-235.32 308.6, -225.63 308.6, -217.88 308.6" stroke="#1e1e1e" stroke-width="2" fill="none"/></g></g><mask/><g stroke-linecap="round"><g transform="translate(491.4909095137392 431.7567331535904) rotate(0 16.670508291014414 0)"><path d="M0 0 C7.94 0, 15.88 0, 33.34 0 M0 0 C12.56 0, 25.12 0, 33.34 0" stroke="#1e1e1e" stroke-width="2" fill="none"/></g></g><mask/><g stroke-linecap="round" transform="translate(480.0756833862174 419.56608777275983) rotate(0 9.089204992330338 9.089204992330338)"><path d="M18.18 9.09 C18.18 9.62, 18.13 10.15, 18.04 10.67 C17.95 11.19, 17.81 11.7, 17.63 12.2 C17.45 12.69, 17.22 13.18, 16.96 13.63 C16.7 14.09, 16.39 14.53, 16.05 14.93 C15.71 15.33, 15.33 15.71, 14.93 16.05 C14.53 16.39, 14.09 16.7, 13.63 16.96 C13.18 17.22, 12.69 17.45, 12.2 17.63 C11.7 17.81, 11.19 17.95, 10.67 18.04 C10.15 18.13, 9.62 18.18, 9.09 18.18 C8.56 18.18, 8.03 18.13, 7.51 18.04 C6.99 17.95, 6.47 17.81, 5.98 17.63 C5.49 17.45, 5 17.22, 4.54 16.96 C4.09 16.7, 3.65 16.39, 3.25 16.05 C2.84 15.71, 2.46 15.33, 2.13 14.93 C1.79 14.53, 1.48 14.09, 1.22 13.63 C0.95 13.18, 0.73 12.69, 0.55 12.2 C0.37 11.7, 0.23 11.19, 0.14 10.67 C0.05 10.15, 0 9.62, 0 9.09 C0 8.56, 0.05 8.03, 0.14 7.51 C0.23 6.99, 0.37 6.47, 0.55 5.98 C0.73 5.49, 0.95 5, 1.22 4.54 C1.48 4.09, 1.79 3.65, 2.13 3.25 C2.46 2.84, 2.84 2.46, 3.25 2.13 C3.65 1.79, 4.09 1.48, 4.54 1.22 C5 0.95, 5.49 0.73, 5.98 0.55 C6.47 0.37, 6.99 0.23, 7.51 0.14 C8.03 0.05, 8.56 0, 9.09 0 C9.62 0, 10.15 0.05, 10.67 0.14 C11.19 0.23, 11.7 0.37, 12.2 0.55 C12.69 0.73, 13.18 0.95, 13.63 1.22 C14.09 1.48, 14.53 1.79, 14.93 2.13 C15.33 2.46, 15.71 2.84, 16.05 3.25 C16.39 3.65, 16.7 4.09, 16.96 4.54 C17.22 5, 17.45 5.49, 17.63 5.98 C17.81 6.47, 17.95 6.99, 18.04 7.51 C18.13 8.03, 18.16 8.83, 18.18 9.09 C18.2 9.35, 18.2 8.83, 18.18 9.09" stroke="none" stroke-width="0" fill="#1e1e1e"/><path d="M18.18 9.09 C18.18 9.62, 18.13 10.15, 18.04 10.67 C17.95 11.19, 17.81 11.7, 17.63 12.2 C17.45 12.69, 17.22 13.18, 16.96 13.63 C16.7 14.09, 16.39 14.53, 16.05 14.93 C15.71 15.33, 15.33 15.71, 14.93 16.05 C14.53 16.39, 14.09 16.7, 13.63 16.96 C13.18 17.22, 12.69 17.45, 12.2 17.63 C11.7 17.81, 11.19 17.95, 10.67 18.04 C10.15 18.13, 9.62 18.18, 9.09 18.18 C8.56 18.18, 8.03 18.13, 7.51 18.04 C6.99 17.95, 6.47 17.81, 5.98 17.63 C5.49 17.45, 5 17.22, 4.54 16.96 C4.09 16.7, 3.65 16.39, 3.25 16.05 C2.84 15.71, 2.46 15.33, 2.13 14.93 C1.79 14.53, 1.48 14.09, 1.22 13.63 C0.95 13.18, 0.73 12.69, 0.55 12.2 C0.37 11.7, 0.23 11.19, 0.14 10.67 C0.05 10.15, 0 9.62, 0 9.09 C0 8.56, 0.05 8.03, 0.14 7.51 C0.23 6.99, 0.37 6.47, 0.55 5.98 C0.73 5.49, 0.95 5, 1.22 4.54 C1.48 4.09, 1.79 3.65, 2.13 3.25 C2.46 2.84, 2.84 2.46, 3.25 2.13 C3.65 1.79, 4.09 1.48, 4.54 1.22 C5 0.95, 5.49 0.73, 5.98 0.55 C6.47 0.37, 6.99 0.23, 7.51 0.14 C8.03 0.05, 8.56 0, 9.09 0 C9.62 0, 10.15 0.05, 10.67 0.14 C11.19 0.23, 11.7 0.37, 12.2 0.55 C12.69 0.73, 13.18 0.95, 13.63 1.22 C14.09 1.48, 14.53 1.79, 14.93 2.13 C15.33 2.46, 15.71 2.84, 16.05 3.25 C16.39 3.65, 16.7 4.09, 16.96 4.54 C17.22 5, 17.45 5.49, 17.63 5.98 C17.81 6.47, 17.95 6.99, 18.04 7.51 C18.13 8.03, 18.16 8.83, 18.18 9.09 C18.2 9.35, 18.2 8.83, 18.18 9.09" stroke="#1e1e1e" stroke-width="2" fill="none"/></g><g stroke-linecap="round"><g transform="translate(737.2839054543084 224.73242236538414) rotate(0 0 -23.648837899415128)"><path d="M0 0 C0 -17.79, 0 -35.59, 0 -47.3 M0 0 C0 -17.67, 0 -35.34, 0 -47.3" stroke="#1e1e1e" stroke-width="2" fill="none"/></g></g><mask/><g stroke-linecap="round"><g transform="translate(1135.3651031302102 571.8023558906855) rotate(0 28.400039672851562 24.200027465820312)"><path d="M0 0 C0 8.27, -7.47 41.33, 0 49.6 C7.47 57.87, 35.33 54, 44.8 49.6 C54.27 45.2, 57.8 31.67, 56.8 23.2 C55.8 14.73, 48.27 2.67, 38.8 -1.2 C29.33 -5.07, 6.47 -0.2, 0 0 M0 0 C0 8.27, -7.47 41.33, 0 49.6 C7.47 57.87, 35.33 54, 44.8 49.6 C54.27 45.2, 57.8 31.67, 56.8 23.2 C55.8 14.73, 48.27 2.67, 38.8 -1.2 C29.33 -5.07, 6.47 -0.2, 0 0" stroke="#1e1e1e" stroke-width="2" fill="none"/></g></g><mask/><g stroke-linecap="round"><g transform="translate(735.7330669476912 223.18167259304232) rotate(0 199.27056192649712 179.49861324698242)"><path d="M0 0 C106.19 0, 212.37 0, 316.35 0 M0 0 C123.53 0, 247.07 0, 316.35 0 M316.35 0 C318.74 78.32, 321.12 156.63, 327.21 356.67 M316.35 0 C319.24 94.98, 322.13 189.97, 327.21 356.67 M327.21 356.67 C344.44 357.23, 361.67 357.79, 398.54 359 M327.21 356.67 C345.36 357.26, 363.51 357.85, 398.54 359" stroke="#1e1e1e" stroke-width="2" fill="none"/></g></g><mask/><g stroke-linecap="round"><g transform="translate(796.2121010223814 778.3479614688205) rotate(0 169.03110404533544 -86.45395226548032)"><path d="M0 0 C106.83 0, 213.65 0, 276.81 0 M0 0 C67.38 0, 134.75 0, 276.81 0 M276.81 0 C276.2 -44.83, 275.6 -89.66, 274.48 -172.91 M276.81 0 C276.31 -36.75, 275.82 -73.49, 274.48 -172.91 M274.48 -172.91 C296.94 -172.36, 319.4 -171.81, 338.06 -171.36 M274.48 -172.91 C293.99 -172.43, 313.49 -171.96, 338.06 -171.36" stroke="#1e1e1e" stroke-width="2" fill="none"/></g></g><mask/><g stroke-linecap="round"><g transform="translate(903.2133324864096 591.4833385648747) rotate(0 113.97970896288768 0)"><path d="M0 0 C52.12 0, 104.24 0, 227.96 0 M0 0 C58.2 0, 116.39 0, 227.96 0" stroke="#1e1e1e" stroke-width="2" fill="none"/></g></g><mask/><g transform="translate(738.8347439609255 417.6001662222935) rotate(0 14.756679498992469 18.190588628040118)"><text x="0" y="29.105559691706176" font-family="Helvetica, Segoe UI Emoji" font-size="31.635806309634997px" fill="#1e1e1e" text-anchor="start" style="white-space: pre;" direction="ltr" dominant-baseline="alphabetic">R</text></g><g transform="translate(739.5853847168012 561.6621414333166) rotate(0 14.756679498992469 18.19058862804012)"><text x="0" y="29.105559691706176" font-family="Helvetica, Segoe UI Emoji" font-size="31.635806309634997px" fill="#1e1e1e" text-anchor="start" style="white-space: pre;" direction="ltr" dominant-baseline="alphabetic">S</text></g><g transform="translate(852.0143143292553 563.988310458967) rotate(0 14.756679498992469 18.19058862804012)"><text x="0" y="29.105559691706176" font-family="Helvetica, Segoe UI Emoji" font-size="31.635806309634997px" fill="#1e1e1e" text-anchor="start" style="white-space: pre;" direction="ltr" dominant-baseline="alphabetic">Q</text></g><g stroke-linecap="round"><g transform="translate(580.6586812753408 445.7134219484837) rotate(0 72.10961300011638 0)"><path d="M0 0 C34.65 0, 69.29 0, 144.22 0 M0 0 C43.72 0, 87.45 0, 144.22 0" stroke="#1e1e1e" stroke-width="2" fill="none"/></g></g><mask/><g stroke-linecap="round"><g transform="translate(577.5572408868405 546.5118022136032) rotate(0 72.49726347058714 17.445868388139417)"><path d="M0 0 C41.72 0, 83.45 0, 115.53 0 M0 0 C29.65 0, 59.31 0, 115.53 0 M115.53 0 C115.53 7.9, 115.53 15.8, 115.53 34.89 M115.53 0 C115.53 8.4, 115.53 16.8, 115.53 34.89 M115.53 34.89 C125.09 34.89, 134.64 34.89, 144.99 34.89 M115.53 34.89 C126.64 34.89, 137.76 34.89, 144.99 34.89" stroke="#1e1e1e" stroke-width="2" fill="none"/></g></g><mask/><g stroke-linecap="round" transform="translate(1580.1015160632273 413.86797023768577) rotate(0 106.5260963072028 65.61388538938661)"><path d="M0 0 C78.8 0, 157.61 0, 213.05 0 M0 0 C72.96 0, 145.92 0, 213.05 0 M213.05 0 C213.05 38.87, 213.05 77.74, 213.05 131.23 M213.05 0 C213.05 51.91, 213.05 103.82, 213.05 131.23 M213.05 131.23 C156.75 131.23, 100.46 131.23, 0 131.23 M213.05 131.23 C158.94 131.23, 104.82 131.23, 0 131.23 M0 131.23 C0 94.49, 0 57.76, 0 0 M0 131.23 C0 95.11, 0 59, 0 0" stroke="#1e1e1e" stroke-width="2" fill="none"/></g><g transform="translate(1661.6227295579301 458.7818556270724) rotate(0 25.0048828125 20.699999999999996)"><text x="25.0048828125" y="33.120703125" font-family="Helvetica, Segoe UI Emoji" font-size="36px" fill="#1e1e1e" text-anchor="middle" style="white-space: pre;" direction="ltr" dominant-baseline="alphabetic">BC</text></g><g stroke-linecap="round"><g transform="translate(1450.1018747041853 486.9140573119721) rotate(0 64.49982067952095 0)"><path d="M0 0 C31.57 0, 63.15 0, 129 0 M0 0 C32.08 0, 64.16 0, 129 0" stroke="#1e1e1e" stroke-width="2" fill="none"/></g><g transform="translate(1450.1018747041853 486.9140573119721) rotate(0 64.49982067952095 0)"><path d="M105.51 8.55 C111.26 6.46, 117.01 4.37, 129 0 M105.51 8.55 C111.35 6.42, 117.19 4.3, 129 0" stroke="#1e1e1e" stroke-width="2" fill="none"/></g><g transform="translate(1450.1018747041853 486.9140573119721) rotate(0 64.49982067952095 0)"><path d="M105.51 -8.55 C111.26 -6.46, 117.01 -4.37, 129 0 M105.51 -8.55 C111.35 -6.42, 117.19 -4.3, 129 0" stroke="#1e1e1e" stroke-width="2" fill="none"/></g></g><mask/><g stroke-linecap="round"><g transform="translate(1794.7296214219114 482.30673374299533) rotate(0 77.86374019483742 0)"><path d="M0 0 C61.34 0, 122.69 0, 155.73 0 M0 0 C44.07 0, 88.13 0, 155.73 0" stroke="#1e1e1e" stroke-width="2" fill="none"/></g><g transform="translate(1794.7296214219114 482.30673374299533) rotate(0 77.86374019483742 0)"><path d="M132.24 8.55 C141.49 5.18, 150.74 1.81, 155.73 0 M132.24 8.55 C138.88 6.13, 145.53 3.71, 155.73 0" stroke="#1e1e1e" stroke-width="2" fill="none"/></g><g transform="translate(1794.7296214219114 482.30673374299533) rotate(0 77.86374019483742 0)"><path d="M132.24 -8.55 C141.49 -5.18, 150.74 -1.81, 155.73 0 M132.24 -8.55 C138.88 -6.13, 145.53 -3.71, 155.73 0" stroke="#1e1e1e" stroke-width="2" fill="none"/></g></g><mask/><g stroke-linecap="round"><g transform="translate(1695.2114042111398 655.5421280573963) rotate(0 1.1368683772161603e-13 -54.72319352046867)"><path d="M0 0 C0 -40.92, 0 -81.84, 0 -109.45 M0 0 C0 -41.65, 0 -83.31, 0 -109.45" stroke="#1e1e1e" stroke-width="2" fill="none"/></g><g transform="translate(1695.2114042111398 655.5421280573963) rotate(0 1.1368683772161603e-13 -54.72319352046867)"><path d="M8.55 -85.95 C5.35 -94.74, 2.16 -103.52, 0 -109.45 M8.55 -85.95 C5.3 -94.9, 2.04 -103.84, 0 -109.45" stroke="#1e1e1e" stroke-width="2" fill="none"/></g><g transform="translate(1695.2114042111398 655.5421280573963) rotate(0 1.1368683772161603e-13 -54.72319352046867)"><path d="M-8.55 -85.95 C-5.35 -94.74, -2.16 -103.52, 0 -109.45 M-8.55 -85.95 C-5.3 -94.9, -2.04 -103.84, 0 -109.45" stroke="#1e1e1e" stroke-width="2" fill="none"/></g></g><mask/><g stroke-linecap="round"><g transform="translate(1688.7611793354436 412.73611973057336) rotate(0 5.684341886080802e-14 -55.74860815440206)"><path d="M0 0 C0 -25.62, 0 -51.24, 0 -111.5 M0 0 C0 -27.92, 0 -55.85, 0 -111.5" stroke="#1e1e1e" stroke-width="2" fill="none"/></g><g transform="translate(1688.7611793354436 412.73611973057336) rotate(0 5.684341886080802e-14 -55.74860815440206)"><path d="M8.55 -88 C6.59 -93.4, 4.62 -98.8, 0 -111.5 M8.55 -88 C6.41 -93.89, 4.27 -99.77, 0 -111.5" stroke="#1e1e1e" stroke-width="2" fill="none"/></g><g transform="translate(1688.7611793354436 412.73611973057336) rotate(0 5.684341886080802e-14 -55.74860815440206)"><path d="M-8.55 -88 C-6.59 -93.4, -4.62 -98.8, 0 -111.5 M-8.55 -88 C-6.41 -93.89, -4.27 -99.77, 0 -111.5" stroke="#1e1e1e" stroke-width="2" fill="none"/></g></g><mask/><g transform="translate(1639.0021410322365 238.11858458722207) rotate(0 50.02734375 20.69999999999999)"><text x="0" y="33.120703125" font-family="Helvetica, Segoe UI Emoji" font-size="36px" fill="#1e1e1e" text-anchor="start" style="white-space: pre;" direction="ltr" dominant-baseline="alphabetic">Select</text></g><g transform="translate(1336.493311037512 462.06749422076444) rotate(0 40.0341796875 20.7)"><text x="0" y="33.120703125" font-family="Helvetica, Segoe UI Emoji" font-size="36px" fill="#1e1e1e" text-anchor="start" style="white-space: pre;" direction="ltr" dominant-baseline="alphabetic">Input</text></g><g transform="translate(1988.747493098871 462.06749422076444) rotate(0 54.03515625 20.7)"><text x="0" y="33.120703125" font-family="Helvetica, Segoe UI Emoji" font-size="36px" fill="#1e1e1e" text-anchor="start" style="white-space: pre;" direction="ltr" dominant-baseline="alphabetic">Output</text></g><g transform="translate(1654.0402269697365 678.1509414849074) rotate(0 34.9892578125 20.700000000000003)"><text x="0" y="33.120703125" font-family="Helvetica, Segoe UI Emoji" font-size="36px" fill="#1e1e1e" text-anchor="start" style="white-space: pre;" direction="ltr" dominant-baseline="alphabetic">R/W</text></g></svg>